<svg width="151" height="109" viewBox="0 0 151 109" fill="none" xmlns="http://www.w3.org/2000/svg">
<path d="M149.159 92.4848H143.634V47.8939C143.634 46.9811 142.811 46.2424 141.793 46.2424H106.805V1.65152C106.805 0.738666 105.981 0 104.963 0H46.0366C45.0187 0 44.1951 0.738666 44.1951 1.65152V46.2424H9.20732C8.18948 46.2424 7.36585 46.9811 7.36585 47.8939V92.4848H1.84146C0.823623 92.4848 0 93.2235 0 94.1364V100.742C0 101.655 0.823623 102.394 1.84146 102.394H14.7317V107.348C14.7317 108.261 15.5553 109 16.5732 109H46.0366C47.0544 109 47.878 108.261 47.878 107.348V102.394H103.122V107.348C103.122 108.261 103.946 109 104.963 109H134.427C135.445 109 136.268 108.261 136.268 107.348V102.394H149.159C150.176 102.394 151 101.655 151 100.742V94.1364C151 93.2235 150.176 92.4848 149.159 92.4848ZM106.805 49.5455H117.854V65.5606L113.861 60.19C113.178 59.2739 111.48 59.2739 110.797 60.19L106.805 65.5606V49.5455ZM104.431 72.5957C105.204 72.8086 106.042 72.5344 106.496 71.9312L112.329 64.0833L118.163 71.9312C118.512 72.3989 119.091 72.6667 119.695 72.6667C119.871 72.6667 120.051 72.6441 120.227 72.5957C121.004 72.386 121.537 71.7441 121.537 71.0152V49.5455H139.951V92.4848H84.7073V49.5455H103.122V71.0152C103.122 71.7441 103.654 72.386 104.431 72.5957ZM69.9756 3.30303H81.0244V19.3182L77.0322 13.9476C76.3488 13.0315 74.6512 13.0315 73.9678 13.9476L69.9756 19.3182V3.30303ZM47.878 3.30303H66.2927V24.7727C66.2927 25.5017 66.8232 26.1436 67.6001 26.3533C68.3733 26.5662 69.2167 26.2952 69.6663 25.6888L75.5 17.8409L81.3337 25.6888C81.6826 26.1565 82.2616 26.4242 82.8659 26.4242C83.0421 26.4242 83.2219 26.4017 83.3982 26.3533C84.175 26.1436 84.7073 25.5017 84.7073 24.7727V3.30303H103.122V46.2424H47.878V3.30303ZM81.0244 49.5455V92.4848H69.9756V49.5455H81.0244ZM33.1463 49.5455H44.1951V65.5606L40.2029 60.19C39.5195 59.2739 37.8219 59.2739 37.1386 60.19L33.1463 65.5606V49.5455ZM11.0488 49.5455H29.4634V71.0152C29.4634 71.7441 29.9939 72.386 30.7708 72.5957C31.5441 72.8054 32.3875 72.5376 32.837 71.9312L38.6707 64.0833L44.5044 71.9312C44.8515 72.3989 45.4324 72.6667 46.0366 72.6667C46.2146 72.6667 46.3944 72.6441 46.5707 72.5957C47.3475 72.386 47.878 71.7441 47.878 71.0152V49.5455H66.2927V92.4848H11.0488V49.5455ZM44.1951 105.697H18.4146V102.394H44.1951V105.697ZM132.585 105.697H106.805V102.394H132.585V105.697ZM147.317 99.0909H3.68293V95.7879H147.317V99.0909Z" fill="#293B6E"/>
<path d="M57.0854 85.8789H53.4025C52.3847 85.8789 51.561 86.6176 51.561 87.5304C51.561 88.4433 52.3847 89.1819 53.4025 89.1819H57.0854C58.1033 89.1819 58.9269 88.4433 58.9269 87.5304C58.9269 86.6176 58.1033 85.8789 57.0854 85.8789Z" fill="#CC2034"/>
<path d="M57.0854 79.2729H53.4025C52.3847 79.2729 51.561 80.0116 51.561 80.9245C51.561 81.8373 52.3847 82.576 53.4025 82.576H57.0854C58.1033 82.576 58.9269 81.8373 58.9269 80.9245C58.9269 80.0116 58.1033 79.2729 57.0854 79.2729Z" fill="#CC2034"/>
<path d="M127.061 89.1819H130.744C131.762 89.1819 132.586 88.4433 132.586 87.5304C132.586 86.6176 131.762 85.8789 130.744 85.8789H127.061C126.043 85.8789 125.22 86.6176 125.22 87.5304C125.22 88.4433 126.043 89.1819 127.061 89.1819Z" fill="#CC2034"/>
<path d="M127.061 82.576H130.744C131.762 82.576 132.586 81.8373 132.586 80.9245C132.586 80.0116 131.762 79.2729 130.744 79.2729H127.061C126.043 79.2729 125.22 80.0116 125.22 80.9245C125.22 81.8373 126.043 82.576 127.061 82.576Z" fill="#CC2034"/>
<path d="M90.2321 42.9393H93.915C94.9329 42.9393 95.7565 42.2006 95.7565 41.2877C95.7565 40.3749 94.9329 39.6362 93.915 39.6362H90.2321C89.2142 39.6362 88.3906 40.3749 88.3906 41.2877C88.3906 42.2006 89.2142 42.9393 90.2321 42.9393Z" fill="#CC2034"/>
<path d="M90.2321 36.3333H93.915C94.9329 36.3333 95.7565 35.5946 95.7565 34.6818C95.7565 33.7689 94.9329 33.0303 93.915 33.0303H90.2321C89.2142 33.0303 88.3906 33.7689 88.3906 34.6818C88.3906 35.5946 89.2142 36.3333 90.2321 36.3333Z" fill="#CC2034"/>
</svg>
