<svg width="110" height="112" viewBox="0 0 110 112" fill="none" xmlns="http://www.w3.org/2000/svg">
<path d="M108.333 87.3938H93.6664C92.6664 87.3938 91.9998 86.715 91.9998 85.6968V34.4483C91.9998 29.3574 95.9998 25.2847 101 25.2847C106 25.2847 110 29.3574 110 34.4483V85.6968C110 86.715 109.333 87.3938 108.333 87.3938ZM95.3331 83.9998H106.666V34.4483C106.666 31.2241 104.166 28.6786 101 28.6786C97.8331 28.6786 95.3331 31.2241 95.3331 34.4483V83.9998Z" fill="#293B6E"/>
<path d="M101 112C100.333 112 99.6665 111.491 99.3332 110.812L91.9998 86.2059C91.6665 85.3574 92.1665 84.3392 93.1665 84.1695C93.9998 83.8301 94.9998 84.3392 95.1665 85.3574L100.833 104.533L106.667 85.1877C107 84.3392 107.833 83.8301 108.667 83.9998C109.5 84.3392 110 85.1877 109.833 86.0362L102.5 110.642C102.333 111.491 101.667 112 101 112Z" fill="#293B6E"/>
<path d="M108.333 44.121H93.6664C92.6664 44.121 91.9998 43.4422 91.9998 42.424C91.9998 41.4058 92.6664 40.7271 93.6664 40.7271H108.333C109.333 40.7271 110 41.4058 110 42.424C110 43.4422 109.333 44.121 108.333 44.121Z" fill="#293B6E"/>
<path d="M86.8337 112H1.66667C0.666669 112 0 111.321 0 110.303V1.69697C0 0.678788 0.666669 0 1.66667 0H57.1669C57.5002 0 58.0002 0.169697 58.3336 0.509091L88.0003 28.1697C88.3337 28.5091 88.5003 29.0182 88.5003 29.3576V110.303C88.5003 111.321 87.8337 112 86.8337 112ZM3.33335 108.606H85.167V30.0364L56.6669 3.39394H3.33335V108.606Z" fill="#293B6E"/>
<path d="M86.8333 31.0545H57.1666C56.1665 31.0545 55.4999 30.3758 55.4999 29.3576V1.69697C55.4999 0.678788 56.1665 0 57.1666 0C58.1666 0 58.8332 0.678788 58.8332 1.69697V27.6606H86.8333C87.8333 27.6606 88.5 28.3394 88.5 29.3576C88.5 30.2061 87.8333 31.0545 86.8333 31.0545Z" fill="#293B6E"/>
<path d="M48.1666 12.7274H9.66643C8.66642 12.7274 7.99976 12.0486 7.99976 11.0305C7.99976 10.0123 8.66642 9.3335 9.66643 9.3335H48.1666C49.1666 9.3335 49.8332 10.0123 49.8332 11.0305C49.8332 12.0486 49.1666 12.7274 48.1666 12.7274Z" fill="#293B6E"/>
<path d="M48.1666 23.079H9.66643C8.66642 23.079 7.99976 22.4002 7.99976 21.382C7.99976 20.3638 8.66642 19.6851 9.66643 19.6851H48.1666C49.1666 19.6851 49.8332 20.3638 49.8332 21.382C49.8332 22.4002 49.1666 23.079 48.1666 23.079Z" fill="#293B6E"/>
<path d="M77.3334 41.5756H38.8333C37.8333 41.5756 37.1666 40.8968 37.1666 39.8786C37.1666 38.8604 37.8333 38.1816 38.8333 38.1816H77.3334C78.3335 38.1816 79.0001 38.8604 79.0001 39.8786C79.0001 40.8968 78.3335 41.5756 77.3334 41.5756Z" fill="#293B6E"/>
<path d="M77.3334 51.9271H38.8333C37.8333 51.9271 37.1666 51.2484 37.1666 50.2302C37.1666 49.212 37.8333 48.5332 38.8333 48.5332H77.3334C78.3335 48.5332 79.0001 49.212 79.0001 50.2302C79.0001 51.2484 78.3335 51.9271 77.3334 51.9271Z" fill="#293B6E"/>
<path d="M77.3334 67.7089H38.8333C37.8333 67.7089 37.1666 67.0301 37.1666 66.0119C37.1666 64.9937 37.8333 64.3149 38.8333 64.3149H77.3334C78.3335 64.3149 79.0001 64.9937 79.0001 66.0119C79.0001 66.8604 78.3335 67.7089 77.3334 67.7089Z" fill="#293B6E"/>
<path d="M77.3334 78.0604H38.8333C37.8333 78.0604 37.1666 77.3817 37.1666 76.3635C37.1666 75.3453 37.8333 74.6665 38.8333 74.6665H77.3334C78.3335 74.6665 79.0001 75.3453 79.0001 76.3635C79.0001 77.3817 78.3335 78.0604 77.3334 78.0604Z" fill="#293B6E"/>
<path d="M77.3334 93.8422H38.8333C37.8333 93.8422 37.1666 93.1634 37.1666 92.1452C37.1666 91.127 37.8333 90.4482 38.8333 90.4482H77.3334C78.3335 90.4482 79.0001 91.127 79.0001 92.1452C79.0001 92.9937 78.3335 93.8422 77.3334 93.8422Z" fill="#293B6E"/>
<path d="M77.3334 104.194H38.8333C37.8333 104.194 37.1666 103.515 37.1666 102.497C37.1666 101.479 37.8333 100.8 38.8333 100.8H77.3334C78.3335 100.8 79.0001 101.479 79.0001 102.497C79.0001 103.345 78.3335 104.194 77.3334 104.194Z" fill="#293B6E"/>
<path d="M31.3333 54.303H9.99992C8.99992 54.303 8.33325 53.6242 8.33325 52.606V32.2424C8.33325 31.2242 8.99992 30.5454 9.99992 30.5454H31.3333C32.3333 30.5454 33 31.2242 33 32.2424V52.606C33 53.4545 32.1667 54.303 31.3333 54.303ZM11.6666 50.909H29.6667V33.9393H11.6666V50.909Z" fill="#293B6E"/>
<path d="M18.3339 48.8727H18.1672C17.6672 48.8727 17.1672 48.5333 17.0006 48.0243L14.0005 42.7637C13.5005 41.9152 13.8339 40.897 14.6672 40.3879C15.5006 39.8788 16.5006 40.2182 17.0006 41.0667L18.8339 44.2909L25.6673 36.994C26.3339 36.3152 27.3339 36.3152 28.0006 36.994C28.6673 37.6727 28.6673 38.6909 28.0006 39.3697L19.6672 48.194C19.1672 48.703 18.6672 48.8727 18.3339 48.8727Z" fill="#CC2034"/>
<path d="M31.3333 80.4363H9.99992C8.99992 80.4363 8.33325 79.7575 8.33325 78.7393V58.3757C8.33325 57.3575 8.99992 56.6787 9.99992 56.6787H31.3333C32.3333 56.6787 33 57.3575 33 58.3757V78.5696C33 79.5878 32.1667 80.4363 31.3333 80.4363ZM11.6666 77.0423H29.6667V60.2423H11.6666V77.0423Z" fill="#293B6E"/>
<path d="M18.3339 75.006H18.1672C17.6672 75.006 17.1672 74.6666 17.0006 74.1576L14.0005 68.8969C13.5005 68.0485 13.8339 67.0303 14.6672 66.5212C15.5006 66.0121 16.5006 66.3515 17.0006 67.2L18.8339 70.4242L25.6673 63.1273C26.3339 62.4485 27.3339 62.4485 28.0006 63.1273C28.6673 63.806 28.6673 64.8242 28.0006 65.503L19.6672 74.3273C19.1672 74.8363 18.6672 75.006 18.3339 75.006Z" fill="#CC2034"/>
<path d="M31.3333 106.57H9.99992C8.99992 106.57 8.33325 105.891 8.33325 104.873V84.509C8.33325 83.4908 8.99992 82.812 9.99992 82.812H31.3333C32.3333 82.812 33 83.4908 33 84.509V104.703C33 105.721 32.1667 106.57 31.3333 106.57ZM11.6666 103.176H29.6667V86.3757H11.6666V103.176Z" fill="#293B6E"/>
<path d="M18.3339 101.139H18.1672C17.6672 101.139 17.1672 100.8 17.0006 100.291L14.0005 95.0303C13.5005 94.1818 13.8339 93.1636 14.6672 92.6545C15.5006 92.1454 16.5006 92.4848 17.0006 93.3333L18.8339 96.5575L25.6673 89.2606C26.3339 88.5818 27.3339 88.5818 28.0006 89.2606C28.6673 89.9393 28.6673 90.9575 28.0006 91.6363L19.6672 100.461C19.1672 100.97 18.6672 101.139 18.3339 101.139Z" fill="#CC2034"/>
</svg>
