<svg width="44" height="44" viewBox="0 0 44 44" fill="none" xmlns="http://www.w3.org/2000/svg">
<circle cx="22" cy="22" r="21.5" stroke="#CC2034"/>
<path d="M28.2153 33H28.2145C23.964 32.9997 19.1428 28.6466 17.2674 26.7751C15.2158 24.7279 10.5025 19.49 11.0428 15.0782C11.246 13.4196 12.1676 12.0871 13.7822 11.1176C13.9121 11.0395 14.0606 11 14.2235 11C15.4934 11 17.9979 13.9644 19.0116 15.3998C20.4607 17.4517 20.2554 18.0308 20.1781 18.2487C19.9324 18.9411 19.4754 19.3449 19.0724 19.7008C18.7196 20.0125 18.4151 20.2815 18.2597 20.7191C18.2383 20.8254 18.3792 21.3995 19.2995 22.5306C20.7456 24.3081 22.6511 25.7393 23.2648 25.7393C23.7176 25.5843 23.987 25.2797 24.2984 24.9269C24.6546 24.5239 25.0582 24.0671 25.7509 23.8212C25.8483 23.7866 25.9562 23.7691 26.0714 23.7691C27.5315 23.7691 31.755 27.2329 32.7463 28.9826C32.8513 29.1683 33.1713 29.7334 32.8817 30.2166C31.7746 32.0637 30.2043 33 28.2153 33ZM14.2599 12.0533C12.9567 12.8539 12.2444 13.8858 12.0828 15.2055C11.7468 17.9483 13.9616 21.9963 18.0073 26.0334C19.7908 27.813 24.355 31.9522 28.215 31.9524H28.2155C29.8123 31.9524 31.0337 31.2278 31.9472 29.7379C31.7744 28.7026 27.1769 24.8337 26.0788 24.8169C25.655 24.9746 25.3897 25.2744 25.0838 25.6207C24.7274 26.024 24.3236 26.481 23.6306 26.7269C23.5185 26.7667 23.3957 26.7869 23.265 26.7869C21.8773 26.7869 19.229 24.291 18.0154 22.5725C17.3324 21.6056 17.0894 20.8849 17.2727 20.3687C17.5183 19.6757 17.9756 19.2719 18.3786 18.9157C18.7254 18.6095 19.0255 18.344 19.1829 17.9195C19.1887 17.5421 18.3344 16.0286 16.7395 14.2202C15.4298 12.735 14.5506 12.1188 14.2599 12.0533Z" fill="#293B6E"/>
</svg>
