<svg id="Layer_1" data-name="Layer 1" xmlns="http://www.w3.org/2000/svg" viewBox="0 0 89.47 92.2">
    <rect x="8.31" y="6.02" width="51.47" height="12.01" style="fill:#fff"/>
    <path d="M971.24,2988.13v-11.89a3.12,3.12,0,0,0-3.22-3H963.5a3.19,3.19,0,0,0-3.3,2.94l-.57,12a3.33,3.33,0,0,0,2.18,3.25,4,4,0,0,0,1.5.29h4A3.81,3.81,0,0,0,971.24,2988.13Zm-4-.38h-3.58l.49-10.51h3.09Z" transform="translate(-959.63 -2953.9)" style="fill:#293b6e"/>
    <path d="M974.63,2967.68a2,2,0,0,0,2.45-1.4l1.72-6.28c.05-.17.38-.62,1.3-1.06a9.77,9.77,0,0,1,3.86-.81c6.78-.15,13.64-.23,20.4-.23s13.62.08,20.4.23c3.07.06,5,1.25,5.16,1.88l1.72,6.27a2,2,0,0,0,1.93,1.47,1.86,1.86,0,0,0,.52-.07,2,2,0,0,0,1.41-2.46l-1.72-6.27c-.76-2.78-4.35-4.72-8.94-4.82-6.8-.15-13.7-.23-20.48-.23s-13.68.08-20.49.23a13.55,13.55,0,0,0-5.49,1.2,5.89,5.89,0,0,0-3.44,3.62l-1.72,6.27A2,2,0,0,0,974.63,2967.68Z" transform="translate(-959.63 -2953.9)" style="fill:#293b6e"/>
    <path d="M1048.53,2976.18a3.21,3.21,0,0,0-3.31-2.94h-4.52a3.12,3.12,0,0,0-3.22,3v11.89a3.81,3.81,0,0,0,4,3.62h4a3.88,3.88,0,0,0,1.49-.29,3.33,3.33,0,0,0,2.19-3.25Zm-7,11.57v-10.51h3.09l.49,10.51Z" transform="translate(-959.63 -2953.9)" style="fill:#293b6e"/>
    <path d="M972.67,2992.37l7.82,7.21a2,2,0,0,0,1.36.53,2,2,0,0,0,1.35-3.47l-5.52-5.09c12.34-.92,41-.92,53.36,0l-5.52,5.08a2,2,0,0,0,2.71,2.94l7.73-7.11a2.07,2.07,0,0,0,.47-.37,2,2,0,0,0,.54-1.44l0-.78a2,2,0,0,0-1.72-1.91c-10.39-1.48-51.35-1.48-61.74,0a2,2,0,0,0-1.72,1.91l0,.78a2,2,0,0,0,.58,1.44A1.54,1.54,0,0,0,972.67,2992.37Z" transform="translate(-959.63 -2953.9)" style="fill:#293b6e"/>
    <path d="M1035.12,2995.35a2,2,0,0,0-1.93,2.07l0,1.2a2.21,2.21,0,0,0,.31,1s3.21,5.2,3.85,15a2,2,0,0,0,2,1.87h.13a2,2,0,0,0,1.87-2.13c-.6-9.23-3.26-14.76-4.16-16.4l0-.7A2,2,0,0,0,1035.12,2995.35Z" transform="translate(-959.63 -2953.9)" style="fill:#293b6e"/>
    <path d="M967.35,3014.39a2,2,0,0,0,1.87,2.13h.13a2,2,0,0,0,2-1.87,46.19,46.19,0,0,1,1.31-8.38,25.77,25.77,0,0,1,2.53-6.63,2.08,2.08,0,0,0,.32-1l0-1.21a2,2,0,1,0-4-.12l0,.7a32.29,32.29,0,0,0-2.74,7.28A49.84,49.84,0,0,0,967.35,3014.39Z" transform="translate(-959.63 -2953.9)" style="fill:#293b6e"/>
    <path d="M1039.28,3019.42l-20.64,2H990.25l-20.8-2a2,2,0,0,0-2.2,2.06,44,44,0,0,0,2.12,12.68,5.3,5.3,0,0,0,5.19,3.11h59.6a5.3,5.3,0,0,0,5.19-3.11,44.7,44.7,0,0,0,2.12-12.68,2,2,0,0,0-2.19-2.06Zm-3.69,13.38a1.89,1.89,0,0,1-1.43.47h-59.6a2,2,0,0,1-1.42-.45,36.92,36.92,0,0,1-1.77-9.19l18.6,1.82h28.9l.13,0h0l18.35-1.79A37.15,37.15,0,0,1,1035.59,3032.8Z" transform="translate(-959.63 -2953.9)" style="fill:#293b6e"/>
    <path d="M986.48,3017.64a3,3,0,0,0,2.06,2.15h31.58a2,2,0,0,0,2-1.7,1.7,1.7,0,0,0,.15-.45l1.2-6.12c.9-4.63,1.74-8.9,1.75-9a3.23,3.23,0,0,0-2-3.46l-2.88-1.11c-3-1.14-3.66-1.41-5.06-1.41-8.79,0-14.13,0-17.33,0-5.49,0-5.6,0-6.88.46l-5.43,2.06a3.23,3.23,0,0,0-2,3.46,1.16,1.16,0,0,0,0,.18c0,.05,0,.11,0,.16,0,.25.08.49.12.71v0h0Zm33-6.88-1,5H990.19l-1-5.16h30.36Zm-27.09-10c.58-.22.59-.23,5.44-.2,3.2,0,8.56,0,17.36,0,.6,0,.84.08,3.61,1.14l2.28.88c-.16.82-.45,2.28-.79,4.05H988.4l-.64-3.29,0-.16h0l-.05-.26a.13.13,0,0,1,0-.06c0-.1,0-.2-.06-.28Z" transform="translate(-959.63 -2953.9)" style="fill:#293b6e"/>
    <path d="M982.24,3038.6a2,2,0,0,0-2,2v1.25a.25.25,0,0,1-.25.25h-7.38a.25.25,0,0,1-.25-.25v-2.36a2,2,0,0,0-4,0v2.36a4.26,4.26,0,0,0,4.25,4.25H980a4.25,4.25,0,0,0,4.25-4.25v-1.25A2,2,0,0,0,982.24,3038.6Z" transform="translate(-959.63 -2953.9)" style="fill:#cc2034"/>
    <path d="M1038.36,3037.49a2,2,0,0,0-2,2v2.36a.25.25,0,0,1-.25.25h-7.38a.25.25,0,0,1-.25-.25v-1.25a2,2,0,0,0-4,0v1.25a4.25,4.25,0,0,0,4.25,4.25h7.38a4.26,4.26,0,0,0,4.25-4.25v-2.36A2,2,0,0,0,1038.36,3037.49Z" transform="translate(-959.63 -2953.9)" style="fill:#cc2034"/>
    <path d="M1031,3011.71c1.31-1,2.36-1.66,3.32-2.23a2,2,0,1,0-2-3.45,43.94,43.94,0,0,0-3.67,2.45,5.54,5.54,0,0,0-2,2.9l-1.3,4.36a2.39,2.39,0,0,0,.51,2.26,2.36,2.36,0,0,0,1.78.81,2.85,2.85,0,0,0,.41,0l6.76-1.15a2,2,0,0,0-.67-3.94l-4.22.72.56-1.89A1.58,1.58,0,0,1,1031,3011.71Z" transform="translate(-959.63 -2953.9)" style="fill:#cc2034"/>
    <path d="M973.87,2986.8a2,2,0,0,0,2.07-1.94l.37-11.73a2.8,2.8,0,0,1,2-.81h52.18a2.8,2.8,0,0,1,2,.81l.37,11.73a2,2,0,0,0,2,1.94h.07a2,2,0,0,0,1.93-2.06l-.39-12.41a2.16,2.16,0,0,0-.35-1.07,6.8,6.8,0,0,0-5.59-2.94H978.27a6.8,6.8,0,0,0-5.59,2.94,2.16,2.16,0,0,0-.35,1.07l-.39,12.41A2,2,0,0,0,973.87,2986.8Z" transform="translate(-959.63 -2953.9)" style="fill:#cc2034"/>
    <path d="M972.46,3015.34a2,2,0,0,0,1.64,2.3l6.66,1.13a1.81,1.81,0,0,0,.4,0,2.39,2.39,0,0,0,2.29-3.07l-1.3-4.37a5.49,5.49,0,0,0-2-2.88,41.59,41.59,0,0,0-3.66-2.45,2,2,0,1,0-2,3.45,37.84,37.84,0,0,1,3.32,2.23,1.56,1.56,0,0,1,.56.79l.56,1.89-4.11-.7A2,2,0,0,0,972.46,3015.34Z" transform="translate(-959.63 -2953.9)" style="fill:#cc2034"/>
</svg>