<svg width="81" height="76" viewBox="0 0 81 76" fill="none" xmlns="http://www.w3.org/2000/svg">
<path d="M34.7579 75.9819C32.0842 75.9819 29.4467 75.6738 26.9271 75.0665C21.0629 73.6979 15.652 70.7704 11.2743 66.5921C4.40417 60.0936 0.62468 51.3019 0.62468 41.8487C0.62468 32.3954 4.35886 23.7125 11.1384 17.2231C15.5342 12.9813 20.9995 10.0085 26.9361 8.63083C32.1023 7.38006 37.8395 7.41631 43.0964 8.74865C44.5737 9.12932 46.042 9.60063 47.465 10.1716C48.1629 10.4526 48.4983 11.2411 48.2264 11.939C47.9454 12.6369 47.1569 12.9813 46.459 12.7004C45.1538 12.1747 43.7943 11.7396 42.4348 11.3861C37.6039 10.1716 32.3289 10.1354 27.5706 11.2774C22.0962 12.5553 17.075 15.2925 13.0236 19.1898C6.77882 25.1627 3.34374 33.2111 3.34374 41.8487C3.34374 50.4862 6.82414 58.6434 13.1505 64.6253C17.1838 68.4683 22.1596 71.1601 27.5615 72.42C32.347 73.5801 37.613 73.5348 42.4438 72.3203C47.6825 71.0061 52.4953 68.3504 56.3835 64.6344C62.3473 58.9787 65.8187 51.3654 66.154 43.181C66.1903 42.4287 66.7794 41.8396 67.5679 41.8759C68.3202 41.9031 68.9003 42.5375 68.8731 43.2898C68.5015 52.1902 64.731 60.4652 58.2597 66.6012C54.0361 70.6344 48.7974 73.5257 43.1055 74.9578C40.4045 75.6375 37.5948 75.991 34.767 75.991L34.7579 75.9819Z" fill="#293B6E"/>
<path d="M34.7579 28.7064C30.3893 28.7064 26.1385 27.8907 22.1234 26.2774C18.0267 24.655 14.3287 22.2713 11.1293 19.1897C10.5855 18.664 10.5764 17.812 11.093 17.2682C11.6187 16.7244 12.4798 16.7153 13.0145 17.232C15.9602 20.0688 19.359 22.2622 23.1294 23.7577C26.8273 25.235 30.7337 25.9873 34.7579 25.9873C38.7821 25.9873 42.7973 25.226 46.459 23.7214C47.1568 23.4314 47.9454 23.7668 48.2354 24.4647C48.5164 25.1625 48.1901 25.9511 47.4922 26.2411C43.4952 27.8816 39.2081 28.7154 34.7579 28.7154V28.7064Z" fill="#293B6E"/>
<path d="M34.7579 75.9819C32.0842 75.9819 29.4467 75.6737 26.927 75.0665C21.0629 73.6979 15.652 70.7703 11.2743 66.592C11.0024 66.3383 10.8574 65.9848 10.8574 65.6132C10.8574 65.2416 11.0115 64.8881 11.2743 64.6343C14.4647 61.5709 18.1626 59.2143 22.2593 57.6101C26.2201 56.0421 30.4256 55.2445 34.7579 55.2445C39.3622 55.2445 43.8396 56.1418 48.0632 57.9182C51.8699 59.5406 55.2959 61.7974 58.2597 64.6343C58.8035 65.1509 58.8216 66.012 58.305 66.5558C57.7884 67.0996 56.9273 67.1177 56.3835 66.6011C53.6645 63.9999 50.5104 61.9153 47.0028 60.4288C43.1236 58.7974 38.9997 57.9636 34.7579 57.9636C30.77 57.9636 26.8999 58.6977 23.2563 60.1388C19.93 61.4349 16.9028 63.2748 14.229 65.6132C18.0539 68.9304 22.6309 71.2779 27.5524 72.429C32.338 73.5891 37.6039 73.5438 42.4348 72.3293C43.1598 72.1389 43.903 72.583 44.0843 73.3172C44.2656 74.0423 43.8305 74.7855 43.0964 74.9668C40.3955 75.6465 37.5858 76 34.7489 76L34.7579 75.9819Z" fill="#293B6E"/>
<path d="M42.7701 74.9939C42.6613 74.9939 42.5526 74.9849 42.4438 74.9486C39.7429 74.2689 37.1054 73.2538 34.6039 71.9214C29.2473 69.0301 24.7518 64.7612 21.5886 59.5769C18.3439 54.2475 16.6309 48.1206 16.6309 41.8486C16.6309 35.5766 18.2986 29.5947 21.4617 24.3197C24.6521 19.0176 29.1929 14.6852 34.5948 11.7758C37.0963 10.4435 39.7338 9.41929 42.4348 8.74859C43.1598 8.56732 43.903 9.01143 44.0843 9.73652C44.2656 10.4616 43.8215 11.2048 43.0964 11.3861C40.613 12.0115 38.184 12.945 35.8818 14.1776C30.915 16.8514 26.7276 20.8393 23.7911 25.7246C20.8817 30.5826 19.3409 36.1567 19.3409 41.8577C19.3409 47.5586 20.9179 53.2687 23.9089 58.172C26.8183 62.9485 30.9603 66.8821 35.8818 69.5377C38.1749 70.7613 40.6039 71.7039 43.0873 72.3293C43.8124 72.5105 44.2565 73.2538 44.0752 73.9788C43.9212 74.5952 43.3683 75.0121 42.761 75.0121L42.7701 74.9939Z" fill="#293B6E"/>
<path d="M57.3171 66.9726C56.9545 66.9726 56.6011 66.8276 56.3292 66.5466C55.8125 66.0028 55.8397 65.1418 56.3835 64.6252C62.3383 58.9786 65.8096 51.3562 66.154 43.1718C66.1903 42.4195 66.7794 41.8304 67.5679 41.8666C68.3202 41.8938 68.9003 42.5283 68.8731 43.2806C68.5015 52.1809 64.7311 60.4559 58.2597 66.592C57.9968 66.8367 57.6615 66.9636 57.3261 66.9636L57.3171 66.9726Z" fill="#293B6E"/>
<path d="M12.2169 66.9727C11.8816 66.9727 11.5462 66.8459 11.2834 66.6011C4.41324 60.1026 0.62468 51.311 0.62468 41.8486C0.62468 32.3863 4.35886 23.7125 11.1384 17.223C11.6822 16.7064 12.5432 16.7245 13.0598 17.2683C13.5765 17.8121 13.5583 18.6732 13.0145 19.1898C6.77882 25.1536 3.34374 33.202 3.34374 41.8486C3.34374 50.4952 6.82414 58.6434 13.1505 64.6253C13.6943 65.1419 13.7215 66.0029 13.2049 66.5468C12.942 66.8277 12.5795 66.9727 12.2169 66.9727Z" fill="#293B6E"/>
<path d="M35.2474 14.3317C35.0298 14.3317 34.8123 14.2773 34.6039 14.1685C32.1658 12.8634 29.5917 11.8845 26.9452 11.2773C26.211 11.1051 25.7579 10.38 25.921 9.64583C26.0841 8.91168 26.8183 8.45851 27.5524 8.62165C30.4346 9.28329 33.2443 10.3437 35.8909 11.7667C36.5525 12.1202 36.7972 12.945 36.4438 13.6066C36.199 14.0598 35.7277 14.3226 35.2474 14.3226V14.3317Z" fill="#293B6E"/>
<path d="M27.2443 75.1027C26.628 75.1027 26.066 74.6767 25.921 74.0513C25.7488 73.3172 26.211 72.5921 26.9452 72.4199C29.5917 71.8126 32.1658 70.8428 34.6039 69.5286C39.4347 66.9183 43.5043 63.0935 46.3774 58.453C49.4953 53.4952 51.1358 47.7489 51.1358 41.8486C51.1358 40.1265 50.9907 38.3591 50.6917 36.6008C50.6826 36.5283 50.6735 36.4467 50.6735 36.3651C50.6735 36.0298 50.7913 35.6944 51.0451 35.4316C51.5617 34.8878 52.4228 34.8606 52.9666 35.3682C53.2204 35.6038 53.3654 35.9301 53.3926 36.2654C53.7007 38.1325 53.8548 40.0087 53.8548 41.8395C53.8548 48.2565 52.0693 54.4922 48.6795 59.885C45.5617 64.9153 41.1296 69.0754 35.8909 71.9123C33.2443 73.3353 30.4347 74.3957 27.5524 75.0574C27.4528 75.0846 27.344 75.0936 27.2443 75.0936V75.1027Z" fill="#293B6E"/>
<path d="M52.5043 43.2081H1.98421C1.23194 43.2081 0.62468 42.6009 0.62468 41.8486C0.62468 41.0963 1.23194 40.4891 1.98421 40.4891H52.5043C53.2566 40.4891 53.8639 41.0963 53.8639 41.8486C53.8639 42.6009 53.2566 43.2081 52.5043 43.2081Z" fill="#293B6E"/>
<path d="M62.4289 49.3532C62.1208 49.3532 61.8217 49.2535 61.5679 49.045C57.2808 45.5284 53.6826 41.5223 50.8911 37.1084C50.8639 37.063 50.8367 37.0268 50.8185 36.9815C48.4802 33.2564 46.749 29.3319 45.6614 25.3258C44.4922 21.1203 44.465 18.3287 44.465 18.2109C44.4559 15.5281 44.8638 13.0809 45.6886 10.9329C47.0934 7.2259 49.6947 4.31651 53.4198 2.27721C58.9667 -0.759071 65.864 -0.759071 71.4109 2.27721C75.5348 4.52497 80.4382 9.12018 80.3747 18.22C80.3747 18.7638 80.1391 31.6431 68.4924 44.1598C66.8972 45.8909 65.1389 47.5314 63.2809 49.0541C63.0271 49.2626 62.728 49.3623 62.4199 49.3623L62.4289 49.3532ZM53.2566 35.7579C55.7038 39.5827 58.7854 43.0994 62.438 46.2172C63.8791 44.9846 65.2477 43.6704 66.5166 42.3018C77.4109 30.5917 77.6738 18.3106 77.6738 18.1928C77.7191 11.9661 75.1813 7.41623 70.1239 4.66092C65.3746 2.06875 59.4833 2.06875 54.7431 4.66092C51.6071 6.38299 49.4137 8.82108 48.2445 11.9117C47.5375 13.7426 47.1841 15.8634 47.1931 18.2018C47.1931 18.22 47.2294 20.7759 48.2898 24.6098C49.314 28.3983 50.9636 32.1144 53.1932 35.6401C53.2204 35.6763 53.2385 35.7216 53.2566 35.7579ZM62.4289 26.9028C58.4954 26.9028 55.0059 24.2653 53.9455 20.4949C53.7189 19.7698 53.601 18.9451 53.601 18.084C53.601 17.3227 53.7007 16.5795 53.8911 15.8725C54.0905 15.1474 54.8337 14.7214 55.5588 14.9208C56.2839 15.1202 56.7098 15.8634 56.5104 16.5885C56.3836 17.0689 56.311 17.5674 56.311 18.084C56.311 18.6731 56.3926 19.217 56.5467 19.7245C57.2899 22.362 59.7008 24.1838 62.4199 24.1838C62.6283 24.1838 62.8187 24.1747 63.0181 24.1475C63.7522 24.0659 64.441 24.6007 64.5226 25.353C64.6042 26.1052 64.0694 26.7669 63.3172 26.8575C63.0271 26.8938 62.7371 26.9028 62.4199 26.9028H62.4289Z" fill="#CC2034"/>
<path d="M63.1721 26.8575C62.4833 26.8575 61.8851 26.3319 61.8217 25.634C61.7492 24.8908 62.293 24.2201 63.0452 24.1475C66.1722 23.8485 68.5287 21.2382 68.5287 18.084C68.5287 14.7124 65.7915 11.9752 62.4289 11.9752C59.6283 11.9752 57.1993 13.8604 56.5195 16.5614C56.3382 17.2865 55.595 17.7306 54.8699 17.5493C54.1449 17.368 53.7007 16.6248 53.882 15.8997C54.8609 11.9843 58.3775 9.25616 62.4289 9.25616C67.287 9.25616 71.2477 13.2169 71.2477 18.084C71.2477 22.643 67.8308 26.4134 63.3081 26.8575C63.2628 26.8575 63.2175 26.8575 63.1721 26.8575Z" fill="#CC2034"/>
</svg>
