<svg id="Layer_1" data-name="Layer 1" xmlns="http://www.w3.org/2000/svg" viewBox="0 0 113.5 110.67">
    <path d="M296.14,1199.26h-77.5v-58.5h77.5Zm-73-4.5h68.5v-49.5h-68.5Z" transform="translate(-200.64 -1088.59)" style="fill:#293b6e"/>
    <path d="M250.47,1175.43H227.64v-16.5h22.83Zm-18.33-4.5H246v-7.5H232.14Z" transform="translate(-200.64 -1088.59)" style="fill:#cc2034"/>
    <path d="M250.47,1187.34H227.64v-16.5h22.83Zm-18.33-4.5H246v-7.5H232.14Z" transform="translate(-200.64 -1088.59)" style="fill:#cc2034"/>
    <path d="M250.47,1199.26H227.64v-16.5h22.83Zm-18.33-4.5H246v-7.5H232.14Z" transform="translate(-200.64 -1088.59)" style="fill:#cc2034"/>
    <path d="M268.81,1187.34H246v-16.5h22.84Zm-18.34-4.5h13.84v-7.5H250.47Z" transform="translate(-200.64 -1088.59)" style="fill:#cc2034"/>
    <path d="M268.81,1199.26H246v-16.5h22.84Zm-18.34-4.5h13.84v-7.5H250.47Z" transform="translate(-200.64 -1088.59)" style="fill:#cc2034"/>
    <path d="M287.14,1199.26H264.31v-16.5h22.83Zm-18.33-4.5h13.83v-7.5H268.81Z" transform="translate(-200.64 -1088.59)" style="fill:#cc2034"/>
    <rect x="18.08" y="39.46" width="14.83" height="4.5" style="fill:#cc2034"/>
    <rect x="38.92" y="39.46" width="14.83" height="4.5" style="fill:#cc2034"/>
    <rect x="59.75" y="39.46" width="14.83" height="4.5" style="fill:#cc2034"/>
    <rect x="80.58" y="39.46" width="14.83" height="4.5" style="fill:#cc2034"/>
    <path d="M306.39,1199.26h-97.5a2.25,2.25,0,0,1-2.25-2.25v-64.42h-3.75a2.25,2.25,0,0,1-2.25-2.25v-15a2.27,2.27,0,0,1,1.32-2l54.17-24.5a2.27,2.27,0,0,1,1.84,0l54.84,24.5a2.24,2.24,0,0,1,1.33,2v15a2.25,2.25,0,0,1-2.25,2.25h-3.25V1197A2.25,2.25,0,0,1,306.39,1199.26Zm-95.25-4.5h93v-64.42a2.25,2.25,0,0,1,2.25-2.25h3.25V1116.8l-52.58-23.49-51.92,23.48v11.3h3.75a2.25,2.25,0,0,1,2.25,2.25Z" transform="translate(-200.64 -1088.59)" style="fill:#293b6e"/>
</svg>