<svg id="Layer_1" data-name="Layer 1" xmlns="http://www.w3.org/2000/svg" viewBox="0 0 112.75 107.33">
    <path d="M688.39,1185.68a2.25,2.25,0,0,1-1.62-.67l-9.15-9.15a2.29,2.29,0,1,1,3.24-3.24l7.53,7.53,11.79-11.79a2.29,2.29,0,0,1,3.24,3.24L690,1185A2.29,2.29,0,0,1,688.39,1185.68Z" transform="translate(-602.5 -1092.85)" style="fill:#cc2034"/>
    <path d="M669.68,1140.93l-5-3.93-4.32,2.22h-2.06L654,1137l-4.85,3.89-3.66-1.75,0-21.05,4-23.39,2.22-1.87h15.37l2.22,1.87,4,23.77v20.67Zm-14.92-8.58,4.53,2.34,4.58-2.35,2.41.23,2.53,2v-15.87l-3.63-21.33H653.61L650,1118.68v15.79l2.34-1.88Z" transform="translate(-602.5 -1092.85)" style="fill:#293b6e"/>
    <path d="M638.62,1182.3H614.37a2.25,2.25,0,0,1,0-4.5h24.25a2.25,2.25,0,1,1,0,4.5Z" transform="translate(-602.5 -1092.85)" style="fill:#cc2034"/>
    <path d="M626,1191.68H614.37a2.25,2.25,0,0,1,0-4.5H626a2.25,2.25,0,0,1,0,4.5Z" transform="translate(-602.5 -1092.85)" style="fill:#cc2034"/>
    <rect x="2.42" y="23.67" width="107.33" height="4.5" style="fill:#293b6e"/>
    <path d="M689.5,1200.18h-87v-82.93l24.31-24.4h64.12l24.32,24.4v57.18h-4.5a21.25,21.25,0,1,0-21.25,21.25Zm-82.5-4.5h68a25.74,25.74,0,1,1,35.78-35.78v-40.79l-21.69-21.76H628.68L607,1119.11Z" transform="translate(-602.5 -1092.85)" style="fill:#293b6e"/>
    <path d="M689.5,1200.18a25.75,25.75,0,1,1,25.75-25.75A25.78,25.78,0,0,1,689.5,1200.18Zm0-47a21.25,21.25,0,1,0,21.25,21.25A21.27,21.27,0,0,0,689.5,1153.18Z" transform="translate(-602.5 -1092.85)" style="fill:#293b6e"/>
</svg>