<svg width="93" height="94" viewBox="0 0 93 94" fill="none" xmlns="http://www.w3.org/2000/svg">
<path d="M85.1438 26.7065L82.3332 27.874L84.6277 33.3548H74.6034V36.387H85.8959L89.7022 45.4838L85.8959 54.5806H62.673C58.5987 50.8297 53.1725 48.5161 47.1981 48.5161C41.2237 48.5161 35.7975 50.8297 31.7232 54.5806H6.09009V57.6128H28.9705C26.0899 61.4183 24.3603 66.135 24.3603 71.258C24.3603 83.7979 34.6053 93.9999 47.1981 93.9999C59.7908 93.9999 70.0359 83.7979 70.0359 71.258C70.0359 66.135 68.3063 61.4183 65.4257 57.6128H84.6277L82.3348 63.0936L85.1453 64.2611L93 45.4838L85.1438 26.7065ZM47.1981 90.9677C36.2847 90.9677 27.4053 82.1256 27.4053 71.258C27.4053 60.3904 36.2847 51.5483 47.1981 51.5483C58.1115 51.5483 66.9908 60.3904 66.9908 71.258C66.9908 82.1256 58.1115 90.9677 47.1981 90.9677Z" fill="#293B6E"/>
<path d="M12.1953 47.8944L39.0251 33.423L42.399 36.7827L36.1415 37.562C33.7648 37.8577 31.9728 39.8787 31.9728 42.262C31.9728 44.8743 34.1074 46.9999 36.7307 46.9999C37.6701 46.9999 38.6202 46.9469 39.555 46.8438L52.9851 45.358L54.9339 37.5908L48.5089 28.6351L56.7549 27.4616L59.7527 37.9031H68.5133C71.0315 37.9031 73.0808 35.8624 73.0808 33.3548C73.0808 30.8471 71.0315 28.8064 68.5133 28.8064H66.7152L65.3617 22.0672L59.3949 14.9383C57.9029 13.1523 55.7089 12.129 53.3764 12.129C53.0125 12.129 52.6502 12.1608 52.2909 12.2108L45.8902 9.02393L32.8422 11.6226C30.5736 12.0744 28.9278 14.0742 28.9278 16.3772C28.9278 19.0501 31.1126 21.2257 33.7968 21.2257H34.6342L34.2033 21.4592L6.97461 38.5854C5.46731 39.533 4.5675 41.1598 4.5675 42.9352V43.3703C4.5675 46.2085 6.88478 48.5161 9.73493 48.5161C10.5921 48.5161 11.4447 48.3008 12.1953 47.8944ZM50.5445 42.5774L39.22 43.8312C38.3963 43.9222 37.559 43.9677 36.7307 43.9677C35.7867 43.9677 35.0179 43.2035 35.0179 42.262C35.0179 41.4039 35.6634 40.6777 36.5176 40.57L48.952 39.0221L41.8159 31.916L45.642 29.8525L51.6392 38.214L50.5445 42.5774ZM35.0453 18.1707C34.9494 18.1859 34.855 18.1935 34.759 18.1935H33.7968C32.7904 18.1935 31.9728 17.3778 31.9728 16.3772C31.9728 15.5145 32.5895 14.7655 33.439 14.5957L45.4608 12.2017L48.4785 13.7042L42.3321 17.0442L35.0453 18.1707ZM7.61254 43.3703V42.9352C7.61254 42.2059 7.98251 41.5373 8.60066 41.1492L35.7456 24.073L51.0789 15.7434C51.7839 15.3629 52.5771 15.1612 53.3764 15.1612C54.8045 15.1612 56.1443 15.7874 57.0563 16.8775L62.5298 23.4165L64.2213 31.8386H68.5133C69.3537 31.8386 70.0358 32.5194 70.0358 33.3548C70.0358 34.1901 69.3537 34.8709 68.5133 34.8709H62.0487L58.9549 24.0867L46.7139 25.8272L10.7428 45.2291C10.4353 45.3959 10.0866 45.4838 9.73493 45.4838C8.56412 45.4838 7.61254 44.5362 7.61254 43.3703Z" fill="#293B6E"/>
<path d="M66.9908 18.1935C72.0288 18.1935 76.1259 14.1136 76.1259 9.09677C76.1259 4.0799 72.0288 0 66.9908 0C61.9528 0 57.8557 4.0799 57.8557 9.09677C57.8557 14.1136 61.9528 18.1935 66.9908 18.1935ZM66.9908 3.03226C70.3495 3.03226 73.0809 5.75219 73.0809 9.09677C73.0809 12.4414 70.3495 15.1613 66.9908 15.1613C63.6321 15.1613 60.9007 12.4414 60.9007 9.09677C60.9007 5.75219 63.6321 3.03226 66.9908 3.03226Z" fill="#293B6E"/>
<path d="M3.04504 54.5806H0V57.6128H3.04504V54.5806Z" fill="#293B6E"/>
<path d="M3.04504 22.7417H0V25.774H3.04504V22.7417Z" fill="#CC2034"/>
<path d="M21.3153 22.7417H6.09009V25.774H21.3153V22.7417Z" fill="#CC2034"/>
<path d="M6.09008 16.6772H3.04504V19.7095H6.09008V16.6772Z" fill="#CC2034"/>
<path d="M25.8828 16.6772H9.13513V19.7095H25.8828V16.6772Z" fill="#CC2034"/>
<path d="M9.13512 10.6128H6.09009V13.6451H9.13512V10.6128Z" fill="#CC2034"/>
<path d="M27.4054 10.6128H12.1802V13.6451H27.4054V10.6128Z" fill="#CC2034"/>
<path d="M47.1981 54.5806C37.9641 54.5806 30.4504 62.0627 30.4504 71.258V72.7741H31.973H33.4955H35.018V69.7419H33.5853C33.7406 68.3531 34.1075 67.0265 34.6495 65.7939L35.8889 66.5064L37.4114 63.8805L36.1842 63.1755C37.0003 62.0748 37.9762 61.1045 39.0816 60.2903L39.7896 61.5123L42.4266 59.9962L41.711 58.7636C42.9488 58.2223 44.2795 57.8569 45.6741 57.7038V59.129H48.7191V57.7023C50.1138 57.8569 51.446 58.2223 52.6823 58.762L51.9667 59.9947L54.6037 61.5108L55.3116 60.2888C56.417 61.1014 57.3914 62.0733 58.209 63.174L56.9818 63.879L58.5044 66.5049L59.7437 65.7923C60.2872 67.025 60.6542 68.3501 60.8079 69.7403H59.3783V72.7726H60.9008H62.4233H63.9458V71.2565C63.9458 62.0627 56.4322 54.5806 47.1981 54.5806Z" fill="#CC2034"/>
<path d="M53.5669 67.344L45.9551 77.9561L48.4316 79.7175L56.0434 69.1055L53.5669 67.344Z" fill="#293B6E"/>
<path d="M48.7206 83.3872H45.6755V86.4195H48.7206V83.3872Z" fill="#CC2034"/>
<path d="M54.8107 83H51.7656V86.0323H54.8107V83Z" fill="#CC2034"/>
<path d="M42.6305 83.3872H39.5854V86.4195H42.6305V83.3872Z" fill="#CC2034"/>
</svg>
