<svg width="87" height="76" viewBox="0 0 87 76" fill="none" xmlns="http://www.w3.org/2000/svg">
<path d="M85.3793 7.74977L57.7569 0.0597587C57.4668 -0.0199196 57.1571 -0.0199196 56.8669 0.0597587L29.6895 7.62462L2.51213 0.0597587C2.28459 -0.00263701 2.04416 -0.016273 1.80981 0.0199256C1.57546 0.0561242 1.35359 0.141168 1.1617 0.268349C0.96829 0.396414 0.810646 0.563733 0.701392 0.756911C0.592137 0.95009 0.534306 1.16376 0.532528 1.38083V66.8502C0.517978 67.1587 0.617161 67.4628 0.814438 67.7146C1.01171 67.9664 1.29586 68.1515 1.62208 68.2408L29.2445 75.9308C29.5324 76.0231 29.8466 76.0231 30.1345 75.9308L57.3119 68.3103L84.4893 75.8752C84.6326 75.9196 84.7828 75.9431 84.9343 75.9447C85.2611 75.9417 85.5783 75.8443 85.8397 75.6666C86.0331 75.5385 86.1908 75.3712 86.3 75.178C86.4093 74.9849 86.4671 74.7712 86.4689 74.5541V9.08474C86.4699 8.78563 86.3644 8.49421 86.1681 8.25372C85.9719 8.01324 85.6952 7.83651 85.3793 7.74977ZM83.3997 72.7324L58.8465 65.7794V19.6811H55.7773V65.7794L31.2241 72.7324V51.4424H28.1549V72.7324L3.60168 65.7794V3.20251L28.1549 10.1555V43.5299H31.2241V10.1555L55.7773 3.27204V11.3236H58.8465V3.27204L83.3997 10.1555V72.7324Z" fill="#293B6E"/>
<path d="M15.8784 31.654C16.1602 31.6546 16.4367 31.5848 16.6776 31.4523C16.9185 31.3199 17.1146 31.1299 17.2442 30.9031C18.2877 29.0675 21.6638 22.9211 21.6638 20.6405C21.6638 19.2501 21.0542 17.9166 19.9693 16.9335C18.8843 15.9503 17.4128 15.3979 15.8784 15.3979C14.344 15.3979 12.8725 15.9503 11.7875 16.9335C10.7026 17.9166 10.093 19.2501 10.093 20.6405C10.093 22.9211 13.4691 29.0675 14.5126 30.9031C14.6423 31.1299 14.8383 31.3199 15.0792 31.4523C15.3201 31.5848 15.5966 31.6546 15.8784 31.654ZM15.8784 18.1791C16.2351 18.1791 16.5883 18.2428 16.9179 18.3665C17.2474 18.4902 17.5468 18.6715 17.7991 18.9001C18.0513 19.1286 18.2514 19.4 18.3879 19.6986C18.5244 19.9972 18.5946 20.3173 18.5946 20.6405C17.9929 22.8909 17.0803 25.0634 15.8784 27.1068C14.6766 25.0634 13.764 22.8909 13.1622 20.6405C13.1622 19.9877 13.4484 19.3617 13.9578 18.9001C14.4671 18.4385 15.158 18.1791 15.8784 18.1791Z" fill="#CC2034"/>
<path d="M33.7103 44.1696L35.3523 46.5197C36.816 45.6769 38.0915 44.5919 39.112 43.3213L36.626 41.6943C35.8334 42.6774 34.8444 43.517 33.7103 44.1696Z" fill="#293B6E"/>
<path d="M57.0821 16.3156C58.4612 16.4423 59.8114 16.7564 61.0873 17.2473L62.2843 14.6886C60.7249 14.0881 59.0747 13.7037 57.389 13.5483L57.0821 16.3156Z" fill="#293B6E"/>
<path d="M17.4131 36.0346V34.5327H14.3439V36.0346C14.3449 37.0374 14.4788 38.0365 14.7429 39.0104L17.72 38.343C17.5163 37.5874 17.4133 36.8124 17.4131 36.0346Z" fill="#293B6E"/>
<path d="M38.6514 28.873V30.4443H41.7205V28.873C41.7178 28.0888 41.8001 27.3063 41.966 26.5367L38.8969 26.0361C38.7158 26.9725 38.6336 27.9224 38.6514 28.873Z" fill="#293B6E"/>
<path d="M19.3924 41.6387L16.891 43.2518C17.9023 44.5276 19.1668 45.6216 20.62 46.478L22.2927 44.1417C21.1613 43.4795 20.1774 42.6304 19.3924 41.6387Z" fill="#293B6E"/>
<path d="M25.9913 45.4907L25.4081 48.2719C26.2728 48.423 27.1517 48.4975 28.0323 48.4944C28.8815 48.4946 29.729 48.4248 30.5643 48.2858L29.9965 45.5046C28.6718 45.7224 27.3141 45.7177 25.9913 45.4907Z" fill="#293B6E"/>
<path d="M38.6515 36.0346C38.6525 36.8363 38.5443 37.635 38.3292 38.4126L41.3063 39.094C41.583 38.0936 41.7221 37.066 41.7206 36.0346V34.644H38.6515V36.0346Z" fill="#293B6E"/>
<path d="M72.6579 33.3228H69.5887V37.4945H72.6579V33.3228Z" fill="#293B6E"/>
<path d="M69.5886 28.873V29.1511H72.6578V28.873C72.6534 27.4623 72.4365 26.0587 72.0132 24.7012L69.0515 25.4521C69.4017 26.5649 69.5824 27.7158 69.5886 28.873Z" fill="#293B6E"/>
<path d="M67.3482 22.0033L69.9109 20.4876C68.9725 19.2144 67.8294 18.0754 66.5195 17.1084L64.6013 19.1943C65.6632 20.0042 66.5887 20.9505 67.3482 22.0033Z" fill="#293B6E"/>
<path d="M72.6579 41.6665H69.5887V45.8383H72.6579V41.6665Z" fill="#293B6E"/>
<path d="M40.6006 21.7115L43.3168 23.0047C43.9572 21.8929 44.7798 20.8754 45.7568 19.9871L43.5777 18.0264C42.3901 19.1148 41.3868 20.3567 40.6006 21.7115Z" fill="#293B6E"/>
<path d="M47.6133 15.3008L49.1479 17.7483C50.366 17.155 51.6744 16.7285 53.0304 16.4829L52.4473 13.7017C50.7552 14.0077 49.125 14.547 47.6133 15.3008Z" fill="#293B6E"/>
<path d="M65.3378 53.9037C65.3378 54.9406 65.6772 55.9542 66.3129 56.8163C66.9486 57.6784 67.8521 58.3504 68.9092 58.7472C69.9664 59.144 71.1296 59.2478 72.2519 59.0455C73.3741 58.8432 74.405 58.3439 75.2141 57.6107C76.0232 56.8776 76.5742 55.9434 76.7974 54.9265C77.0206 53.9095 76.9061 52.8554 76.4682 51.8975C76.0303 50.9395 75.2888 50.1207 74.3374 49.5447C73.386 48.9686 72.2674 48.6611 71.1232 48.6611C69.5888 48.6611 68.1173 49.2135 67.0323 50.1966C65.9474 51.1798 65.3378 52.5133 65.3378 53.9037ZM73.8394 53.9037C73.8394 54.3905 73.6801 54.8664 73.3816 55.2711C73.0832 55.6759 72.659 55.9914 72.1627 56.1777C71.6663 56.364 71.1202 56.4127 70.5933 56.3178C70.0664 56.2228 69.5824 55.9884 69.2026 55.6441C68.8227 55.2999 68.564 54.8613 68.4592 54.3839C68.3544 53.9064 68.4082 53.4115 68.6138 52.9618C68.8193 52.512 69.1675 52.1276 69.6142 51.8571C70.0608 51.5867 70.586 51.4423 71.1232 51.4423C71.4799 51.4423 71.8331 51.506 72.1627 51.6297C72.4922 51.7534 72.7916 51.9347 73.0439 52.1632C73.2961 52.3918 73.4961 52.6631 73.6326 52.9618C73.7691 53.2604 73.8394 53.5805 73.8394 53.9037Z" fill="#CC2034"/>
</svg>
