<svg width="96" height="83" viewBox="0 0 96 83" fill="none" xmlns="http://www.w3.org/2000/svg">
<path d="M81.3372 25.1493L67.2381 37.345L60.7903 31.1251C60.2745 30.6271 59.4721 30.6564 58.985 31.1739C58.4978 31.7012 58.5264 32.5214 59.0327 33.0194L65.8244 39.5712C66.216 39.952 66.7127 40.1376 67.219 40.1376C67.687 40.1376 68.1455 39.9716 68.5276 39.6493L82.9802 27.1413C83.5151 26.6726 83.582 25.8524 83.133 25.3056C82.6745 24.749 81.8721 24.6807 81.3372 25.1493Z" fill="#CC2034"/>
<path d="M12.1502 69.9575H6.8392C6.13234 69.9575 5.5592 70.5434 5.5592 71.2659C5.5592 71.9885 6.13234 72.5743 6.8392 72.5743H12.1598C12.8667 72.5743 13.4398 71.9885 13.4398 71.2659C13.4302 70.5336 12.8571 69.9575 12.1502 69.9575Z" fill="#CC2034"/>
<path d="M95.5224 38.5754L94.72 17.3771C94.7009 16.2054 93.7361 15.2583 92.5516 15.2583C92.437 15.2583 92.3224 15.2583 92.2173 15.2583C80.0669 15.2583 71.68 4.74212 69.3779 1.4906C68.9767 0.934037 68.3367 0.602051 67.6585 0.602051C66.9803 0.602051 66.3403 0.934037 65.9391 1.50037C63.6179 4.78118 55.0878 15.4731 42.7463 15.2583C41.5904 15.2583 40.6257 16.2054 40.597 17.3576L40.3773 23.0893C38.9063 22.8354 37.4161 22.9526 36.203 23.2748C34.6078 23.7044 33.5475 25.1691 33.6239 26.8485C33.7385 29.4556 33.6525 34.4354 31.7039 38.4095C29.3922 43.1354 23.0018 48.6913 21.1009 50.2829C20.9003 50.4488 20.6615 50.5367 20.4036 50.5367H18.9898V49.2576C18.9898 47.7832 17.8149 46.5822 16.3725 46.5822H6.29493C2.82746 46.5822 0 49.4724 0 53.0169V71.4226C0 74.967 2.82746 77.8573 6.29493 77.8573H16.3725C17.8149 77.8573 18.9898 76.6563 18.9898 75.1818V72.9263C19.5152 72.9458 19.9546 73.3364 20.0406 73.8734C20.394 76.1876 21.8555 80.2886 27.7015 81.7825C29.354 82.2024 31.4078 82.3781 33.643 82.3781C41.7433 82.3781 52.1075 80.1519 53.4925 79.8492H58.1254C60.886 79.8492 63.1307 77.5546 63.1307 74.7327V74.4495C63.1307 73.3266 62.7773 72.3014 62.1755 71.4519C62.5863 71.2566 62.9684 71.0027 63.3122 70.7098C64.4681 71.198 65.7003 71.6569 66.9994 72.0768C67.0185 72.0866 67.0281 72.0866 67.0472 72.0866C67.2478 72.1451 67.4484 72.1744 67.6585 72.1744C67.8687 72.1744 68.0693 72.1451 68.2699 72.0866C68.289 72.0866 68.2985 72.0768 68.3176 72.0768C82.3403 67.4973 88.9982 58.6704 92.1027 52.0795C95.4842 44.9125 95.5224 38.8879 95.5224 38.634C95.5224 38.6145 95.5224 38.595 95.5224 38.5754ZM16.4394 75.1818C16.4394 75.2209 16.4107 75.2502 16.3725 75.2502H6.29493C4.23164 75.2502 2.55045 73.5317 2.55045 71.4226V53.0169C2.55045 50.9078 4.23164 49.1893 6.29493 49.1893H16.3725C16.4107 49.1893 16.4394 49.2185 16.4394 49.2576V75.1818ZM28.3224 79.2438C24.129 78.1697 22.8776 75.5138 22.5624 73.4731C22.2854 71.6569 20.7857 70.329 18.9898 70.3192V53.1536H20.4036C21.2442 53.1536 22.0657 52.8509 22.7152 52.3138C25.2848 50.1657 31.5128 44.6293 33.9869 39.5812C36.1934 35.0701 36.3081 29.5923 36.1743 26.7313C36.1552 26.3017 36.4322 25.9209 36.843 25.8037C38.2854 25.4229 41.1319 25.2667 42.6603 27.1414C43.9594 28.7233 45.3445 33.1465 40.043 45.0004C39.7278 45.7034 39.7851 46.5138 40.1958 47.168C40.6066 47.8222 41.3039 48.2128 42.0681 48.2128H45.7552C45.3445 48.9549 45.1057 49.8044 45.1057 50.7222V51.0054C45.1057 52.0111 45.3922 52.9387 45.8794 53.7297C43.8161 56.2293 39.0209 58.1529 32.4681 59.0805C31.7707 59.1781 31.2836 59.8421 31.3791 60.5549C31.4651 61.2091 32.0191 61.6778 32.64 61.6778C32.6973 61.6778 32.7546 61.6778 32.8119 61.668C36.4704 61.1505 40.7976 60.1839 44.1504 58.3384C44.1409 58.4361 44.1313 58.5337 44.1313 58.6313V58.9145C44.1313 60.6818 45.0101 62.2441 46.3475 63.162C45.5737 64.0603 45.0961 65.2418 45.0961 66.5404V66.8236C45.0961 68.5909 45.9749 70.1532 47.3122 71.0711C46.5385 71.9694 46.0609 73.1509 46.0609 74.4495V74.7327C46.0609 76.1387 46.6149 77.4081 47.5224 78.3357C41.791 79.3121 33.0316 80.4448 28.3224 79.2438ZM62.5099 50.9957C62.5099 52.3822 61.4113 53.5051 60.0549 53.5051H50.111C49.5284 53.5051 49.003 53.3 48.5827 52.9583C48.4872 52.7923 48.3534 52.6556 48.1815 52.5482C47.8567 52.1185 47.6561 51.5913 47.6561 51.0054V50.7222C47.6561 49.3455 48.7546 48.2128 50.111 48.2128H60.0549C61.4018 48.2128 62.5099 49.3357 62.5099 50.7222V50.9957ZM62.5099 58.6216V58.9047C62.5099 60.2815 61.4113 61.4142 60.0549 61.4142H50.111H49.1463C47.7899 61.4142 46.6913 60.2913 46.6913 58.9047V58.6216C46.6913 57.2448 47.7899 56.1121 49.1463 56.1121H50.111H60.0549C61.4113 56.1121 62.5099 57.235 62.5099 58.6216ZM62.5099 66.5307V66.8138C62.5099 67.2825 62.3761 67.7317 62.1564 68.1027C61.994 68.2297 61.8603 68.3957 61.7743 68.5909C61.3349 69.0401 60.7236 69.3135 60.0549 69.3135H58.1254H51.0758H50.111C48.7642 69.3135 47.6561 68.1906 47.6561 66.8041V66.5209C47.6561 65.1441 48.7546 64.0115 50.111 64.0115H60.0549C61.4113 64.0212 62.5099 65.1441 62.5099 66.5307ZM60.5803 74.7229C60.5803 76.0997 59.4818 77.2324 58.1254 77.2324H53.3493C53.3397 77.2324 53.3397 77.2324 53.3302 77.2324H51.0758C49.729 77.2324 48.6209 76.1095 48.6209 74.7229V74.4398C48.6209 73.063 49.7194 71.9303 51.0758 71.9303H58.1254C59.4722 71.9303 60.5803 73.0532 60.5803 74.4398V74.7229ZM89.7528 51.0542C85.5499 59.8909 78.1182 66.1108 67.6585 69.5381C66.6555 69.2061 65.7003 68.8546 64.7833 68.4835C64.9648 67.9563 65.0603 67.3997 65.0603 66.8041V66.5209C65.0603 65.0074 64.4107 63.6502 63.3791 62.7128C64.4012 61.7754 65.0603 60.4182 65.0603 58.9047V58.6216C65.0603 57.1081 64.4107 55.7509 63.3791 54.8135C64.4012 53.8761 65.0603 52.5189 65.0603 51.0054V50.7222C65.0603 47.9004 62.8155 45.6058 60.0549 45.6058H52.8048C52.8048 45.6058 52.8048 45.6058 52.7952 45.6058H42.5743C46.8728 35.8317 47.5606 29.0552 44.6185 25.4717C44.1122 24.8566 43.52 24.3781 42.8896 24.0071L43.1188 17.8946C55.8997 17.8751 64.7546 7.47612 67.649 3.53134C70.5528 7.48589 79.4078 17.8849 92.1791 17.8946L92.9624 38.6633C92.9624 39.0344 92.8191 44.6098 89.7528 51.0542Z" fill="#293B6E"/>
</svg>
