<svg width="64" height="80" viewBox="0 0 64 80" fill="none" xmlns="http://www.w3.org/2000/svg">
<path d="M49.1101 18.5443C48.6651 17.8935 47.7763 17.724 47.1247 18.169C46.4732 18.6134 46.305 19.5028 46.7494 20.1544C47.3371 21.016 47.8347 21.9235 48.2595 22.8599L37.3261 22.9086L33.9958 12.501C36.8849 12.8245 39.6432 13.8363 42.0636 15.4979C42.7138 15.9464 43.6032 15.779 44.0497 15.1289C44.4969 14.4787 44.3315 13.5892 43.6807 13.1428C40.2303 10.773 36.1911 9.52008 31.9999 9.52008C22.8348 9.52008 15.0527 15.509 12.3298 23.7743C9.40146 32.027 12.7985 41.9851 19.6684 46.843C35.7345 58.7405 57.781 43.1007 51.7025 23.8378C51.092 21.9756 50.2357 20.1905 49.1101 18.5443ZM34.9236 24.7775C35.1133 25.3718 35.6044 25.7744 36.2909 25.7709L45.8851 25.7283L38.0984 31.3329C37.5919 31.697 37.3805 32.3479 37.5759 32.9402L40.5812 42.0509L32.8447 36.3773C32.3421 36.0079 31.6576 36.0079 31.1551 36.3773L23.4186 42.0509L26.4239 32.9402C26.6192 32.3479 26.4078 31.697 25.9014 31.3329L18.1147 25.7283L27.7089 25.7709C28.3318 25.7737 28.8859 25.3717 29.0762 24.7775L31.9999 15.6402L34.9236 24.7775ZM30.0056 12.496L26.6736 22.9086L15.7549 22.86C18.3063 17.2643 23.6514 13.2061 30.0056 12.496ZM14.5035 26.649C14.5034 26.6491 23.3823 33.04 23.3823 33.04L19.9666 43.3938C15.5127 39.4484 13.1678 32.755 14.5035 26.649ZM31.9999 48.0951C28.7986 48.0951 25.7989 47.2373 23.1979 45.7562L31.9999 39.301L40.8019 45.7562C38.2008 47.2373 35.2011 48.0951 31.9999 48.0951ZM44.0332 43.3938L40.6175 33.0399L49.4887 26.6546C50.8372 32.7701 48.4846 39.4424 44.0332 43.3938Z" fill="#CC2034"/>
<path d="M57.4319 48.7173C60.0105 44.9123 58.2712 39.9746 61.2007 36.2915C65.6059 29.5499 62.5718 27.2916 59.7044 21.2378C58.3965 14.7701 59.6498 11.0485 52.1424 8.2331C47.5477 6.96006 46.1127 1.91391 41.71 0.32946C38.5389 -0.721137 35.1179 1.07276 31.9999 1.11872C25.3805 0.38458 22.2915 -2.03211 17.2623 4.30147C14.6547 8.26511 9.40713 8.09096 6.57048 11.7648C3.98619 15.5613 5.7282 20.4989 2.79912 24.1787C-1.61047 30.9254 1.43642 33.1895 4.2954 39.2325C5.20098 42.2282 4.56415 46.0073 6.57284 48.7229C8.34354 51.16 11.4274 51.8787 13.9241 53.2084L5.02407 69.8213C4.4332 70.8481 5.44935 72.1997 6.60981 71.8876C6.60973 71.8877 18.2675 69.1503 18.2675 69.1503L24.5704 79.3354C25.1688 80.3638 26.8422 80.1541 27.1522 78.9976C27.1522 78.9977 29.6385 70.7966 29.6385 70.7966C30.1505 68.9763 27.4772 68.1898 26.9039 69.9679L25.3356 75.1413L20.1559 66.7728C19.8343 66.251 19.2148 65.9971 18.6149 66.1338L9.03671 68.3829L16.203 55.0061C16.5486 55.3712 16.894 55.7528 17.2518 56.1594C21.6137 61.7011 24.7897 60.6889 30.9347 59.4509C30.9346 59.4513 36.8476 78.9977 36.8476 78.9977C37.1539 80.1405 38.8338 80.3776 39.4294 79.3353C39.4294 79.3353 45.7323 69.1502 45.7323 69.1502L57.3901 71.8877C58.5359 72.1891 59.5789 70.8603 58.9757 69.8213C58.9757 69.8213 50.0734 53.2184 50.0734 53.2184C52.5719 51.8755 55.6523 51.1651 57.4319 48.7173ZM54.9617 68.3829L45.3849 66.1338C44.7871 65.997 44.1669 66.251 43.8432 66.7728L38.6663 75.1399L33.9597 59.5779C41.0366 61.4152 43.165 60.5544 47.8046 55.0342C47.8047 55.0346 54.9617 68.3829 54.9617 68.3829ZM47.424 51.5021C45.0699 53.1556 43.4063 56.5058 40.8296 57.4221C38.2673 58.159 34.841 56.4175 31.9999 56.5097C29.1823 56.4178 25.7247 58.1549 23.1675 57.4221C20.6105 56.5213 18.8937 53.1037 16.5625 51.4784C14.3148 49.7669 10.5291 49.166 8.88384 47.0431C8.04959 45.8906 7.88146 44.1842 7.70357 42.3774C7.58472 39.6913 6.77174 37.0775 5.25689 34.8335C1.23988 29.1233 4.99755 27.3617 7.01461 22.1167C7.959 19.4529 7.37729 15.6586 8.88175 13.4454C10.5373 11.2974 14.308 10.7133 16.5716 8.98486C20.83 5.59422 21.3751 1.34368 27.8708 3.37783C30.5496 4.12907 33.4503 4.12584 36.1291 3.37738C37.8752 2.99178 39.5264 2.62763 40.8268 3.0476C42.231 3.50871 43.3758 4.81046 44.5883 6.18823C46.2471 8.31305 48.4761 9.92122 51.005 10.8537C52.6805 11.5814 54.2634 12.2686 55.1187 13.4462C56.6228 15.664 56.0373 19.4527 56.9869 22.1209C57.8095 24.8334 60.521 27.5 60.5741 30.2355C60.519 32.9749 57.8073 35.6342 56.9855 38.3536C56.0412 41.0182 56.6203 44.8214 55.1208 47.0374C53.4558 49.1759 49.6827 49.7634 47.424 51.5021Z" fill="#293B6E"/>
</svg>
