<?xml version="1.0" standalone="no"?>
<!DOCTYPE svg PUBLIC "-//W3C//DTD SVG 20010904//EN"
 "http://www.w3.org/TR/2001/REC-SVG-20010904/DTD/svg10.dtd">
<svg version="1.0" xmlns="http://www.w3.org/2000/svg"
 width="380.000000pt" height="357.000000pt" viewBox="0 0 380.000000 357.000000"
 preserveAspectRatio="xMidYMid meet">

<g transform="translate(0.000000,357.000000) scale(0.100000,-0.100000)"
fill="#000000" stroke="none">
<path d="M1650 3544 c-650 -91 -1188 -519 -1426 -1134 -66 -171 -102 -351
-111 -555 -27 -635 292 -1236 842 -1582 83 -53 274 -140 388 -178 338 -113
752 -111 1100 5 101 34 293 123 372 173 429 270 724 701 817 1194 18 96 22
154 22 318 1 305 -44 508 -169 771 -245 511 -728 880 -1280 975 -159 27 -413
34 -555 13z m415 -74 c268 -31 519 -121 745 -267 529 -343 831 -977 760 -1598
-32 -275 -137 -561 -283 -766 -46 -65 -52 -71 -55 -49 -6 50 -24 97 -79 212
-31 64 -60 115 -65 112 -4 -3 -8 0 -8 7 0 7 -3 10 -6 6 -3 -3 15 -44 40 -90
45 -83 56 -117 36 -117 -12 0 -3 -23 32 -83 45 -76 45 -87 -1 -138 -31 -34
-40 -40 -41 -25 0 31 -57 140 -85 164 -14 12 -25 18 -25 13 0 -5 21 -57 46
-115 53 -125 60 -104 -70 -218 -43 -39 -81 -66 -85 -61 -4 4 -16 30 -25 56
-25 68 -30 52 -6 -18 11 -32 17 -61 12 -64 -202 -143 -388 -232 -599 -286 -54
-14 -104 -25 -110 -25 -9 0 -13 16 -13 47 0 57 -9 52 -13 -8 l-3 -44 -50 -8
c-63 -11 -378 -14 -425 -4 -36 7 -36 8 -33 50 4 43 29 182 41 226 4 17 3 22
-5 17 -7 -4 -10 -2 -6 7 3 8 -1 19 -8 25 -10 8 -14 -6 -16 -71 -5 -106 -12
-113 -12 -12 0 43 -2 76 -5 73 -3 -2 -10 -40 -15 -84 -8 -60 -42 -195 -54
-211 -1 -1 -32 5 -70 14 l-68 15 6 33 c4 19 3 36 -2 39 -5 3 -7 18 -4 34 5 38
-13 49 -41 25 -21 -18 -21 -18 1 14 24 34 28 48 11 37 -8 -4 -9 1 -4 17 7 23
7 23 -8 4 -8 -11 -13 -24 -10 -29 4 -5 1 -6 -5 -2 -12 7 -1 44 22 75 6 8 -3 4
-21 -9 -31 -23 -53 -80 -53 -143 -1 -57 -25 -58 -135 -6 -49 23 -63 34 -59 47
4 12 3 13 -3 4 -10 -13 -43 -6 -43 9 0 5 -7 9 -15 9 -19 0 -19 2 7 45 14 25
22 56 23 93 1 45 11 77 47 153 52 106 70 163 66 208 -2 23 -5 28 -15 19 -10
-8 -13 -7 -13 3 0 8 -9 4 -20 -11 -11 -14 -18 -17 -14 -8 7 21 -23 19 -37 -3
-12 -19 -11 -2 1 22 6 10 8 19 5 19 -14 0 -35 -73 -35 -120 0 -27 -9 -73 -20
-102 -11 -29 -20 -66 -20 -83 -1 -16 -8 -43 -16 -60 -8 -16 -12 -21 -9 -11 5
17 -8 35 -26 36 -7 0 -34 -110 -30 -127 3 -18 -4 -16 -48 11 -76 48 -163 127
-157 143 5 11 2 13 -10 9 -10 -4 -31 8 -60 36 -24 23 -42 44 -39 46 3 3 -3 11
-13 18 -15 12 -15 15 -2 23 9 6 18 7 24 1 6 -6 15 -5 25 3 12 10 13 9 6 -2 -5
-10 -4 -12 3 -7 7 4 12 15 13 24 1 10 4 7 8 -7 l7 -25 37 39 c42 43 49 65 12
41 -39 -26 -39 -25 -14 39 7 17 13 33 13 37 1 8 127 128 135 128 11 0 42 60
37 69 -13 21 -61 2 -95 -38 -20 -23 -40 -41 -45 -41 -5 0 -18 -7 -28 -17 -27
-25 -30 -12 -6 35 26 53 18 65 -12 18 -24 -40 -27 -42 -27 -21 0 8 6 16 14 19
7 3 13 12 13 20 0 8 8 21 18 28 32 23 81 103 72 117 -4 8 -13 10 -19 7 -27
-17 -7 24 29 59 46 45 95 113 88 121 -10 9 -91 -61 -111 -96 -10 -19 -23 -36
-28 -38 -5 -2 -9 -14 -9 -26 0 -13 -8 -32 -17 -44 -10 -11 -23 -29 -30 -39
-12 -17 -12 -17 -6 1 5 14 3 17 -6 11 -18 -10 2 27 24 45 12 10 55 92 55 106
0 2 -7 1 -15 -2 -8 -4 -15 -1 -15 5 0 7 -9 5 -25 -5 -14 -9 -25 -12 -25 -6 0
22 66 136 93 161 16 14 32 33 37 43 8 13 6 15 -10 11 -27 -7 -101 -73 -94 -84
3 -5 -11 -18 -30 -30 -20 -12 -36 -26 -36 -32 0 -7 5 -5 10 3 5 8 10 10 10 4
0 -15 -87 -104 -103 -104 -8 0 -19 -11 -25 -25 -10 -21 -9 -25 4 -25 10 0 14
-8 12 -27 -2 -20 1 -27 11 -25 7 2 24 -7 36 -18 21 -20 22 -24 9 -48 -17 -33
-18 -50 -2 -34 19 19 30 14 18 -7 -17 -33 -12 -44 16 -37 19 5 23 4 17 -6 -5
-7 -19 -30 -32 -51 -15 -25 -29 -36 -38 -33 -8 3 -19 6 -24 6 -5 0 -9 7 -9 16
0 17 -32 12 -59 -10 -12 -9 -13 -8 -6 3 6 11 4 13 -11 6 -10 -4 -26 -8 -34 -9
-9 -1 -20 -5 -26 -9 -6 -3 -16 5 -22 19 -10 22 -9 26 11 33 12 5 40 22 63 39
36 26 40 34 36 61 -2 17 0 31 6 31 5 0 13 8 16 17 4 10 4 14 0 11 -11 -11 -34
19 -28 36 11 30 -24 29 -51 -1 -23 -24 -25 -25 -15 -5 6 13 8 27 4 30 -4 4 -9
1 -11 -6 -3 -6 -9 -10 -14 -6 -5 3 -9 2 -8 -3 4 -20 -2 -34 -11 -28 -6 4 -18
1 -27 -7 -15 -12 -15 -11 -3 12 12 23 12 24 -3 11 -10 -7 -17 -10 -17 -5 0 4
-10 -3 -21 -15 -16 -17 -24 -20 -29 -10 -5 7 -6 17 -4 24 6 14 68 45 89 45 8
0 15 4 15 9 0 5 13 14 29 21 18 7 35 26 47 53 10 23 25 49 33 57 19 19 -4 27
-26 8 -15 -11 -16 -10 -11 10 4 14 2 20 -4 16 -7 -5 -8 5 -4 30 6 30 4 36 -11
36 -17 1 -17 2 1 15 19 15 19 15 -2 15 -12 0 -22 5 -22 12 0 21 -91 -75 -107
-112 -16 -37 -51 -80 -65 -80 -11 0 -3 30 23 87 10 24 19 47 19 51 0 5 14 28
30 50 25 35 27 42 13 42 -11 0 -14 3 -8 8 6 4 10 14 10 22 -1 8 10 25 24 37
14 12 20 22 13 23 -6 0 -22 -11 -34 -25 -12 -14 -27 -24 -34 -21 -14 5 -64
-40 -64 -59 0 -8 -5 -15 -12 -15 -6 0 -9 -2 -6 -5 3 -3 -4 -17 -16 -30 l-21
-24 -8 22 c-18 48 -38 189 -44 312 -16 347 80 694 274 995 342 529 977 831
1598 760z m-1742 -2117 c8 -7 -41 -63 -55 -63 -12 0 -9 45 4 58 13 13 41 16
51 5z m397 -149 c-19 -22 -55 -41 -44 -22 16 25 29 37 43 38 11 0 11 -3 1 -16z
m701 -937 c-10 -9 -11 -8 -5 6 3 10 9 15 12 12 3 -3 0 -11 -7 -18z"/>
<path d="M1610 3339 c0 -5 11 -9 25 -9 14 0 25 4 25 9 0 5 -11 9 -25 9 -14 0
-25 -4 -25 -9z"/>
<path d="M1678 3343 c7 -3 16 -2 19 1 4 3 -2 6 -13 5 -11 0 -14 -3 -6 -6z"/>
<path d="M1350 3321 c0 -5 15 -9 34 -8 19 0 33 5 30 9 -7 11 -64 10 -64 -1z"/>
<path d="M1836 3322 c-3 -5 6 -12 20 -15 15 -3 23 0 21 7 -5 14 -33 20 -41 8z"/>
<path d="M1730 3316 c0 -2 7 -7 16 -10 8 -3 12 -2 9 4 -6 10 -25 14 -25 6z"/>
<path d="M2125 3290 c-3 -5 -1 -10 4 -10 6 0 11 5 11 10 0 6 -2 10 -4 10 -3 0
-8 -4 -11 -10z"/>
<path d="M1524 3278 c-3 -4 1 -8 8 -8 7 0 23 -3 36 -6 12 -4 22 -2 22 4 0 12
-59 22 -66 10z"/>
<path d="M1827 3283 c-16 -4 -15 -7 8 -19 34 -18 56 -18 33 0 -10 7 -15 16
-11 19 7 8 -2 7 -30 0z"/>
<path d="M1348 3273 c6 -2 18 -2 25 0 6 3 1 5 -13 5 -14 0 -19 -2 -12 -5z"/>
<path d="M1410 3270 c-13 -8 -12 -10 3 -10 9 0 17 5 17 10 0 12 -1 12 -20 0z"/>
<path d="M1938 3273 c6 -2 18 -2 25 0 6 3 1 5 -13 5 -14 0 -19 -2 -12 -5z"/>
<path d="M1600 3255 c0 -8 4 -15 10 -15 5 0 7 -7 4 -15 -4 -9 0 -15 10 -15 9
0 16 6 16 14 0 8 5 18 12 22 6 4 8 3 5 -3 -8 -13 67 -49 116 -56 27 -4 37 -2
37 8 0 8 -5 17 -11 21 -8 4 -7 9 2 15 9 6 10 9 2 9 -6 0 -20 3 -30 6 -12 4
-14 3 -6 -3 10 -7 10 -13 -2 -29 -9 -11 -13 -13 -10 -4 4 11 -12 21 -59 38
-76 26 -96 27 -96 7z"/>
<path d="M2000 3245 c-11 -14 -9 -15 25 -11 38 5 61 16 32 16 -8 0 -22 2 -30
5 -7 3 -20 -1 -27 -10z"/>
<path d="M2080 3229 c0 -16 -4 -28 -9 -25 -5 4 -7 -3 -4 -14 3 -11 9 -17 14
-14 5 3 9 0 9 -5 0 -14 -6 -14 -31 0 -11 5 -17 14 -14 19 3 5 0 12 -6 16 -6 3
-15 0 -20 -7 -7 -12 -12 -12 -30 -1 -22 14 -44 5 -31 -13 4 -6 26 -23 49 -38
23 -16 44 -35 47 -43 7 -19 26 -18 26 2 0 12 4 14 13 6 6 -5 23 -8 35 -6 14 2
37 -5 54 -17 22 -16 32 -19 37 -10 8 13 41 5 41 -10 0 -5 15 -26 33 -46 19
-21 37 -46 40 -55 9 -25 27 -22 27 5 0 15 3 18 8 9 5 -7 21 -15 37 -18 33 -6
57 -24 108 -81 24 -26 34 -44 27 -48 -6 -4 -9 -13 -6 -21 9 -23 -40 5 -54 32
-7 13 -17 21 -22 18 -4 -3 -8 0 -8 7 0 6 -8 9 -20 6 -11 -3 -18 -1 -15 3 6 10
-22 40 -38 41 -7 0 -20 2 -29 4 -23 4 -22 -2 7 -50 16 -26 25 -33 25 -22 0 10
5 15 10 12 6 -4 8 -11 4 -16 -3 -5 0 -8 7 -7 7 2 13 -3 14 -10 0 -21 37 -43
59 -36 12 4 18 3 14 -1 -4 -5 0 -14 10 -21 13 -9 20 -10 32 -1 12 10 13 9 4
-3 -7 -9 -8 -23 -3 -35 4 -11 8 -15 9 -10 0 6 12 -3 26 -20 20 -23 23 -25 14
-7 -6 13 -9 26 -6 29 3 4 13 -10 21 -30 8 -21 17 -37 20 -37 8 0 -15 52 -37
83 -19 26 -19 30 -4 24 19 -7 15 4 -12 36 -8 9 -13 20 -9 23 3 3 16 -10 29
-30 22 -34 48 -48 48 -26 0 6 12 4 29 -4 25 -13 30 -13 34 -2 3 8 -6 26 -20
40 -26 27 -53 34 -53 15 0 -5 -4 -7 -10 -4 -5 3 -10 0 -10 -7 0 -10 -3 -9 -9
2 -6 8 -7 18 -5 22 3 4 0 8 -6 8 -6 0 -8 5 -5 10 9 15 25 12 25 -5 0 -8 5 -15
11 -15 6 0 8 8 4 19 -4 13 -1 19 7 17 19 -3 54 -24 74 -43 9 -10 24 -18 32
-18 8 0 23 -16 33 -35 10 -19 23 -41 30 -48 16 -19 25 -6 9 13 -8 9 -15 28
-16 42 -2 14 -8 31 -13 36 -6 6 -11 16 -11 22 0 5 5 3 10 -5 5 -8 10 -10 10
-5 0 6 -4 16 -9 24 -7 11 -10 11 -17 -2 -8 -13 -11 -12 -20 8 -9 18 -8 22 1
19 15 -6 14 61 -2 77 -6 6 -9 18 -6 25 3 8 -2 16 -10 20 -8 3 -21 19 -27 35
-7 16 -16 26 -20 24 -5 -3 -12 0 -15 5 -4 6 -18 15 -32 21 -13 5 -22 13 -19
18 3 5 -11 12 -31 16 -20 3 -46 13 -59 21 -16 11 -24 12 -29 4 -7 -12 21 -50
38 -50 5 0 -1 9 -14 20 -13 10 -19 19 -13 20 14 0 44 -33 44 -48 0 -6 5 -14
12 -18 6 -4 8 -3 4 4 -3 6 -2 13 3 16 11 7 61 -50 61 -70 0 -9 5 -12 10 -9 6
3 10 0 10 -9 0 -8 -5 -16 -12 -18 -6 -2 -8 -11 -4 -19 13 -27 32 -57 45 -73
28 -34 3 -35 -32 -1 -20 20 -41 34 -46 30 -10 -6 -24 27 -26 60 -3 46 -46 100
-72 90 -8 -3 -11 0 -8 6 4 6 -2 13 -14 16 -11 3 -19 9 -16 13 3 5 1 11 -5 15
-5 3 -10 15 -10 26 0 16 5 19 23 14 20 -5 20 -5 4 6 -10 6 -34 9 -53 7 -19 -2
-34 0 -34 5 0 4 -5 5 -11 1 -8 -5 -6 -10 5 -16 9 -5 14 -13 11 -19 -4 -5 1 -9
9 -9 9 0 16 -4 16 -10 0 -5 12 -20 26 -33 25 -24 26 -25 8 -46 -21 -24 -34
-27 -34 -8 0 13 -94 67 -117 67 -6 0 -13 7 -17 15 -3 8 -12 15 -20 15 -7 0
-17 8 -21 18 -6 16 -7 16 -16 0 -6 -11 -16 -15 -26 -11 -10 4 -14 2 -10 -4 3
-5 0 -10 -8 -10 -8 0 -11 5 -8 10 4 6 0 8 -9 4 -10 -3 -19 3 -26 16 -5 12 -15
33 -21 47 -6 14 -10 18 -7 9 2 -9 -1 -16 -8 -16 -7 0 -10 12 -8 34 2 18 1 33
-2 33 -3 0 -6 -14 -6 -31z m330 -233 c0 -5 -7 -1 -15 10 -8 10 -14 24 -14 29
0 6 6 1 14 -9 8 -11 15 -24 15 -30z m70 12 c0 -6 -7 -5 -15 2 -13 11 -15 10
-9 -6 5 -18 5 -18 -6 -1 -15 23 -3 42 16 26 8 -6 14 -16 14 -21z m76 -32 c1
-9 0 -16 -3 -16 -9 0 -33 29 -33 40 0 17 33 -5 36 -24z"/>
<path d="M1910 3220 c0 -5 5 -10 10 -10 6 0 10 5 10 10 0 6 -4 10 -10 10 -5 0
-10 -4 -10 -10z"/>
<path d="M1305 3210 c-4 -6 -13 -9 -21 -6 -8 3 -14 -1 -14 -8 0 -13 41 -26 85
-26 29 0 48 21 31 35 -16 15 -73 18 -81 5z"/>
<path d="M2253 3186 c7 -14 15 -26 19 -26 11 0 -7 43 -20 48 -7 2 -7 -5 1 -22z"/>
<path d="M2455 3200 c3 -5 11 -10 16 -10 6 0 7 5 4 10 -3 6 -11 10 -16 10 -6
0 -7 -4 -4 -10z"/>
<path d="M1155 3160 c-18 -19 -18 -20 1 -20 10 0 30 -3 42 -7 21 -5 23 -3 20
18 -4 31 -38 36 -63 9z"/>
<path d="M1520 3165 c-18 -21 -3 -34 46 -42 44 -6 148 -69 139 -84 -7 -11 2
-11 30 0 17 7 17 8 -8 15 -15 3 -25 11 -22 16 4 6 -1 13 -9 16 -9 3 -13 10
-10 15 3 5 1 9 -4 9 -5 0 -9 7 -9 15 0 19 14 19 24 1 4 -8 21 -18 36 -22 26
-6 28 -4 25 17 -2 17 -10 25 -28 26 -58 5 -110 16 -110 24 0 16 -87 10 -100
-6z"/>
<path d="M1398 3163 c-34 -3 -48 -8 -48 -19 0 -7 -5 -14 -11 -14 -5 0 -8 -4
-4 -9 3 -5 31 -13 63 -16 31 -4 64 -8 72 -9 8 -1 26 -8 38 -15 35 -19 34 -10
-4 25 -21 19 -37 27 -43 21 -10 -10 -31 -2 -31 12 0 4 12 12 28 18 29 12 24
12 -60 6z"/>
<path d="M1810 3150 c13 -8 13 -10 -2 -10 -10 0 -18 -4 -18 -10 0 -5 4 -10 8
-10 5 0 17 -6 28 -14 18 -14 18 -15 -11 -40 -28 -24 -29 -26 -8 -26 12 0 24
-4 27 -9 3 -5 17 -11 30 -13 19 -4 23 -1 19 11 -4 9 -10 21 -15 27 -10 14 1
46 13 38 8 -5 13 9 10 29 0 4 5 7 12 7 27 1 -26 21 -66 26 -30 3 -38 2 -27 -6z"/>
<path d="M2595 3136 c19 -15 25 -27 20 -36 -5 -9 -4 -11 4 -6 16 10 53 -3 45
-16 -4 -5 4 -4 17 2 l23 13 -22 8 c-12 5 -22 13 -22 19 0 6 -5 8 -11 5 -6 -4
-13 2 -15 12 -4 14 -15 20 -37 21 l-31 1 29 -23z"/>
<path d="M1264 3105 c-15 -14 -35 -25 -44 -25 -9 0 -25 -9 -35 -20 -18 -20
-17 -20 8 -20 15 0 27 4 27 9 0 6 12 6 30 1 19 -5 28 -5 25 1 -4 5 6 8 22 7
44 -3 99 3 84 9 -7 3 -22 14 -32 24 -11 11 -26 19 -35 19 -8 0 -12 5 -9 10 12
19 -14 10 -41 -15z"/>
<path d="M1902 3086 c-22 -12 -22 -13 -4 -29 10 -9 22 -17 26 -17 3 0 21 -13
39 -29 30 -28 56 -37 49 -17 -2 5 4 4 12 -4 9 -7 16 -22 16 -34 0 -25 -26 -31
-67 -15 -18 6 -30 5 -45 -5 -17 -12 -26 -12 -59 -1 -34 12 -39 12 -39 -1 0 -9
-5 -12 -11 -8 -8 4 -9 -1 -4 -17 9 -28 4 -23 40 -43 27 -15 27 -16 5 -10 -27
6 -60 39 -60 59 0 7 -12 15 -27 18 -16 3 -37 13 -48 22 -20 16 -20 16 2 5 18
-8 22 -8 17 4 -6 16 -47 26 -64 16 -9 -6 -9 -9 1 -13 20 -8 -22 -8 -60 -1 -17
4 -31 13 -31 20 0 8 6 11 17 7 12 -5 14 -3 8 7 -6 10 -4 12 7 8 8 -4 21 -2 29
3 12 8 12 9 -1 7 -8 -1 -25 3 -38 10 -12 7 -28 9 -35 5 -18 -11 -116 -13 -122
-3 -8 13 -65 13 -65 0 0 -5 -15 -10 -34 -10 -19 0 -38 -4 -41 -10 -3 -5 -14
-10 -24 -10 -20 0 -24 -29 -6 -42 6 -4 -4 -8 -22 -8 -40 0 -63 -9 -63 -25 0
-7 -12 -12 -27 -12 -54 0 -138 -16 -160 -30 -19 -13 -21 -12 -19 2 1 9 9 21
17 26 12 8 12 10 -1 19 -8 5 -23 10 -32 10 -9 0 -29 5 -45 11 -26 10 -27 12
-8 19 15 6 7 9 -29 9 -42 1 -47 3 -36 16 15 18 -1 20 -18 3 -18 -18 -15 -25
14 -32 18 -5 24 -11 20 -23 -5 -13 0 -15 32 -9 43 6 53 2 45 -20 -4 -11 -15
-13 -42 -8 -24 3 -31 2 -23 -4 17 -12 17 -22 0 -34 -10 -7 -10 -10 5 -19 19
-11 23 -39 6 -39 -7 0 -17 7 -24 16 -8 12 -29 17 -70 18 -49 1 -60 -2 -63 -16
-2 -11 3 -18 11 -18 24 0 37 -23 24 -41 -13 -17 -69 -49 -87 -49 -6 0 -20 -9
-32 -20 l-22 -20 25 0 c13 0 38 -7 54 -16 20 -10 43 -14 68 -10 21 4 37 2 37
-4 0 -13 -54 -40 -79 -40 -11 0 -43 -9 -71 -20 -28 -11 -61 -20 -74 -20 -27 0
-41 -14 -50 -52 -6 -25 -3 -28 18 -28 13 0 43 7 67 15 37 14 45 14 54 2 6 -9
23 -13 45 -11 31 3 30 2 -7 -7 -24 -6 -43 -15 -43 -20 0 -5 -11 -14 -25 -19
-14 -5 -25 -15 -25 -23 0 -7 -17 -31 -38 -54 -47 -50 -51 -91 -11 -110 14 -7
59 -15 100 -19 41 -3 84 -13 96 -20 20 -12 22 -12 17 1 -4 9 -1 15 7 15 27 1
-36 40 -63 40 -16 0 -28 4 -28 8 0 4 16 6 35 4 22 -3 35 0 35 7 0 7 -9 9 -24
5 -13 -3 -27 -1 -30 5 -4 6 0 11 8 11 9 0 16 7 16 14 0 13 4 13 35 0 41 -17
99 -19 89 -3 -8 14 46 3 84 -17 l27 -14 -33 3 c-17 1 -32 5 -32 9 0 3 -10 3
-22 0 -22 -5 -21 -6 7 -18 29 -13 29 -13 5 -14 -22 -1 -23 -2 -7 -11 9 -5 17
-14 17 -19 0 -6 -8 -10 -17 -10 -14 0 -15 2 -5 9 11 6 9 9 -7 14 -11 3 -22 -1
-25 -8 -6 -17 2 -25 25 -25 12 0 16 -5 13 -15 -7 -17 1 -18 31 -5 14 6 15 9 5
10 -9 1 -6 5 8 10 23 10 79 3 87 -10 3 -5 -5 -6 -17 -3 -13 3 -4 -6 21 -21 52
-31 85 -36 50 -6 -23 18 -23 19 -4 20 11 0 33 -7 49 -15 35 -19 46 -19 46 -1
0 12 7 13 32 5 18 -5 41 -6 50 -3 12 3 18 0 18 -10 0 -9 18 -27 39 -40 21 -14
41 -30 43 -36 2 -6 11 -8 21 -4 17 6 17 7 0 20 -33 24 1 14 52 -16 28 -16 60
-30 73 -30 31 0 27 -18 -5 -22 -22 -3 -14 -7 32 -17 47 -11 56 -15 40 -22 -16
-6 -13 -8 15 -9 30 -1 32 -3 15 -11 -16 -7 -12 -8 14 -4 18 3 43 5 55 6 11 1
1 6 -24 13 l-45 13 57 7 c82 11 79 21 -7 21 -45 0 -71 4 -69 10 4 10 221 1
232 -10 3 -3 -4 -5 -16 -5 -11 0 -24 -5 -27 -10 -4 -7 18 -9 67 -6 l73 4 -50
-24 c-27 -13 -41 -21 -30 -18 89 28 109 33 113 30 2 -3 -7 -8 -22 -12 -14 -3
-26 -10 -26 -15 0 -5 -6 -9 -14 -9 -8 0 -21 -6 -28 -13 -7 -8 -20 -17 -28 -20
-21 -10 31 -1 55 9 18 7 19 6 6 -9 -13 -17 -38 -18 -148 -5 -20 2 4 26 30 31
20 3 21 4 3 12 -10 4 -21 4 -25 -1 -3 -5 -14 -13 -24 -19 -57 -31 7 -51 188
-58 77 -3 151 -9 165 -12 23 -6 23 -6 -3 9 -16 8 -31 15 -35 15 -20 -3 -33 2
-27 11 3 5 11 7 18 5 29 -11 133 -13 144 -3 7 6 13 7 13 2 0 -5 5 -2 10 6 8
12 10 10 10 -9 l0 -24 19 22 19 21 7 -27 c6 -24 8 -26 18 -13 13 17 57 24 57
10 0 -9 32 -6 50 5 6 3 10 2 10 -4 0 -6 7 -8 15 -5 16 7 21 34 6 34 -17 0 -33
59 -27 95 6 31 5 34 -11 28 -17 -6 -17 -6 -1 10 22 22 39 22 32 0 -3 -10 4 -2
16 17 17 28 20 30 15 10 -4 -18 -3 -21 3 -10 6 8 12 31 16 50 4 22 3 28 -2 16
-8 -18 -10 -17 -30 9 -12 15 -22 35 -22 44 0 14 -2 14 -11 1 -9 -13 -10 -12
-5 3 3 10 -1 32 -9 48 -12 22 -12 29 -3 27 7 -2 12 4 10 12 -1 10 2 9 13 -4 8
-11 15 -27 15 -35 1 -9 8 -27 16 -41 14 -24 15 -23 8 25 -4 28 -7 58 -8 67 0
9 -3 15 -6 13 -4 -2 -14 12 -22 32 l-17 35 25 -23 c50 -47 37 11 -16 71 -30
34 -31 34 -21 7 14 -35 14 -34 -4 -34 -16 0 -61 84 -51 94 3 3 -2 12 -12 20
-11 9 -11 12 -2 7 8 -4 -3 13 -25 37 -59 63 -82 94 -66 84 11 -6 13 -4 8 9 -4
10 -7 22 -7 27 0 5 -5 9 -11 9 -5 0 -7 -4 -4 -10 9 -14 -6 -12 -35 5 l-25 15
30 -6 30 -7 -20 24 c-11 13 -24 27 -30 31 -5 4 -6 10 -2 14 3 4 -1 21 -10 38
-37 71 -36 68 -11 55 20 -11 21 -10 11 3 -7 8 -10 17 -7 21 3 3 -12 16 -35 29
-38 22 -57 51 -45 70 3 5 12 1 19 -9 12 -16 13 -15 8 9 -7 35 -42 67 -79 71
-16 2 -38 8 -49 14 -15 8 -26 8 -43 -1z m-418 -96 c7 -7 3 -10 -12 -10 -12 0
-22 -3 -22 -8 0 -12 -129 -54 -147 -48 -13 5 -9 11 18 25 23 12 34 25 33 39
-1 19 3 20 59 16 33 -2 65 -8 71 -14z m70 -46 c20 -20 20 -34 1 -34 -8 0 -15
-4 -15 -8 0 -11 153 -35 177 -28 11 3 44 -2 74 -12 40 -14 77 -18 139 -17 93
3 120 -5 120 -36 0 -11 7 -22 15 -25 19 -8 19 -20 0 -28 -9 -3 -37 5 -63 19
-36 19 -63 24 -117 25 -90 0 -117 3 -133 14 -8 4 -43 10 -79 13 -77 5 -154 20
-113 22 24 2 24 2 -7 16 -17 7 -36 23 -43 34 -6 12 -20 21 -32 21 -20 0 -21 1
-3 20 22 24 58 26 79 4z m468 -54 c16 -14 18 -20 7 -20 -8 -1 -2 -8 14 -16 43
-23 32 -27 -13 -4 -41 21 -54 35 -22 23 15 -6 15 -4 -2 15 -24 28 -12 29 16 2z
m-847 0 c18 -8 17 -9 -7 -9 -16 -1 -28 4 -28 9 0 12 8 12 35 0z m733 -6 c33
-13 35 -16 19 -26 -10 -5 -21 -7 -24 -4 -4 3 0 6 8 6 8 1 -2 9 -21 20 -43 23
-33 26 18 4z m-622 -39 c-20 -15 -20 -15 0 -16 16 0 15 -2 -6 -11 l-25 -11 35
-8 c29 -6 25 -7 -25 -6 -114 1 -195 -5 -201 -15 -4 -6 2 -8 15 -3 26 8 49 -4
30 -16 -11 -7 -9 -9 6 -10 25 -2 -29 -16 -65 -17 -24 -1 -24 -1 -6 13 18 14
15 15 -39 15 -32 0 -56 2 -54 4 4 4 56 12 93 15 6 1 1 7 -9 15 -19 13 -17 15
18 21 35 7 51 23 25 27 -19 2 109 14 172 16 50 1 53 0 36 -13z m-334 -21 c-7
-12 -11 -13 -17 -4 -4 7 -2 16 6 21 18 11 23 4 11 -17z m535 0 c-3 -3 -12 -4
-19 -1 -8 3 -5 6 6 6 11 1 17 -2 13 -5z m8 -24 c3 -5 12 -7 20 -3 9 3 15 -1
15 -10 0 -14 18 -25 54 -31 6 -1 28 -10 50 -19 21 -9 43 -17 48 -17 5 0 7 -4
4 -9 -3 -5 4 -12 17 -16 14 -4 17 -8 9 -12 -22 -8 17 -30 68 -37 l45 -7 -24
21 -23 20 41 0 c23 0 41 5 41 10 0 6 12 10 28 10 l27 -1 -24 -13 -24 -14 21
-6 c19 -6 20 -9 8 -22 -8 -8 -27 -14 -43 -14 -59 0 -56 -31 7 -73 28 -18 119
-19 133 -2 5 6 7 3 3 -7 -4 -13 0 -18 15 -18 26 0 69 -23 93 -48 10 -12 32
-24 49 -28 29 -6 137 -105 137 -124 0 -13 -56 -1 -111 24 -30 14 -60 26 -67
26 -7 0 -11 4 -8 9 3 5 -4 11 -15 14 -32 8 -13 27 29 28 24 1 29 3 14 6 -12 2
-20 8 -17 13 5 9 -9 13 -115 30 -54 9 -126 36 -210 80 -8 4 -14 15 -12 23 3
19 -18 34 -27 19 -5 -8 -14 -8 -32 2 -53 27 -189 39 -232 19 -62 -28 -92 -32
-137 -19 l-45 13 60 8 c48 6 55 9 35 15 l-25 7 27 13 c15 7 25 17 22 22 -8 13
25 22 39 10 6 -6 39 -12 72 -13 33 -2 66 -9 73 -16 7 -7 34 -12 60 -11 l47 1
-40 13 c-22 8 -49 18 -60 23 -11 4 -37 16 -58 25 -21 9 -44 16 -52 16 -8 0
-15 4 -15 10 0 12 -123 8 -132 -5 -5 -6 -8 -3 -8 7 0 9 -8 19 -17 21 -10 3 -4
5 14 6 17 0 35 5 38 11 13 21 100 37 110 20z m283 -56 c17 -7 32 -18 32 -23 0
-6 8 -11 18 -12 11 0 7 -4 -10 -11 -23 -8 -34 -6 -62 11 -18 12 -41 21 -49 21
-9 0 -21 9 -27 19 -9 18 -7 19 27 14 21 -3 53 -12 71 -19z m-548 -10 c0 -22
-4 -29 -15 -26 -5 2 -28 7 -50 12 l-40 8 34 1 c23 1 32 5 28 14 -4 10 2 13 19
9 13 -2 24 -11 24 -18z m85 14 c14 -6 25 -15 25 -19 0 -13 -33 -20 -41 -8 -4
6 -11 9 -17 5 -13 -8 -26 10 -17 24 8 13 18 13 50 -2z m803 -61 c26 -27 74
-75 106 -108 59 -59 63 -71 16 -44 -34 20 -42 18 -28 -4 7 -11 16 -17 20 -15
4 3 8 -2 8 -11 0 -10 5 -13 12 -9 6 4 8 3 5 -3 -4 -6 0 -16 8 -23 8 -7 15 -16
15 -21 0 -4 14 -31 32 -59 26 -42 29 -53 18 -60 -11 -7 -23 3 -47 37 -18 26
-33 52 -33 59 0 17 -70 71 -124 95 -56 24 -59 34 -8 24 20 -4 42 -8 47 -9 6
-1 16 -5 23 -10 11 -7 12 -4 3 12 -6 11 -34 32 -63 46 -44 22 -54 24 -56 11
-3 -13 -5 -13 -18 -1 -18 19 -18 26 2 26 12 0 10 5 -9 20 -14 11 -34 20 -45
20 -11 0 -35 6 -53 14 l-34 14 26 7 c14 3 34 8 45 9 13 2 19 11 19 27 0 23 1
24 33 14 19 -5 55 -32 80 -58z m-728 -17 c0 -5 -12 -10 -27 -10 -22 0 -25 2
-13 10 20 13 40 13 40 0z m170 -54 c0 -2 -13 -6 -29 -8 -17 -2 -28 -1 -25 4 5
8 54 12 54 4z m413 -30 c4 -9 -4 -11 -24 -8 -39 6 -44 17 -9 19 16 1 30 -4 33
-11z m-170 -72 c18 -9 71 -39 120 -66 l87 -50 0 -43 c0 -53 -31 -101 -85 -133
-58 -33 -156 -28 -214 12 -65 45 -85 85 -79 161 3 35 13 73 22 86 34 49 92 62
149 33z m-843 -94 c0 -5 -2 -10 -4 -10 -3 0 -8 5 -11 10 -3 6 -1 10 4 10 6 0
11 -4 11 -10z m-255 -10 c3 -5 -3 -10 -14 -10 -11 0 -23 5 -26 10 -3 6 3 10
14 10 11 0 23 -4 26 -10z m52 4 c-3 -3 -12 -4 -19 -1 -8 3 -5 6 6 6 11 1 17
-2 13 -5z m829 -141 c19 -12 22 -18 12 -24 -7 -5 -17 -9 -23 -9 -5 0 -3 5 5
10 13 8 12 10 -3 10 -10 0 -16 4 -12 9 3 5 -3 12 -12 14 -10 3 -12 5 -5 6 7 0
24 -6 38 -16z m-509 -9 c-3 -3 -12 -4 -19 -1 -8 3 -5 6 6 6 11 1 17 -2 13 -5z
m69 -30 c18 -14 18 -14 -6 -3 -31 14 -36 19 -24 19 6 0 19 -7 30 -16z m489
-32 c-8 -2 -15 -8 -15 -13 0 -17 -37 -9 -56 12 -19 22 -19 22 3 10 28 -14 33
-14 33 3 0 11 5 12 25 3 17 -8 20 -13 10 -15z m-375 8 c0 -5 -2 -10 -4 -10 -3
0 -8 5 -11 10 -3 6 -1 10 4 10 6 0 11 -4 11 -10z m443 -32 c14 -11 8 -13 -41
-14 -55 -2 -56 -2 -27 12 38 17 47 17 68 2z m-13 -28 c-19 -13 1 -13 33 -1 19
7 27 6 30 -4 6 -15 -1 -25 -17 -25 -6 0 -4 5 4 11 11 8 6 9 -21 5 -20 -4 -44
-3 -54 1 -18 6 -18 7 1 14 28 11 42 10 24 -1z m167 -86 c-3 -3 -12 -4 -19 -1
-8 3 -5 6 6 6 11 1 17 -2 13 -5z m301 -38 c-7 -8 -21 -23 -31 -35 -14 -18 -21
-20 -37 -11 -16 9 -22 8 -26 -5 -3 -8 -11 -15 -16 -15 -7 0 -6 5 1 14 9 11 8
15 -4 20 -9 3 -13 2 -10 -3 3 -5 0 -13 -6 -17 -8 -4 -9 -3 -5 4 10 17 -9 15
-24 -3 -7 -8 -16 -12 -21 -9 -5 2 -21 -2 -37 -10 -26 -13 -28 -13 -29 5 -2 26
33 44 62 31 16 -7 26 -7 33 0 16 16 82 37 97 32 7 -3 15 -2 18 3 3 5 15 9 26
10 17 1 19 -1 9 -11z m-158 -80 c0 -11 -19 -15 -25 -6 -3 5 1 10 9 10 9 0 16
-2 16 -4z"/>
<path d="M1981 2496 c2 -2 20 -6 39 -10 25 -4 31 -3 20 4 -14 9 -69 15 -59 6z"/>
<path d="M2160 2423 c0 -11 69 -57 76 -50 3 3 -10 17 -29 31 -35 27 -47 32
-47 19z"/>
<path d="M1779 2441 c-20 -20 -29 -39 -29 -61 0 -43 47 -90 90 -90 43 0 90 47
90 90 0 22 -9 41 -29 61 -20 20 -39 29 -61 29 -22 0 -41 -9 -61 -29z"/>
<path d="M2115 2010 c-10 -11 -16 -22 -14 -24 2 -2 12 7 22 20 22 29 17 32 -8
4z"/>
<path d="M2070 2010 c-8 -5 -12 -11 -9 -14 3 -3 14 1 25 9 21 16 8 20 -16 5z"/>
<path d="M1934 1975 c-10 -8 -14 -14 -9 -14 6 0 19 6 29 14 11 8 15 15 10 15
-6 0 -19 -7 -30 -15z"/>
<path d="M2112 3065 c3 -14 1 -25 -3 -25 -5 0 -9 5 -9 11 0 8 -4 8 -15 -1 -12
-10 -11 -16 13 -40 15 -15 38 -30 50 -34 12 -4 21 -10 20 -14 -1 -4 2 -15 7
-25 11 -26 -2 -33 -25 -12 -23 21 -26 9 -7 -27 9 -18 19 -24 37 -22 14 1 20 1
14 -2 -15 -6 -6 -44 16 -65 9 -9 31 -24 48 -33 30 -15 36 -28 33 -66 -1 -8 10
-28 24 -44 18 -21 25 -25 25 -13 0 10 4 17 10 17 5 0 7 -6 4 -14 -3 -7 2 -16
10 -19 9 -4 16 -12 16 -18 0 -8 -4 -8 -15 1 -25 21 -17 -2 36 -106 34 -68 55
-125 66 -181 9 -46 20 -83 25 -83 4 0 8 -12 9 -27 1 -26 2 -25 9 7 5 19 6 39
2 45 -7 12 -4 65 8 121 5 23 6 53 0 70 -8 28 -8 28 -11 4 -1 -14 -1 -35 0 -47
2 -23 -14 -39 -23 -24 -4 5 -8 33 -11 63 -11 113 -29 177 -54 195 -12 8 -19
19 -16 24 4 5 1 17 -5 26 -11 17 -11 17 -6 1 6 -20 -4 -24 -21 -7 -6 6 -19 12
-29 14 -11 1 -18 8 -17 14 2 6 -1 11 -7 11 -5 0 -14 10 -21 21 -8 15 -8 19 0
15 30 -19 31 11 4 84 -4 8 -8 32 -9 53 -4 38 -49 111 -64 102 -4 -3 -13 2 -20
10 -7 8 -16 12 -21 9 -5 -2 -23 9 -40 26 -39 36 -43 37 -37 5z m102 -154 c-7
-7 -34 28 -34 43 1 6 10 0 21 -13 11 -13 17 -27 13 -30z m71 -52 c9 -17 14
-33 11 -36 -3 -3 -11 6 -17 21 -10 21 -15 24 -27 13 -13 -10 -14 -9 -3 11 15
29 17 28 36 -9z m128 -248 c12 -25 12 -29 1 -24 -9 3 -14 -2 -14 -13 -1 -18
-1 -18 -11 -2 -8 15 -3 68 6 68 2 0 10 -13 18 -29z"/>
<path d="M2710 3075 c0 -3 7 -17 17 -31 12 -19 18 -22 25 -12 7 9 8 7 4 -7 -7
-26 5 -44 31 -49 19 -4 20 0 18 40 -3 45 -15 75 -15 38 0 -13 -3 -15 -8 -6 -5
7 -18 14 -30 17 -12 2 -27 7 -32 10 -6 3 -10 4 -10 0z"/>
<path d="M1025 3050 c-3 -5 -13 -10 -21 -10 -18 0 -59 -40 -41 -41 6 -1 16 -1
22 1 25 4 75 -12 75 -25 0 -8 5 -15 10 -15 6 0 10 5 10 10 0 6 9 10 20 10 19
0 22 4 24 33 1 6 6 16 11 20 6 5 4 7 -5 4 -8 -2 -22 -1 -30 3 -30 15 -69 20
-75 10z"/>
<path d="M1801 3006 c2 -2 24 -6 48 -9 29 -4 40 -2 30 4 -13 8 -88 14 -78 5z"/>
<path d="M2777 2955 c3 -5 11 -17 18 -25 14 -19 37 -109 30 -120 -6 -10 23
-35 32 -27 3 4 18 -9 33 -27 24 -31 27 -33 38 -16 8 13 8 22 -2 36 -12 16 -14
16 -23 0 -8 -14 -12 -10 -22 25 -16 52 -40 91 -52 83 -5 -3 -4 7 1 21 13 34 0
58 -33 59 -15 1 -23 -3 -20 -9z"/>
<path d="M2872 2947 c19 -18 23 -28 17 -45 -5 -13 -4 -22 1 -22 6 0 10 -5 10
-11 0 -5 -4 -8 -10 -4 -5 3 -7 -9 -4 -32 6 -49 12 -53 20 -13 l7 33 14 -28
c14 -25 15 -25 28 -9 10 15 10 25 -3 61 -11 27 -19 38 -24 30 -5 -8 -8 -5 -8
8 0 12 -12 28 -29 38 -40 24 -48 21 -19 -6z"/>
<path d="M2400 2956 c0 -2 7 -9 15 -16 9 -7 15 -8 15 -2 0 5 -7 12 -15 16 -8
3 -15 4 -15 2z"/>
<path d="M2300 2931 c0 -6 4 -12 8 -15 5 -3 9 1 9 9 0 8 -4 15 -9 15 -4 0 -8
-4 -8 -9z"/>
<path d="M768 2923 c7 -3 16 -2 19 1 4 3 -2 6 -13 5 -11 0 -14 -3 -6 -6z"/>
<path d="M1030 2918 c0 -5 18 -8 40 -8 22 0 40 3 40 8 0 4 -18 7 -40 7 -22 0
-40 -3 -40 -7z"/>
<path d="M2960 2906 c0 -2 8 -10 18 -17 15 -13 16 -12 3 4 -13 16 -21 21 -21
13z"/>
<path d="M636 2843 c-6 -14 -5 -15 5 -6 7 7 10 15 7 18 -3 3 -9 -2 -12 -12z"/>
<path d="M3000 2842 c0 -5 7 -24 16 -42 15 -30 16 -35 1 -60 -19 -32 -17 -85
8 -200 9 -41 20 -93 24 -115 8 -36 9 -32 10 33 0 39 -3 72 -8 72 -14 0 -24 71
-12 83 6 6 11 29 11 51 l0 39 21 -24 21 -24 -8 30 c-4 17 -11 38 -15 47 -13
24 -11 28 6 22 26 -11 16 8 -30 53 -25 24 -45 39 -45 35z"/>
<path d="M2984 2807 c3 -10 6 -25 6 -33 0 -8 5 -14 10 -14 15 0 12 22 -7 45
-14 18 -15 18 -9 2z"/>
<path d="M2369 2788 c-1 -7 0 -19 1 -27 1 -9 -4 -12 -14 -8 -14 5 -15 3 -6
-13 6 -11 14 -20 17 -20 3 0 3 3 0 7 -4 3 0 15 10 25 9 10 11 18 5 18 -6 0 -9
7 -6 15 4 8 3 15 0 15 -3 0 -7 -6 -7 -12z"/>
<path d="M670 2760 c-8 -5 -11 -12 -7 -16 4 -4 15 0 24 9 18 18 8 23 -17 7z"/>
<path d="M2460 2764 c0 -7 9 -22 21 -35 16 -19 18 -20 10 -4 -17 34 -31 51
-31 39z"/>
<path d="M2810 2761 c0 -5 7 -14 15 -21 8 -7 15 -18 15 -25 0 -16 39 -64 40
-48 0 6 -7 19 -16 27 -8 9 -13 20 -10 24 6 11 -21 52 -35 52 -5 0 -9 -4 -9 -9z"/>
<path d="M2200 2743 c1 -20 27 -41 40 -33 11 7 10 11 -3 24 -16 17 -37 21 -37
9z"/>
<path d="M2740 2741 c0 -5 5 -13 10 -16 6 -3 10 -2 10 4 0 5 -4 13 -10 16 -5
3 -10 2 -10 -4z"/>
<path d="M2630 2731 c0 -14 48 -61 63 -61 8 0 22 -11 31 -25 18 -28 21 -39 6
-30 -25 16 -6 -13 22 -32 36 -25 49 -22 26 4 -9 10 -19 29 -23 43 -15 51 -125
140 -125 101z"/>
<path d="M635 2720 c-3 -6 1 -7 9 -4 18 7 21 14 7 14 -6 0 -13 -4 -16 -10z"/>
<path d="M2938 2725 c-12 -13 3 -107 27 -165 20 -48 28 -88 32 -150 7 -149 10
-173 27 -259 9 -47 14 -93 10 -103 -3 -12 1 -20 13 -24 10 -3 25 -9 34 -14 14
-7 15 13 15 185 l0 193 -23 -31 c-13 -17 -23 -33 -23 -36 -1 -3 -7 -28 -15
-56 -14 -49 -14 -47 -12 85 2 124 0 138 -21 178 -13 25 -25 66 -27 95 -5 84
-18 120 -37 102z"/>
<path d="M2510 2703 c0 -26 20 -73 31 -73 4 0 11 5 15 12 4 6 3 8 -4 5 -6 -4
-8 0 -5 11 2 10 -5 29 -16 43 -20 24 -20 24 -21 2z"/>
<path d="M2786 2678 c9 -29 36 -67 48 -68 4 0 5 7 2 16 -3 9 -6 22 -6 29 0 16
-27 45 -41 45 -6 0 -7 -9 -3 -22z"/>
<path d="M2570 2670 c-3 -6 -9 -92 -14 -182 -2 -37 -7 -72 -12 -79 -4 -8 -3
-9 5 -5 29 19 44 70 38 138 -3 38 -2 70 4 73 5 4 9 13 9 21 0 8 -4 13 -9 9 -5
-3 -12 3 -14 12 -3 10 -6 16 -7 13z"/>
<path d="M2864 2633 c9 -18 22 -32 28 -30 6 1 19 -17 28 -40 17 -47 40 -77 40
-54 0 8 -14 38 -31 68 -23 40 -34 51 -40 41 -7 -10 -9 -10 -9 3 0 9 -7 23 -17
30 -15 13 -15 11 1 -18z"/>
<path d="M2630 2628 c0 -15 -5 -30 -10 -33 -6 -4 -8 -11 -4 -16 11 -18 35 41
24 60 -8 13 -9 11 -10 -11z"/>
<path d="M2486 2615 c8 -35 10 -39 17 -28 3 5 -1 19 -9 33 l-14 25 6 -30z"/>
<path d="M3082 2591 c-7 -21 -12 -54 -12 -72 l1 -34 14 25 c9 16 15 19 15 10
1 -10 4 -9 10 5 12 28 12 37 0 30 -7 -4 -8 8 -4 34 8 53 -9 54 -24 2z"/>
<path d="M2700 2592 c0 -12 39 -42 53 -42 9 0 -4 14 -36 39 -10 8 -17 9 -17 3z"/>
<path d="M2810 2577 c14 -16 24 -32 23 -35 -3 -10 40 -71 55 -77 16 -6 0 26
-22 44 -9 8 -14 17 -11 21 2 4 -12 22 -33 41 -27 25 -30 26 -12 6z"/>
<path d="M470 2575 c-16 -19 -1 -19 24 0 16 12 17 15 4 15 -8 0 -21 -7 -28
-15z"/>
<path d="M2512 2560 c0 -14 2 -19 5 -12 2 6 2 18 0 25 -3 6 -5 1 -5 -13z"/>
<path d="M2610 2550 c0 -5 5 -10 10 -10 6 0 10 5 10 10 0 6 -4 10 -10 10 -5 0
-10 -4 -10 -10z"/>
<path d="M2870 2543 c0 -6 7 -16 16 -24 8 -7 22 -25 30 -41 8 -15 19 -28 25
-28 5 0 3 12 -5 28 -16 31 -66 80 -66 65z"/>
<path d="M2764 2521 c4 -6 16 -16 28 -22 15 -8 18 -8 14 0 -4 6 -16 16 -28 22
-15 8 -18 8 -14 0z"/>
<path d="M416 2466 c-23 -36 -3 -40 28 -6 23 27 24 30 7 30 -10 0 -26 -11 -35
-24z"/>
<path d="M2830 2450 c0 -5 5 -10 11 -10 5 0 7 5 4 10 -3 6 -8 10 -11 10 -2 0
-4 -4 -4 -10z"/>
<path d="M3075 2420 c-5 -25 -14 -44 -20 -42 -11 4 -23 -24 -24 -57 -1 -16 8
-6 29 35 17 32 30 69 28 83 -2 20 -5 16 -13 -19z"/>
<path d="M2892 2427 c11 -22 11 -22 -11 -3 -11 11 -21 16 -21 12 0 -4 16 -20
35 -37 19 -17 47 -53 62 -81 29 -52 46 -52 19 1 -9 16 -16 39 -16 49 0 25 -34
68 -60 75 -17 4 -18 3 -8 -16z"/>
<path d="M2706 2401 c-3 -4 -18 -11 -34 -14 -18 -4 -42 -23 -63 -49 -34 -42
-67 -103 -52 -96 52 24 82 45 101 69 16 20 19 27 8 23 -26 -10 -19 3 22 41 20
19 34 35 30 35 -4 0 -9 -4 -12 -9z m-61 -91 c-3 -5 -11 -10 -16 -10 -6 0 -7 5
-4 10 3 6 11 10 16 10 6 0 7 -4 4 -10z"/>
<path d="M786 2282 c-2 -4 4 -8 14 -8 10 0 16 4 14 8 -3 4 -9 8 -14 8 -5 0
-11 -4 -14 -8z"/>
<path d="M367 2274 c-11 -11 13 -44 33 -44 38 0 50 10 37 31 -11 18 -56 26
-70 13z"/>
<path d="M2575 2217 c-28 -46 -28 -48 -11 -41 9 3 16 1 16 -5 0 -6 -5 -11 -11
-11 -6 0 -9 -6 -6 -14 3 -8 -1 -20 -9 -26 -8 -7 -14 -18 -14 -24 0 -7 4 -6 9
2 7 11 9 11 14 -2 4 -9 -1 -20 -11 -25 -16 -10 -16 -10 1 -11 9 0 17 -4 17
-10 0 -5 -4 -10 -9 -10 -10 0 -9 -25 1 -35 3 -4 3 -25 0 -48 -5 -39 -4 -41 12
-24 10 9 14 22 10 28 -5 9 1 10 21 5 26 -7 26 -6 11 10 -22 22 -15 27 18 14
42 -15 71 -12 91 11 19 20 18 21 -25 59 -25 22 -48 39 -52 40 -4 0 -5 7 -2 15
4 9 -3 16 -19 20 -16 4 -27 15 -30 31 -2 13 0 24 4 24 5 0 9 9 9 21 0 11 4 18
8 15 5 -3 9 1 9 9 0 27 -32 16 -52 -18z"/>
<path d="M593 2230 c-28 -12 -29 -70 0 -70 10 0 17 8 17 20 0 11 -4 20 -10 20
-5 0 -10 5 -10 10 0 15 28 12 37 -3 8 -13 83 -47 103 -47 5 0 2 9 -7 20 -10
11 -27 20 -38 20 -20 1 -20 1 0 12 19 12 19 12 -5 19 -34 10 -61 9 -87 -1z"/>
<path d="M810 2180 c-51 -5 -57 -7 -25 -9 38 -2 39 -3 15 -13 -23 -10 -23 -11
-5 -15 11 -2 27 -7 35 -11 8 -3 38 -7 65 -8 28 -1 75 -5 105 -9 50 -6 53 -5
37 9 -10 8 -42 18 -70 21 -29 4 -61 14 -72 22 -18 13 -16 14 25 8 25 -4 53 -9
63 -11 9 -3 17 -1 17 4 0 10 -61 23 -100 20 -14 -1 -54 -4 -90 -8z"/>
<path d="M1194 2155 c11 -8 22 -12 25 -9 6 6 -19 24 -34 24 -5 -1 -1 -7 9 -15z"/>
<path d="M1101 2151 c-11 -7 -11 -10 0 -14 12 -5 12 -7 1 -15 -10 -7 -5 -11
21 -16 19 -4 63 -18 97 -32 81 -33 87 -26 9 11 -33 16 -65 35 -71 43 -18 21
-43 31 -57 23z"/>
<path d="M2940 2105 c0 -8 -4 -16 -10 -16 -5 -1 -14 -2 -19 -3 -5 0 -13 -4
-17 -8 -12 -12 -26 -9 -18 4 4 7 3 8 -4 4 -6 -4 -8 -14 -5 -23 4 -10 2 -14 -5
-9 -6 4 -12 -3 -14 -16 -2 -13 -9 -22 -15 -21 -8 2 -10 -8 -6 -31 5 -30 2 -36
-26 -52 -17 -10 -31 -22 -31 -27 0 -4 -17 -15 -37 -24 -21 -8 -50 -24 -65 -34
-14 -11 -35 -19 -46 -19 -12 0 -24 -4 -27 -10 -3 -5 -23 -10 -43 -10 -20 0
-53 -5 -73 -10 -29 -8 -44 -7 -75 7 -21 9 -42 16 -46 15 -5 -1 -8 2 -8 6 0 8
-7 9 -90 15 -30 2 -74 7 -97 11 -27 5 -43 4 -43 -2 0 -14 47 -28 107 -31 6 -1
15 -10 18 -21 4 -11 11 -18 16 -14 6 3 8 13 5 21 -3 8 -1 11 4 8 15 -9 12 -26
-7 -48 -10 -11 -12 -17 -5 -13 19 12 38 -5 20 -18 -8 -6 -18 -22 -22 -36 -4
-14 -4 -20 1 -14 4 7 44 15 89 18 72 5 83 4 104 -14 17 -15 26 -17 36 -9 11 9
15 7 20 -6 4 -10 14 -15 25 -12 23 6 33 -21 25 -66 l-6 -32 14 35 c12 30 15
32 22 16 7 -18 8 -18 15 2 15 39 31 25 25 -20 -3 -24 -3 -35 0 -25 3 9 10 15
15 12 5 -4 9 3 9 15 0 19 1 19 23 5 26 -17 37 -12 37 19 0 20 0 20 15 0 13
-17 14 -17 15 -1 0 15 18 23 45 17 5 -1 22 -3 38 -5 78 -10 85 -15 101 -63 9
-25 19 -84 23 -129 6 -85 14 -103 37 -84 7 6 17 7 21 3 5 -4 5 -2 2 4 -3 5 9
49 28 96 48 121 57 204 41 396 -4 49 0 57 27 53 11 -2 8 52 -4 69 -8 12 -9 9
-5 -12 5 -23 3 -28 -13 -28 -20 0 -37 32 -27 49 4 5 2 11 -3 13 -5 1 -22 25
-37 52 -29 49 -74 80 -74 51z m-627 -359 c-3 -4 -9 -2 -14 5 -13 22 -11 31 5
17 8 -7 12 -17 9 -22z m374 -128 c-3 -8 -6 -5 -6 6 -1 11 2 17 5 13 3 -3 4
-12 1 -19z"/>
<path d="M765 2090 c-4 -6 5 -10 19 -10 14 0 26 -4 26 -8 0 -5 14 -7 30 -4 25
3 28 7 19 18 -13 16 -85 19 -94 4z"/>
<path d="M568 2073 c-25 -12 -41 -56 -20 -51 4 0 15 -2 25 -6 24 -11 67 1 67
19 0 8 9 15 20 15 11 0 20 5 20 10 0 6 -7 10 -16 10 -8 0 -12 5 -9 10 9 15
-56 10 -87 -7z"/>
<path d="M750 2060 c0 -13 11 -13 30 0 12 8 11 10 -7 10 -13 0 -23 -4 -23 -10z"/>
<path d="M858 2059 c-8 -5 96 -29 125 -29 15 0 6 19 -10 23 -19 4 40 -1 97 -9
33 -5 34 -4 15 11 -15 12 -40 15 -118 13 -54 -2 -103 -6 -109 -9z"/>
<path d="M1735 2030 c-3 -5 -1 -10 4 -10 6 0 11 5 11 10 0 6 -2 10 -4 10 -3 0
-8 -4 -11 -10z"/>
<path d="M495 2020 c3 -5 14 -10 23 -10 15 0 15 2 2 10 -20 13 -33 13 -25 0z"/>
<path d="M1125 2005 c22 -8 51 -14 65 -14 23 0 22 1 -9 14 -18 8 -47 15 -65
14 -31 -1 -31 -1 9 -14z"/>
<path d="M466 1994 c-9 -24 -2 -26 12 -4 7 11 8 20 3 20 -5 0 -12 -7 -15 -16z"/>
<path d="M868 1997 c-34 -13 -35 -23 -5 -31 25 -7 87 -8 87 -2 0 2 2 11 5 19
3 7 0 14 -7 15 -7 0 -22 3 -33 5 -11 3 -32 0 -47 -6z"/>
<path d="M2425 1989 c-4 -6 -5 -12 -2 -15 2 -3 7 2 10 11 7 17 1 20 -8 4z"/>
<path d="M1663 1980 c-28 -11 -29 -26 -3 -40 15 -8 18 -8 14 3 -3 8 2 17 10
20 9 4 16 11 16 17 0 12 -7 12 -37 0z"/>
<path d="M2436 1954 c-4 -14 -5 -28 -3 -31 3 -2 8 8 11 23 4 14 5 28 3 31 -3
2 -8 -8 -11 -23z"/>
<path d="M1788 1963 c7 -3 16 -2 19 1 4 3 -2 6 -13 5 -11 0 -14 -3 -6 -6z"/>
<path d="M993 1943 c9 -2 25 -2 35 0 9 3 1 5 -18 5 -19 0 -27 -2 -17 -5z"/>
<path d="M2451 1924 c0 -11 3 -14 6 -6 3 7 2 16 -1 19 -3 4 -6 -2 -5 -13z"/>
<path d="M2470 1923 c0 -13 5 -23 10 -23 13 0 13 11 0 30 -8 12 -10 11 -10 -7z"/>
<path d="M831 1921 c-12 -8 -12 -14 2 -42 8 -18 13 -37 10 -42 -3 -4 4 -11 15
-14 12 -3 18 -11 15 -19 -3 -9 9 -15 46 -20 28 -4 51 -9 51 -13 0 -3 -18 -14
-40 -23 -33 -13 -40 -21 -40 -44 0 -15 -9 -35 -22 -45 -52 -46 30 -27 98 22
21 16 58 38 82 50 31 16 40 24 30 30 -7 5 -21 6 -30 4 -10 -3 -28 -8 -40 -11
-23 -6 -23 -6 1 15 24 21 78 30 66 11 -9 -15 4 -12 21 5 9 8 27 15 40 15 50 0
12 19 -63 31 -68 11 -74 14 -50 22 15 5 27 13 27 18 0 5 15 9 33 9 24 0 28 3
17 10 -8 5 -56 10 -106 10 -72 0 -93 3 -98 15 -6 17 -43 20 -65 6z"/>
<path d="M923 1919 c11 -7 23 -7 35 0 14 9 11 10 -18 10 -29 0 -32 -1 -17 -10z"/>
<path d="M1598 1918 c12 -12 133 -58 167 -63 87 -15 115 -17 115 -8 0 13 -58
25 -73 16 -6 -3 -7 -1 -3 5 5 8 0 11 -11 10 -37 -3 -54 2 -47 14 4 7 3 8 -5 4
-6 -4 -33 -1 -59 7 -75 24 -97 28 -84 15z"/>
<path d="M1200 1907 l-35 -11 39 -4 c52 -5 95 6 75 19 -18 11 -35 10 -79 -4z"/>
<path d="M2500 1912 c0 -5 7 -9 15 -9 8 0 15 4 15 9 0 4 -7 8 -15 8 -8 0 -15
-4 -15 -8z"/>
<path d="M2615 1900 c3 -5 8 -10 11 -10 2 0 4 5 4 10 0 6 -5 10 -11 10 -5 0
-7 -4 -4 -10z"/>
<path d="M314 1885 c3 -8 1 -15 -4 -15 -6 0 -10 -5 -10 -11 0 -5 5 -7 10 -4
14 9 12 -1 -6 -37 -13 -25 -14 -32 -2 -39 18 -12 24 -11 37 5 8 10 9 16 1 21
-7 4 -7 12 0 25 12 22 -3 70 -21 70 -6 0 -9 -7 -5 -15z"/>
<path d="M3090 1896 c0 -2 7 -17 15 -32 l15 -29 0 33 c0 22 -5 32 -15 32 -8 0
-15 -2 -15 -4z"/>
<path d="M1986 1879 c2 -3 -29 -5 -69 -3 -58 3 -66 2 -42 -6 30 -10 221 -17
230 -9 2 3 -24 9 -59 15 -36 5 -62 6 -60 3z"/>
<path d="M1745 1830 c3 -5 -1 -10 -7 -13 -7 -2 9 -8 35 -12 49 -8 68 -2 51 15
-12 12 -86 21 -79 10z"/>
<path d="M380 1821 c0 -6 4 -13 10 -16 6 -3 7 1 4 9 -7 18 -14 21 -14 7z"/>
<path d="M1525 1800 l-70 -6 65 -1 c36 0 79 3 95 7 26 7 27 8 5 7 -14 0 -56
-3 -95 -7z"/>
<path d="M1210 1761 c-48 -7 -80 -21 -99 -44 -14 -17 1 -15 149 27 78 23 82
24 40 24 -25 0 -65 -4 -90 -7z"/>
<path d="M1343 1729 c-23 -6 -47 -17 -55 -26 -12 -15 -9 -15 27 -9 22 4 58 16
80 26 34 15 36 18 15 18 -14 0 -44 -4 -67 -9z"/>
<path d="M347 1712 c-10 -10 -17 -22 -17 -26 0 -4 -7 -14 -15 -22 -16 -16 -10
-43 13 -60 12 -9 9 -16 -22 -39 -20 -15 -36 -36 -36 -46 0 -24 17 -25 24 -1 4
10 31 44 60 75 45 47 51 57 34 57 -18 0 -20 4 -14 40 7 44 -2 50 -27 22z"/>
<path d="M1588 1723 c7 -3 16 -2 19 1 4 3 -2 6 -13 5 -11 0 -14 -3 -6 -6z"/>
<path d="M669 1691 c-13 -11 -21 -23 -16 -27 10 -10 57 16 57 33 0 18 -14 16
-41 -6z"/>
<path d="M1480 1668 c-83 -29 -145 -68 -108 -68 11 0 16 -7 15 -20 -1 -15 -27
-33 -100 -70 -55 -28 -104 -50 -110 -50 -5 0 5 14 23 31 l33 32 -61 -5 -61 -4
31 28 c17 15 42 28 54 28 17 0 70 35 113 76 9 8 -144 -6 -224 -21 -44 -8 -97
-17 -118 -20 -28 -5 -53 -21 -100 -65 -46 -44 -57 -59 -43 -60 11 0 27 6 35
14 9 8 43 21 76 29 33 8 68 18 78 22 17 7 18 6 6 -13 -10 -16 -20 -19 -41 -15
-16 3 -28 1 -28 -5 0 -5 8 -8 19 -5 37 10 31 -16 -11 -45 -52 -36 -94 -82 -74
-82 7 0 33 14 57 32 40 29 115 50 89 24 -18 -18 -11 -21 43 -24 42 -2 59 2 80
18 32 25 36 18 7 -12 -35 -38 -24 -46 40 -28 19 5 50 25 68 44 18 19 39 33 46
30 7 -3 35 16 62 41 27 26 66 59 86 75 21 15 35 30 32 33 -3 3 10 10 29 16 26
9 36 19 40 39 3 15 5 28 4 28 -1 1 -40 -12 -87 -28z"/>
<path d="M1030 1683 c-14 -6 -57 -43 -49 -43 2 0 26 11 53 25 42 21 40 35 -4
18z"/>
<path d="M1600 1627 c-14 -6 -27 -14 -30 -17 -3 -3 -29 -21 -59 -40 -45 -28
-50 -35 -35 -41 17 -5 14 -12 -26 -52 -25 -25 -44 -51 -41 -58 2 -7 -1 -9 -9
-4 -9 5 -11 4 -6 -4 4 -6 2 -19 -5 -27 -18 -21 -2 -30 19 -10 11 9 25 14 33
11 8 -3 22 7 34 25 11 16 23 30 27 30 4 0 5 6 2 14 -3 8 -1 17 5 21 6 3 11 13
11 21 0 14 -2 13 -16 0 -8 -9 -20 -16 -25 -16 -17 0 1 19 32 35 16 9 29 21 29
28 0 7 15 21 33 31 94 51 98 54 81 60 -20 8 -24 7 -54 -7z"/>
<path d="M767 1603 c-34 -9 -99 -51 -88 -57 18 -11 58 5 87 35 15 16 26 28 23
28 -2 -1 -12 -3 -22 -6z"/>
<path d="M1613 1550 c-46 -26 -68 -50 -47 -50 7 0 104 72 104 77 0 5 -4 3 -57
-27z"/>
<path d="M1569 1468 c-62 -46 -89 -80 -70 -86 7 -2 6 -10 -4 -25 -19 -27 -19
-38 0 -31 8 4 15 11 15 16 0 6 27 46 60 89 32 43 58 79 57 79 -1 0 -27 -19
-58 -42z"/>
<path d="M630 1460 c-18 -5 -39 -15 -46 -24 -6 -9 -16 -16 -22 -16 -6 0 -14
-4 -17 -10 -3 -6 9 -9 32 -7 32 2 38 -1 41 -20 l3 -23 22 20 c12 11 38 26 59
32 20 6 35 15 32 19 -3 5 6 9 20 9 14 0 28 5 31 11 11 17 -3 23 -21 9 -13 -11
-17 -11 -24 0 -7 11 -11 11 -23 1 -10 -8 -17 -9 -22 -1 -7 11 -15 11 -65 0z"/>
<path d="M3102 1295 c20 -14 41 -25 45 -25 15 0 -52 49 -67 50 -8 0 2 -11 22
-25z"/>
<path d="M994 1238 c-77 -84 -124 -153 -124 -182 0 -18 5 -16 30 14 17 19 56
73 87 120 32 47 63 91 70 98 13 13 17 22 9 22 -2 0 -34 -33 -72 -72z"/>
<path d="M3000 1273 c0 -18 20 -66 25 -61 3 3 -1 20 -9 39 -9 19 -15 29 -16
22z"/>
<path d="M3152 1215 c15 -16 29 -27 31 -24 3 2 -10 15 -27 28 l-31 24 27 -28z"/>
<path d="M1088 1183 c-14 -16 -28 -37 -32 -47 -6 -19 -6 -19 11 -4 18 16 58
78 50 78 -2 0 -15 -12 -29 -27z"/>
<path d="M3313 1105 c17 -34 54 -71 63 -62 3 3 -13 25 -36 49 -37 39 -40 40
-27 13z"/>
<path d="M3206 1075 c34 -63 47 -78 32 -37 -7 18 -23 45 -36 60 -21 25 -21 23
4 -23z"/>
<path d="M3045 1020 c9 -30 44 -100 50 -100 8 0 -28 96 -42 110 -13 13 -14 12
-8 -10z"/>
<path d="M1211 957 c-11 -19 -21 -39 -21 -45 0 -6 -12 -25 -26 -42 -15 -17
-24 -34 -20 -37 3 -4 6 0 6 8 0 11 2 11 10 -1 6 -9 10 -11 10 -3 0 7 20 35 45
64 39 43 44 53 33 67 -7 10 -13 18 -14 20 -1 2 -11 -12 -23 -31z"/>
<path d="M1113 949 c4 -11 0 -16 -11 -15 -13 1 -17 -9 -19 -42 -2 -49 10 -47
32 5 11 26 12 39 4 52 -9 14 -10 14 -6 0z"/>
<path d="M1404 862 c-40 -60 -137 -242 -129 -242 12 0 92 86 113 121 20 32 61
141 62 162 0 19 -18 3 -46 -41z"/>
<path d="M2926 740 c4 -14 12 -38 20 -55 l13 -30 -6 30 c-3 17 -12 41 -20 55
l-14 25 7 -25z"/>
<path d="M1588 553 c-9 -16 -32 -76 -52 -135 -31 -90 -36 -119 -34 -175 l3
-68 24 50 c27 60 34 81 66 205 35 134 32 189 -7 123z"/>
<path d="M1805 468 c-9 -32 -18 -90 -21 -128 -4 -63 -3 -69 12 -63 12 4 15 3
10 -5 -4 -7 -5 -12 -2 -12 13 0 36 78 46 153 14 111 13 116 -9 114 -15 -1 -24
-15 -36 -59z"/>
<path d="M1711 373 c-1 -6 -4 -20 -7 -30 -5 -17 -5 -17 6 0 6 10 9 23 6 30 -3
9 -5 9 -5 0z"/>
<path d="M1692 285 c0 -16 2 -22 5 -12 2 9 2 23 0 30 -3 6 -5 -1 -5 -18z"/>
</g>
</svg>
