<svg id="Layer_1" data-name="Layer 1" xmlns="http://www.w3.org/2000/svg" viewBox="0 0 134.21 135.65">
    <path d="M420.18,2494.42a22.32,22.32,0,0,0-9-9.21,6.69,6.69,0,0,0-8.14,1.47l-14.23,15.46L384,2497.3a10.76,10.76,0,0,0-15.21,0l-2.95,2.95a11.27,11.27,0,0,0,0,15.91l22.8,22.79a11.24,11.24,0,0,0,7.95,3.3h0a11.23,11.23,0,0,0,7.93-3.3l3-2.95a10.76,10.76,0,0,0,0-15.2l-4-4,15.17-14A6.74,6.74,0,0,0,420.18,2494.42Zm-40.68,7.35,23.49,23.5a4.45,4.45,0,0,1,0,6.27l-2.95,2.94a4.93,4.93,0,0,1-7,0l-22.79-22.79a4.94,4.94,0,0,1,0-7l3-2.95a4.36,4.36,0,0,1,3.12-1.3h0A4.4,4.4,0,0,1,379.5,2501.77Zm13.77,4.83,14.46-15.7a.46.46,0,0,1,.49-.11,16.07,16.07,0,0,1,6.41,6.67.42.42,0,0,1-.13.53L399,2512.3Z" transform="translate(-286.79 -2452.44)" style="fill:#293b6e"/>
    <path d="M380.21,2578.61a3.17,3.17,0,0,1-3.16,3.16H296.26a3.18,3.18,0,0,1-3.15-3.18V2461.92a3.17,3.17,0,0,1,3.16-3.16h80.78a3.16,3.16,0,0,1,3.16,3.16v29.78h6.32v-29.78a9.49,9.49,0,0,0-9.48-9.48H296.27a9.5,9.5,0,0,0-9.48,9.5v116.67a9.51,9.51,0,0,0,9.48,9.48h80.79a9.49,9.49,0,0,0,9.47-9.5v-28.65h-6.32Z" transform="translate(-286.79 -2452.44)" style="fill:#293b6e"/>
    <rect x="43.67" y="16.52" width="38.6" height="6.32" style="fill:#293b6e"/>
    <rect x="16.33" y="30.19" width="65.94" height="6.32" style="fill:#293b6e"/>
    <rect x="16.33" y="42.73" width="55.97" height="6.32" style="fill:#293b6e"/>
    <rect x="16.33" y="54.69" width="55.97" height="6.32" style="fill:#293b6e"/>
    <rect x="16.33" y="102.25" width="19.8" height="6.32" style="fill:#293b6e"/>
    <rect x="368.25" y="2518.87" width="6.32" height="28.39" transform="translate(-1969.33 -1447.66) rotate(-45.01)" style="fill:#cc2034"/>
    <path d="M349.64,2535.61a20,20,0,0,0,0,40h0a20,20,0,1,0,0-40Zm0,34.75a14.75,14.75,0,0,1-.34-29.49h.34a14.75,14.75,0,1,1,0,29.49Z" transform="translate(-286.79 -2452.44)" style="fill:#cc2034"/>
    <polygon points="71.29 96.51 61.4 106.39 55.36 100.35 51.65 104.07 61.4 113.83 75.01 100.22 71.29 96.51" style="fill:#cc2034"/>
</svg>