<svg width="86" height="88" viewBox="0 0 86 88" fill="none" xmlns="http://www.w3.org/2000/svg">
<path d="M28.8906 15.2374H45.9294C46.6684 15.2374 47.2731 14.6412 47.2731 13.9124C47.2731 13.1837 46.6684 12.5874 45.9294 12.5874H28.8906C28.1516 12.5874 27.5469 13.1837 27.5469 13.9124C27.5469 14.6412 28.1516 15.2374 28.8906 15.2374Z" fill="#CC2034"/>
<path d="M28.8906 20.2062H45.9294C46.6684 20.2062 47.2731 19.6099 47.2731 18.8812C47.2731 18.1524 46.6684 17.5562 45.9294 17.5562H28.8906C28.1516 17.5562 27.5469 18.1524 27.5469 18.8812C27.5469 19.6099 28.1516 20.2062 28.8906 20.2062Z" fill="#CC2034"/>
<path d="M28.8906 25.1749H57.0153C57.7544 25.1749 58.3591 24.5787 58.3591 23.8499C58.3591 23.1212 57.7544 22.5249 57.0153 22.5249H28.8906C28.1516 22.5249 27.5469 23.1212 27.5469 23.8499C27.5469 24.5787 28.1516 25.1749 28.8906 25.1749Z" fill="#CC2034"/>
<path d="M28.8906 30.1437H57.0153C57.7544 30.1437 58.3591 29.5474 58.3591 28.8187C58.3591 28.0899 57.7544 27.4937 57.0153 27.4937H28.8906C28.1516 27.4937 27.5469 28.0899 27.5469 28.8187C27.5469 29.5474 28.1516 30.1437 28.8906 30.1437Z" fill="#CC2034"/>
<path d="M78.8915 45.5668L63.4921 30.3823V18.8813C63.4921 18.7091 63.4518 18.5368 63.3846 18.3778C63.3175 18.2188 63.2234 18.0731 63.089 17.9406L52.0031 7.00932C51.8821 6.89007 51.7343 6.78407 51.5596 6.71782C51.3984 6.65157 51.2237 6.61182 51.049 6.61182H25.8537C23.9993 6.61182 22.4943 8.09582 22.4943 9.92432V30.3691L7.09495 45.5536C6.57089 46.0703 6.57089 46.9051 7.09495 47.4218L13.8809 54.1131C14.1496 54.3781 14.4856 54.4973 14.835 54.4973C15.1843 54.4973 15.5203 54.3648 15.789 54.1131L16.9043 53.0133L20.3981 56.4583V61.3211C20.3981 61.3211 20.425 61.4271 20.4384 61.4933C19.8875 62.1691 19.565 62.9906 19.565 63.8651C19.565 64.8721 19.9681 65.8261 20.6803 66.5283C21.3521 67.1908 22.2121 67.5353 23.099 67.6016C23.1662 68.5026 23.5425 69.3373 24.1875 69.9866C24.8459 70.6358 25.6924 70.9936 26.6062 71.0598C26.6734 71.9343 27.0228 72.7823 27.6946 73.4448C28.3531 74.0941 29.1996 74.4518 30.1134 74.5181C30.1806 75.3926 30.5299 76.2406 31.2018 76.9031C31.9274 77.6186 32.8815 78.0028 33.9028 78.0028C34.924 78.0028 35.8915 77.6053 36.6037 76.9031L38.8612 74.6771L41.1187 76.9031C41.8443 77.6186 42.7984 78.0161 43.8196 78.0161C44.8409 78.0161 45.7949 77.6186 46.5206 76.9031C47.179 76.2538 47.5418 75.4191 47.609 74.5181C48.5228 74.4518 49.3828 74.0808 50.0278 73.4316C50.6862 72.7823 51.049 71.9476 51.1296 71.0466C52.0434 70.9803 52.9034 70.6093 53.5484 69.9601C54.2203 69.2976 54.5696 68.4496 54.6368 67.5751C55.5506 67.5088 56.4106 67.1378 57.0556 66.4886C57.7812 65.7731 58.1843 64.8323 58.1843 63.8253C58.1843 63.7723 58.1709 63.7193 58.1709 63.6663L69.0553 52.9868L70.1706 54.0866C70.4393 54.3516 70.7753 54.4708 71.1246 54.4708C71.474 54.4708 71.81 54.3383 72.0787 54.0866L78.8646 47.3953C79.3887 46.8786 79.3887 46.0438 78.8646 45.5271L78.8915 45.5668ZM52.4062 11.1566L58.91 17.5696H52.4062V11.1566ZM25.8671 9.28832H49.7187V18.8946C49.7187 19.6233 50.3234 20.2196 51.0625 20.2196H60.8046V29.1368C60.6971 29.1898 60.5896 29.2428 60.509 29.3356L53.7231 36.0268C53.199 36.5436 53.199 37.3783 53.7231 37.8951L55.5237 39.6706L50.3503 44.7718L46.9237 42.6386C46.7087 42.5061 46.4534 42.4266 46.1981 42.4266H36.5634L33.4593 41.2606L31.1481 38.9816L32.2634 37.8818C32.7875 37.3651 32.7875 36.5303 32.2634 36.0136L25.4774 29.3223C25.3834 29.2296 25.2893 29.1898 25.1818 29.1236V9.93757C25.1818 9.56657 25.4775 9.27507 25.8537 9.27507L25.8671 9.28832ZM14.8484 51.3306L9.95714 46.5076L24.5368 32.1313L29.4281 36.9543L14.8484 51.3306ZM22.2524 63.8783C22.2524 63.5736 22.3734 63.2953 22.5884 63.0833L24.8996 60.8043C25.1146 60.5923 25.3968 60.4731 25.7059 60.4731C26.0149 60.4731 26.2971 60.5923 26.5121 60.8043C26.7271 61.0163 26.8481 61.2946 26.8481 61.5993C26.8481 61.9041 26.7271 62.1823 26.5121 62.3943L24.2009 64.6733C23.7575 65.1106 23.0318 65.1106 22.5884 64.6733C22.3734 64.4613 22.2524 64.1831 22.2524 63.8783ZM25.7596 67.3366C25.7596 67.0318 25.8806 66.7536 26.0956 66.5416L28.4068 64.2626C28.6218 64.0506 28.904 63.9313 29.2131 63.9313C29.5221 63.9313 29.8043 64.0506 30.0193 64.2626C30.2343 64.4746 30.3553 64.7528 30.3553 65.0576C30.3553 65.3623 30.2343 65.6406 30.0193 65.8526L27.7081 68.1316C27.2781 68.5556 26.5256 68.5556 26.0956 68.1316C25.8806 67.9196 25.7596 67.6413 25.7596 67.3366ZM29.6028 69.9998L31.914 67.7208C32.344 67.2968 33.0965 67.2968 33.5265 67.7208C33.7415 67.9328 33.8625 68.2111 33.8625 68.5158C33.8625 68.8206 33.7415 69.0988 33.5265 69.3108L31.2153 71.5898C30.7853 72.0138 30.0328 72.0138 29.6028 71.5898C29.1593 71.1526 29.1593 70.4371 29.6028 69.9998ZM37.0337 72.7691L34.7225 75.0481C34.2924 75.4721 33.5399 75.4721 33.1099 75.0481C32.6665 74.6108 32.6665 73.8953 33.1099 73.4581L35.4212 71.1791C35.8646 70.7418 36.5903 70.7418 37.0337 71.1791C37.4771 71.6163 37.4771 72.3318 37.0337 72.7691ZM55.1743 64.6733C54.9593 64.8853 54.6906 64.9913 54.3815 65.0046C54.0725 65.0046 53.7903 64.8853 53.5753 64.6733L51.2775 62.4076L49.6918 60.8441C49.1678 60.3273 48.3212 60.3273 47.7971 60.8441C47.2731 61.3608 47.2731 62.1956 47.7971 62.7123L51.694 66.5548C52.1509 67.0053 52.1509 67.6943 51.694 68.1448C51.479 68.3568 51.2103 68.4628 50.9012 68.4761C50.5921 68.4761 50.31 68.3568 50.095 68.1448L47.7971 65.8791L46.2115 64.3156C45.6875 63.7988 44.8409 63.7988 44.3168 64.3156C43.7928 64.8323 43.7928 65.6671 44.3168 66.1838L45.9025 67.7473L48.2003 70.0131C48.4153 70.2251 48.5362 70.5033 48.5362 70.8081C48.5362 71.1128 48.4153 71.3911 48.1868 71.6031C47.9718 71.8151 47.7031 71.9211 47.394 71.9343C47.0849 71.9343 46.8028 71.8151 46.5878 71.6031L45.4321 70.4636L42.6909 67.7606C42.1668 67.2438 41.3203 67.2438 40.7962 67.7606C40.2721 68.2773 40.2721 69.1121 40.7962 69.6288L43.5375 72.3318L44.6931 73.4713C44.9081 73.6833 45.029 73.9616 45.029 74.2663C45.029 74.5711 44.9081 74.8493 44.6931 75.0613C44.2631 75.4853 43.5106 75.4853 43.0806 75.0613L40.0706 72.1066C40.0975 71.0996 39.7346 70.0926 38.9553 69.3373C38.3103 68.7013 37.4368 68.3568 36.5365 68.2906C36.4693 67.3763 36.1065 66.5283 35.4346 65.8658C34.7896 65.2298 33.9162 64.8853 33.0159 64.8191C32.9487 63.9048 32.5859 63.0568 31.914 62.3943C31.269 61.7583 30.3956 61.4138 29.4953 61.3476C29.4281 60.4333 29.0653 59.5853 28.4068 58.9228C26.9959 57.5316 24.5503 57.5051 23.099 58.8433V55.9151C23.099 55.5573 22.9512 55.2261 22.7093 54.9743L18.8259 51.1451L29.2668 40.8498L31.7796 43.3276C31.914 43.4601 32.0753 43.5661 32.25 43.6323L33.2846 44.0166L31.0809 46.1896C29.3878 47.8591 29.3878 50.5886 31.0809 52.2581C31.9274 53.0928 33.0428 53.5168 34.1581 53.5168C35.2734 53.5168 36.3887 53.0928 37.2353 52.2581L39.0493 50.4693H41.7368C41.804 50.5886 41.8846 50.7211 41.9921 50.8138L54.0456 61.9173L55.2012 63.0568C55.4162 63.2688 55.5371 63.5471 55.5371 63.8518C55.5371 64.1566 55.4162 64.4348 55.1878 64.6468L55.1743 64.6733ZM57.0018 61.1356L45.4456 50.4163C45.9965 50.2441 46.3996 49.7671 46.3996 49.1708C46.3996 48.4421 45.7949 47.8458 45.0559 47.8458H38.4984C38.1356 47.8458 37.7996 47.9916 37.5443 48.2301L35.3406 50.4031C34.6956 51.0391 33.634 51.0391 32.989 50.4031C32.344 49.7671 32.344 48.7203 32.989 48.0843L36.0259 45.0898H36.335H45.8218L49.8262 47.5941C50.3637 47.9253 51.049 47.8458 51.4925 47.4086L57.4318 41.5521L67.1875 51.1716L57.0153 61.1488L57.0018 61.1356ZM71.1515 51.3306L56.5718 36.9543L61.4631 32.1313L76.0428 46.5076L71.1515 51.3306Z" fill="#293B6E"/>
</svg>
