<svg width="36" height="66" viewBox="0 0 36 66" fill="none" xmlns="http://www.w3.org/2000/svg">
<path d="M27 55H9V62.7H27V55ZM24.75 60.5H11.25V57.2H24.75V60.5Z" fill="#CC2034"/>
<path d="M28.125 48.4H24.75V45.1C24.75 44.5165 24.5129 43.9569 24.091 43.5444C23.669 43.1318 23.0967 42.9 22.5 42.9H21.375V35.8413C21.5069 35.7411 21.6269 35.6267 21.7327 35.5003C21.9461 35.2489 22.0995 34.9542 22.1818 34.6376C22.2641 34.321 22.2733 33.9904 22.2086 33.6699L21.9375 32.3686C25.0118 31.3696 27.5588 29.2247 29.025 26.4H31.5C32.382 26.4002 33.2291 26.0628 33.8598 25.46C34.4906 24.8573 34.855 24.037 34.875 23.1748L35.9921 14.4364L36 14.3C36 13.4248 35.6444 12.5854 35.0115 11.9665C34.3785 11.3477 33.5201 11 32.625 11H30.375V8.8H34.875V0H1.125V8.8H5.625V11H3.375C2.47989 11 1.62145 11.3477 0.988514 11.9665C0.355579 12.5854 0 13.4248 0 14.3L1.125 23.1748C1.14499 24.037 1.50938 24.8573 2.14016 25.46C2.77094 26.0628 3.61799 26.4002 4.5 26.4H7.00763C8.47699 29.207 11.0079 31.343 14.0625 32.3543L13.7914 33.6743C13.7267 33.9948 13.7359 34.3254 13.8182 34.642C13.9005 34.9586 14.0539 35.2533 14.2672 35.5047C14.3731 35.6311 14.4931 35.7455 14.625 35.8457V42.9H13.5C12.9033 42.9 12.331 43.1318 11.909 43.5444C11.4871 43.9569 11.25 44.5165 11.25 45.1V48.4H7.875C6.97989 48.4 6.12145 48.7477 5.48851 49.3666C4.85558 49.9854 4.5 50.8248 4.5 51.7H0V66H36V51.7H31.5C31.5 50.8248 31.1444 49.9854 30.5115 49.3666C29.8785 48.7477 29.0201 48.4 28.125 48.4ZM20.0025 34.1H15.9986L16.2495 32.879C16.2934 32.879 16.3361 32.879 16.38 32.8878C17.4544 33.0403 18.5456 33.0403 19.62 32.8878C19.6627 32.8823 19.7066 32.8878 19.7505 32.879L20.0025 34.1ZM32.625 13.2C32.9135 13.1996 33.1911 13.3076 33.4005 13.5017C33.6099 13.6958 33.735 13.9611 33.75 14.2428L32.6351 22.9636L32.625 23.1C32.625 23.3917 32.5065 23.6715 32.2955 23.8778C32.0845 24.0841 31.7984 24.2 31.5 24.2H29.907C29.907 24.1901 29.907 24.1791 29.9137 24.1681C30.0515 23.6834 30.1579 23.1908 30.2321 22.693C30.2468 22.5984 30.2569 22.5027 30.2692 22.4081C30.3363 21.908 30.3716 21.4044 30.375 20.9V13.2H32.625ZM3.375 6.6V2.2H32.625V6.6H3.375ZM4.5 24.2C4.20163 24.2 3.91548 24.0841 3.7045 23.8778C3.49353 23.6715 3.375 23.3917 3.375 23.1L2.25 14.2428C2.265 13.9611 2.39012 13.6958 2.59949 13.5017C2.80887 13.3076 3.0865 13.1996 3.375 13.2H5.625V20.9C5.62844 21.404 5.66376 21.9073 5.73075 22.407C5.74875 22.5533 5.77575 22.6963 5.8005 22.8415C5.86125 23.2089 5.93888 23.5708 6.0345 23.9294C6.05813 24.0185 6.06713 24.1109 6.093 24.2H4.5ZM8.72325 24.8545C8.16009 23.6091 7.87108 22.2617 7.875 20.9V8.8H28.125V20.9C28.125 21.2201 28.1059 21.5358 28.0755 21.8504C28.0665 21.9439 28.0507 22.0363 28.0395 22.1298C28.0103 22.3575 27.9765 22.5852 27.927 22.8107C27.9101 22.8954 27.891 22.9801 27.8719 23.0648C27.81 23.3299 27.7414 23.5928 27.6581 23.8524C27.6491 23.8788 27.6413 23.9063 27.6334 23.9327C27.5294 24.2457 27.4092 24.5534 27.2734 24.8545L27.1114 25.2131C26.1067 27.2463 24.4203 28.8819 22.3328 29.8477C20.2453 30.8135 17.8825 31.0514 15.6375 30.5217H15.6206C14.1027 30.161 12.6905 29.4624 11.4941 28.4804C10.2977 27.4983 9.34941 26.2593 8.72325 24.86V24.8545ZM16.875 36.3H19.125V42.9H16.875V36.3ZM13.5 45.1H22.5V48.4H13.5V45.1ZM7.875 50.6H28.125C28.4234 50.6 28.7095 50.7159 28.9205 50.9222C29.1315 51.1285 29.25 51.4083 29.25 51.7H6.75C6.75 51.4083 6.86853 51.1285 7.0795 50.9222C7.29048 50.7159 7.57663 50.6 7.875 50.6ZM33.75 53.9V63.8H2.25V53.9H33.75Z" fill="#293B6E"/>
</svg>
