<svg width="57" height="68" viewBox="0 0 57 68" fill="none" xmlns="http://www.w3.org/2000/svg">
<path d="M19.1463 23.9204H6.52539C6.28607 23.9204 6.05656 24.0103 5.88734 24.1703C5.71811 24.3303 5.62305 24.5473 5.62305 24.7735C5.62305 24.9998 5.71811 25.2168 5.88734 25.3768C6.05656 25.5368 6.28607 25.6267 6.52539 25.6267H19.1457C19.385 25.6267 19.6145 25.5368 19.7838 25.3768C19.953 25.2168 20.0481 24.9998 20.0481 24.7735C20.0481 24.5473 19.953 24.3303 19.7838 24.1703C19.6145 24.0103 19.385 23.9204 19.1457 23.9204H19.1463Z" fill="#293B6E"/>
<path d="M19.1463 30.188H6.52539C6.28607 30.188 6.05656 30.2779 5.88734 30.4379C5.71811 30.5979 5.62305 30.8149 5.62305 31.0411C5.62305 31.2674 5.71811 31.4844 5.88734 31.6444C6.05656 31.8044 6.28607 31.8942 6.52539 31.8942H19.1457C19.385 31.8942 19.6146 31.8044 19.7838 31.6444C19.953 31.4844 20.0481 31.2674 20.0481 31.0411C20.0481 30.8149 19.953 30.5979 19.7838 30.4379C19.6146 30.2779 19.385 30.188 19.1457 30.188H19.1463Z" fill="#293B6E"/>
<path d="M19.1463 36.4556H6.52539C6.28607 36.4556 6.05656 36.5454 5.88734 36.7054C5.71811 36.8654 5.62305 37.0824 5.62305 37.3087C5.62305 37.535 5.71811 37.752 5.88734 37.9119C6.05656 38.0719 6.28607 38.1618 6.52539 38.1618H19.1457C19.385 38.1618 19.6146 38.0719 19.7838 37.9119C19.953 37.752 20.0481 37.535 20.0481 37.3087C20.0481 37.0824 19.953 36.8654 19.7838 36.7054C19.6146 36.5454 19.385 36.4556 19.1457 36.4556H19.1463Z" fill="#CC2034"/>
<path d="M19.1463 42.7231H6.52539C6.28607 42.7231 6.05656 42.813 5.88734 42.973C5.71811 43.133 5.62305 43.35 5.62305 43.5763C5.62305 43.8025 5.71811 44.0195 5.88734 44.1795C6.05656 44.3395 6.28607 44.4294 6.52539 44.4294H19.1457C19.385 44.4294 19.6146 44.3395 19.7838 44.1795C19.953 44.0195 20.0481 43.8025 20.0481 43.5763C20.0481 43.35 19.953 43.133 19.7838 42.973C19.6146 42.813 19.385 42.7231 19.1457 42.7231H19.1463Z" fill="#293B6E"/>
<path d="M19.1463 48.9912H6.52539C6.28607 48.9912 6.05656 49.0811 5.88734 49.2411C5.71811 49.4011 5.62305 49.6181 5.62305 49.8443C5.62305 50.0706 5.71811 50.2876 5.88734 50.4476C6.05656 50.6076 6.28607 50.6975 6.52539 50.6975H19.1457C19.385 50.6975 19.6146 50.6076 19.7838 50.4476C19.953 50.2876 20.0481 50.0706 20.0481 49.8443C20.0481 49.6181 19.953 49.4011 19.7838 49.2411C19.6146 49.0811 19.385 48.9912 19.1457 48.9912H19.1463Z" fill="#293B6E"/>
<path d="M28.7695 23.8586H36.9066C37.1459 23.8586 37.3754 23.7687 37.5446 23.6087C37.7138 23.4487 37.8089 23.2317 37.8089 23.0055C37.8089 22.7792 37.7138 22.5622 37.5446 22.4022C37.3754 22.2422 37.1459 22.1523 36.9066 22.1523H28.7695C28.5302 22.1523 28.3007 22.2422 28.1315 22.4022C27.9623 22.5622 27.8672 22.7792 27.8672 23.0055C27.8672 23.2317 27.9623 23.4487 28.1315 23.6087C28.3007 23.7687 28.5302 23.8586 28.7695 23.8586Z" fill="#293B6E"/>
<path d="M19.1463 17.6528H6.52539C6.28607 17.6528 6.05656 17.7427 5.88734 17.9027C5.71811 18.0627 5.62305 18.2797 5.62305 18.506C5.62305 18.7322 5.71811 18.9492 5.88734 19.1092C6.05656 19.2692 6.28607 19.3591 6.52539 19.3591H19.1457C19.385 19.3591 19.6146 19.2692 19.7838 19.1092C19.953 18.9492 20.0481 18.7322 20.0481 18.506C20.0481 18.2797 19.953 18.0627 19.7838 17.9027C19.6146 17.7427 19.385 17.6528 19.1457 17.6528H19.1463Z" fill="#293B6E"/>
<path d="M56.1697 40.2435C56.1685 40.2368 56.1679 40.2293 56.1665 40.2231C56.1613 40.1983 56.1545 40.1741 56.147 40.1501C56.147 40.1475 56.1458 40.1449 56.145 40.1425C56.1371 40.1181 56.1279 40.0942 56.1178 40.0706C56.1169 40.0684 56.1162 40.0662 56.1153 40.064C56.1055 40.0417 56.0942 40.02 56.0825 39.9986C56.0807 39.9954 56.0792 39.9918 56.0774 39.9885C56.0659 39.9685 56.0534 39.9491 56.0404 39.9301C56.0374 39.9258 56.0349 39.9211 56.0319 39.9169C56.0187 39.8982 56.0044 39.8806 55.9898 39.8631C55.9862 39.8587 55.9829 39.854 55.9791 39.8498C55.9602 39.828 55.9401 39.8071 55.919 39.7872L47.3759 31.7101C47.3548 31.6902 47.3327 31.6713 47.3099 31.6532C47.3051 31.6494 47.2998 31.6462 47.2948 31.6427C47.2765 31.6285 47.2581 31.6157 47.2389 31.6034C47.2333 31.6 47.2276 31.5972 47.222 31.5938C47.2026 31.5821 47.1833 31.5707 47.1631 31.5605C47.1586 31.5581 47.1538 31.5564 47.1491 31.5541C47.1276 31.5436 47.1057 31.5335 47.0832 31.5247C47.0798 31.5233 47.0763 31.5224 47.0729 31.5211C47.0491 31.512 47.025 31.5036 47.0002 31.4965C46.9966 31.4954 46.993 31.4948 46.9894 31.4938C46.9649 31.4871 46.9401 31.4809 46.9142 31.476C46.9067 31.4746 46.8992 31.4741 46.8915 31.4728C46.8701 31.4694 46.8486 31.4658 46.8267 31.4637C46.7967 31.4608 46.7666 31.4594 46.7364 31.4594H46.0349L42.1019 27.7409V16.7918C42.1019 16.5655 42.0068 16.3485 41.8376 16.1885C41.6683 16.0285 41.4388 15.9387 41.1995 15.9387H25.6732V11.462C25.6732 11.2358 25.5781 11.0188 25.4089 10.8588C25.2397 10.6988 25.0102 10.6089 24.7708 10.6089H22.3106V5.26947C22.3106 5.04321 22.2155 4.82621 22.0463 4.66622C21.8771 4.50623 21.6476 4.41634 21.4083 4.41634H14.4649V0.853125C14.4649 0.626862 14.3698 0.409867 14.2006 0.249875C14.0314 0.0898827 13.8018 0 13.5625 0C13.3232 0 13.0937 0.0898827 12.9245 0.249875C12.7553 0.409867 12.6602 0.626862 12.6602 0.853125V4.41634H4.26478C4.02546 4.41634 3.79595 4.50623 3.62672 4.66622C3.4575 4.82621 3.36243 5.04321 3.36243 5.26947V10.6089H0.902344C0.663027 10.6089 0.433512 10.6988 0.26429 10.8588C0.0950674 11.0188 0 11.2358 0 11.462V55.9323C0 56.1586 0.0950674 56.3756 0.26429 56.5355C0.433512 56.6955 0.663027 56.7854 0.902344 56.7854H20.5885V60.3006C20.5897 61.2053 20.9703 62.0726 21.647 62.7123C22.3236 63.3521 23.241 63.712 24.1979 63.7131H25.9732V64.3733C25.9744 65.278 26.355 66.1453 27.0316 66.7851C27.7083 67.4248 28.6257 67.7847 29.5826 67.7858H52.5754C53.5323 67.7847 54.4497 67.4248 55.1263 66.7851C55.8029 66.1453 56.1836 65.278 56.1847 64.3733V40.3912C56.1847 40.3627 56.1832 40.3342 56.1802 40.3059C56.178 40.2847 56.1742 40.2641 56.1697 40.2435ZM47.6406 34.3724L53.104 39.5381H49.1788C48.7708 39.5376 48.3797 39.3842 48.0912 39.1115C47.8027 38.8387 47.6405 38.4689 47.64 38.0832L47.6406 34.3724ZM42.2556 30.2994L43.4829 31.4597H42.2556V30.2994ZM40.2972 17.6448V27.3865H25.6732V17.6449L40.2972 17.6448ZM5.16712 6.12259H20.5059V10.6089H5.16712V6.12259ZM1.80469 55.0792V12.3151H23.8685V27.4012C22.9724 27.4799 22.1396 27.8718 21.5329 28.5003C20.9263 29.1288 20.5895 29.9487 20.5885 30.7995V55.0792H1.80469ZM24.1979 62.0071C23.7194 62.0066 23.2607 61.8266 22.9224 61.5067C22.5841 61.1869 22.3938 60.7532 22.3932 60.3009V30.7994C22.3938 30.347 22.5841 29.9134 22.9224 29.5935C23.2607 29.2736 23.7194 29.0937 24.1979 29.0931H40.4509V31.46H29.583C28.6261 31.4611 27.7087 31.821 27.0321 32.4607C26.3555 33.1004 25.9748 33.9678 25.9737 34.8725V62.0073L24.1979 62.0071ZM52.5754 66.0802H29.583C29.1046 66.0797 28.6459 65.8997 28.3076 65.5798C27.9693 65.26 27.7789 64.8263 27.7784 64.374V34.8725C27.7789 34.4201 27.9693 33.9865 28.3076 33.6666C28.6459 33.3467 29.1046 33.1668 29.583 33.1662H45.8359V38.0832C45.8369 38.9213 46.1895 39.7248 46.8163 40.3174C47.4431 40.91 48.2929 41.2434 49.1794 41.2443H54.38V64.374C54.3794 64.8263 54.1891 65.26 53.8508 65.5798C53.5125 65.8997 53.0538 66.0797 52.5754 66.0802Z" fill="#293B6E"/>
<path d="M35.9302 62.1938H31.084C30.8447 62.1938 30.6152 62.2837 30.4459 62.4437C30.2767 62.6037 30.1816 62.8207 30.1816 63.047C30.1816 63.2732 30.2767 63.4902 30.4459 63.6502C30.6152 63.8102 30.8447 63.9001 31.084 63.9001H35.9305C36.1698 63.9001 36.3993 63.8102 36.5685 63.6502C36.7377 63.4902 36.8328 63.2732 36.8328 63.047C36.8328 62.8207 36.7377 62.6037 36.5685 62.4437C36.3993 62.2837 36.1698 62.1938 35.9305 62.1938H35.9302Z" fill="#293B6E"/>
<path d="M40.6021 53.5519V53.3357C41.1512 53.1367 41.6093 52.7622 41.8967 52.2771C42.1842 51.7921 42.2829 51.2272 42.1756 50.6805C42.0684 50.1338 41.7621 49.6399 41.3098 49.2846C40.8575 48.9292 40.2878 48.7349 39.6997 48.7353C39.5586 48.7353 39.4207 48.6958 39.3034 48.6217C39.1861 48.5476 39.0946 48.4423 39.0406 48.3191C38.9866 48.1958 38.9725 48.0602 39 47.9294C39.0275 47.7986 39.0954 47.6784 39.1952 47.5841C39.295 47.4897 39.4221 47.4255 39.5605 47.3995C39.6988 47.3735 39.8423 47.3868 39.9726 47.4379C40.103 47.489 40.2144 47.5754 40.2927 47.6863C40.3711 47.7973 40.4129 47.9277 40.4129 48.0611C40.4129 48.2873 40.508 48.5043 40.6772 48.6643C40.8464 48.8243 41.0759 48.9142 41.3152 48.9142C41.5546 48.9142 41.7841 48.8243 41.9533 48.6643C42.1225 48.5043 42.2176 48.2873 42.2176 48.0611C42.2167 47.5801 42.062 47.1107 41.7736 46.7145C41.4853 46.3183 41.0769 46.0138 40.6021 45.8412V45.6949C40.6021 45.4687 40.507 45.2517 40.3378 45.0917C40.1686 44.9317 39.9391 44.8418 39.6997 44.8418C39.4604 44.8418 39.2309 44.9317 39.0617 45.0917C38.8925 45.2517 38.7974 45.4687 38.7974 45.6949V45.8417C38.2483 46.0406 37.7902 46.4152 37.5027 46.9002C37.2153 47.3852 37.1166 47.9502 37.2238 48.4968C37.3311 49.0435 37.6374 49.5374 38.0897 49.8927C38.542 50.2481 39.1117 50.4424 39.6997 50.442C39.8871 50.4434 40.0664 50.5145 40.1987 50.64C40.3311 50.7654 40.4059 50.9351 40.4069 51.1122C40.4079 51.2894 40.3351 51.4599 40.2042 51.5867C40.0734 51.7135 39.8949 51.7864 39.7076 51.7898C39.705 51.7898 39.7024 51.7898 39.6997 51.7898C39.697 51.7898 39.6946 51.7898 39.6921 51.7898C39.5044 51.7878 39.3251 51.716 39.1931 51.5899C39.061 51.4639 38.9869 51.2937 38.9866 51.1162C38.9866 50.89 38.8915 50.673 38.7223 50.513C38.5531 50.353 38.3236 50.2631 38.0842 50.2631C37.8449 50.2631 37.6154 50.353 37.4462 50.513C37.277 50.673 37.1819 50.89 37.1819 51.1162C37.1828 51.5972 37.3376 52.0666 37.6259 52.4628C37.9142 52.859 38.3226 53.1634 38.7974 53.3361V53.5523C38.7974 53.7786 38.8925 53.9956 39.0617 54.1556C39.2309 54.3156 39.4604 54.4055 39.6997 54.4055C39.9391 54.4055 40.1686 54.3156 40.3378 54.1556C40.507 53.9956 40.6021 53.7786 40.6021 53.5523V53.5519Z" fill="#CC2034"/>
<path d="M32.7074 51.7894C32.7049 51.7894 32.7023 51.7894 32.6997 51.7894C32.6972 51.7894 32.6946 51.7894 32.6919 51.7894C32.5043 51.7873 32.3251 51.7155 32.193 51.5895C32.061 51.4634 31.9868 51.2932 31.9866 51.1158C31.9866 50.8896 31.8915 50.6726 31.7223 50.5126C31.5531 50.3526 31.3236 50.2627 31.0842 50.2627C30.8449 50.2627 30.6154 50.3526 30.4462 50.5126C30.277 50.6726 30.1819 50.8896 30.1819 51.1158C30.1827 51.5968 30.3375 52.0662 30.6258 52.4624C30.9142 52.8586 31.3226 53.163 31.7974 53.3357V53.5519C31.7974 53.7782 31.8925 53.9952 32.0617 54.1552C32.2309 54.3152 32.4604 54.405 32.6997 54.405C32.9391 54.405 33.1686 54.3152 33.3378 54.1552C33.507 53.9952 33.6021 53.7782 33.6021 53.5519V53.3357C34.1512 53.1367 34.6093 52.7622 34.8967 52.2771C35.1842 51.7921 35.2829 51.2272 35.1756 50.6805C35.0684 50.1338 34.7621 49.6399 34.3098 49.2846C33.8575 48.9292 33.2878 48.7349 32.6997 48.7353C32.5586 48.7353 32.4207 48.6958 32.3034 48.6217C32.1861 48.5476 32.0946 48.4423 32.0406 48.3191C31.9866 48.1958 31.9725 48.0602 32 47.9294C32.0275 47.7986 32.0954 47.6784 32.1952 47.5841C32.295 47.4897 32.4221 47.4255 32.5605 47.3995C32.6988 47.3735 32.8423 47.3868 32.9726 47.4379C33.103 47.489 33.2144 47.5754 33.2927 47.6863C33.3711 47.7973 33.4129 47.9277 33.4129 48.0611C33.4129 48.2873 33.508 48.5043 33.6772 48.6643C33.8464 48.8243 34.0759 48.9142 34.3152 48.9142C34.5546 48.9142 34.7841 48.8243 34.9533 48.6643C35.1225 48.5043 35.2176 48.2873 35.2176 48.0611C35.2167 47.5801 35.0619 47.1107 34.7736 46.7145C34.4852 46.3183 34.0768 46.0139 33.6021 45.8412V45.6949C33.6021 45.4687 33.507 45.2517 33.3378 45.0917C33.1686 44.9317 32.9391 44.8418 32.6997 44.8418C32.4604 44.8418 32.2309 44.9317 32.0617 45.0917C31.8925 45.2517 31.7974 45.4687 31.7974 45.6949V45.8417C31.2483 46.0406 30.7902 46.4152 30.5027 46.9002C30.2153 47.3852 30.1166 47.9502 30.2238 48.4968C30.3311 49.0435 30.6374 49.5374 31.0897 49.8927C31.542 50.2481 32.1117 50.4424 32.6997 50.442C32.8871 50.4434 33.0664 50.5146 33.1987 50.64C33.331 50.7655 33.4058 50.9351 33.4068 51.1123C33.4078 51.2895 33.335 51.4599 33.2041 51.5867C33.0732 51.7135 32.8948 51.7864 32.7074 51.7898V51.7894Z" fill="#CC2034"/>
<path d="M46.7085 51.7894C46.7058 51.7894 46.7033 51.7894 46.7007 51.7894C46.6982 51.7894 46.6956 51.7894 46.6929 51.7894C46.5053 51.7873 46.326 51.7155 46.194 51.5895C46.062 51.4634 45.9878 51.2932 45.9876 51.1158C45.9876 50.8896 45.8925 50.6726 45.7233 50.5126C45.554 50.3526 45.3245 50.2627 45.0852 50.2627C44.8459 50.2627 44.6164 50.3526 44.4472 50.5126C44.2779 50.6726 44.1829 50.8896 44.1829 51.1158C44.1838 51.5967 44.3385 52.0662 44.6269 52.4624C44.9152 52.8586 45.3236 53.163 45.7984 53.3357V53.5519C45.7984 53.7782 45.8934 53.9952 46.0627 54.1552C46.2319 54.3152 46.4614 54.405 46.7007 54.405C46.94 54.405 47.1695 54.3152 47.3388 54.1552C47.508 53.9952 47.6031 53.7782 47.6031 53.5519V53.3357C48.1522 53.1367 48.6103 52.7622 48.8977 52.2771C49.1852 51.7921 49.2838 51.2272 49.1766 50.6805C49.0694 50.1338 48.763 49.6399 48.3107 49.2846C47.8584 48.9292 47.2888 48.7349 46.7007 48.7353C46.5596 48.7353 46.4217 48.6958 46.3044 48.6217C46.187 48.5476 46.0956 48.4423 46.0416 48.3191C45.9876 48.1958 45.9734 48.0602 46.001 47.9294C46.0285 47.7986 46.0964 47.6784 46.1962 47.5841C46.2959 47.4897 46.4231 47.4255 46.5614 47.3995C46.6998 47.3735 46.8433 47.3868 46.9736 47.4379C47.1039 47.489 47.2153 47.5754 47.2937 47.6863C47.3721 47.7973 47.4139 47.9277 47.4139 48.0611C47.4139 48.2873 47.5089 48.5043 47.6782 48.6643C47.8474 48.8243 48.0769 48.9142 48.3162 48.9142C48.5555 48.9142 48.785 48.8243 48.9543 48.6643C49.1235 48.5043 49.2186 48.2873 49.2186 48.0611C49.2177 47.5801 49.0629 47.1107 48.7746 46.7145C48.4862 46.3183 48.0778 46.0139 47.6031 45.8412V45.6949C47.6031 45.4687 47.508 45.2517 47.3388 45.0917C47.1695 44.9317 46.94 44.8418 46.7007 44.8418C46.4614 44.8418 46.2319 44.9317 46.0627 45.0917C45.8934 45.2517 45.7984 45.4687 45.7984 45.6949V45.8417C45.2492 46.0406 44.7912 46.4152 44.5037 46.9002C44.2163 47.3852 44.1176 47.9502 44.2248 48.4968C44.332 49.0435 44.6384 49.5374 45.0907 49.8927C45.543 50.2481 46.1126 50.4424 46.7007 50.442C46.8881 50.4434 47.0674 50.5145 47.1997 50.64C47.3321 50.7654 47.4069 50.9351 47.4079 51.1122C47.4089 51.2894 47.3361 51.4599 47.2052 51.5867C47.0743 51.7135 46.8959 51.7864 46.7085 51.7898V51.7894Z" fill="#CC2034"/>
<path d="M35.9302 56.0845H31.084C30.8447 56.0845 30.6152 56.1744 30.4459 56.3343C30.2767 56.4943 30.1816 56.7113 30.1816 56.9376C30.1816 57.1639 30.2767 57.3809 30.4459 57.5408C30.6152 57.7008 30.8447 57.7907 31.084 57.7907H35.9305C36.1698 57.7907 36.3993 57.7008 36.5685 57.5408C36.7377 57.3809 36.8328 57.1639 36.8328 56.9376C36.8328 56.7113 36.7377 56.4943 36.5685 56.3343C36.3993 56.1744 36.1698 56.0845 35.9305 56.0845H35.9302Z" fill="#293B6E"/>
<path d="M35.9302 59.1392H31.084C30.8447 59.1392 30.6152 59.229 30.4459 59.389C30.2767 59.549 30.1816 59.766 30.1816 59.9923C30.1816 60.2185 30.2767 60.4355 30.4459 60.5955C30.6152 60.7555 30.8447 60.8454 31.084 60.8454H35.9305C36.1698 60.8454 36.3993 60.7555 36.5685 60.5955C36.7377 60.4355 36.8328 60.2185 36.8328 59.9923C36.8328 59.766 36.7377 59.549 36.5685 59.389C36.3993 59.229 36.1698 59.1392 35.9305 59.1392H35.9302Z" fill="#293B6E"/>
<path d="M31.084 40.7854H42.3925C42.6318 40.7854 42.8613 40.6955 43.0305 40.5355C43.1997 40.3755 43.2948 40.1585 43.2948 39.9322C43.2948 39.706 43.1997 39.489 43.0305 39.329C42.8613 39.169 42.6318 39.0791 42.3925 39.0791H31.084C30.8447 39.0791 30.6152 39.169 30.4459 39.329C30.2767 39.489 30.1816 39.706 30.1816 39.9322C30.1816 40.1585 30.2767 40.3755 30.4459 40.5355C30.6152 40.6955 30.8447 40.7854 31.084 40.7854Z" fill="#293B6E"/>
<path d="M31.084 43.84H42.3925C42.6318 43.84 42.8613 43.7502 43.0305 43.5902C43.1997 43.4302 43.2948 43.2132 43.2948 42.9869C43.2948 42.7607 43.1997 42.5437 43.0305 42.3837C42.8613 42.2237 42.6318 42.1338 42.3925 42.1338H31.084C30.8447 42.1338 30.6152 42.2237 30.4459 42.3837C30.2767 42.5437 30.1816 42.7607 30.1816 42.9869C30.1816 43.2132 30.2767 43.4302 30.4459 43.5902C30.6152 43.7502 30.8447 43.84 31.084 43.84Z" fill="#293B6E"/>
<path d="M43.0955 60.2831C43.0117 60.2039 42.9122 60.141 42.8027 60.0982C42.6932 60.0553 42.5759 60.0332 42.4574 60.0332C42.3389 60.0332 42.2215 60.0553 42.112 60.0982C42.0025 60.141 41.9031 60.2039 41.8193 60.2831L41.315 60.76L40.8108 60.2831C40.6411 60.1253 40.4123 60.0372 40.1742 60.0382C39.9362 60.0391 39.7082 60.1289 39.5399 60.288C39.3715 60.4472 39.2766 60.6627 39.2756 60.8878C39.2746 61.1129 39.3677 61.3292 39.5347 61.4896L40.0391 61.9663L39.5347 62.4432C39.449 62.5221 39.3808 62.6162 39.3339 62.7202C39.2871 62.8241 39.2625 62.9358 39.2617 63.0488C39.2609 63.1619 39.2839 63.2739 39.3293 63.3784C39.3746 63.483 39.4415 63.578 39.526 63.6579C39.6106 63.7378 39.711 63.801 39.8216 63.8439C39.9322 63.8868 40.0507 63.9085 40.1702 63.9077C40.2898 63.9069 40.4079 63.8837 40.5179 63.8394C40.6278 63.7951 40.7274 63.7306 40.8108 63.6496L41.315 63.1728L41.8193 63.6496C41.9028 63.7298 42.0023 63.7937 42.1121 63.8375C42.2218 63.8812 42.3397 63.904 42.4588 63.9044C42.5779 63.9049 42.6959 63.8831 42.8061 63.8402C42.9162 63.7973 43.0163 63.7343 43.1006 63.6546C43.1848 63.575 43.2515 63.4804 43.2969 63.3763C43.3423 63.2721 43.3654 63.1606 43.3649 63.0479C43.3644 62.9353 43.3404 62.8239 43.2942 62.7201C43.2479 62.6163 43.1804 62.5222 43.0955 62.4432L42.5911 61.9663L43.0955 61.4896C43.2647 61.3296 43.3598 61.1126 43.3598 60.8864C43.3598 60.6601 43.2647 60.4431 43.0955 60.2831Z" fill="#293B6E"/>
<path d="M47.4042 60.2831C47.2349 60.1231 47.0054 60.0333 46.7661 60.0333C46.5268 60.0333 46.2973 60.1231 46.1281 60.2831L45.6238 60.7599L45.1196 60.2831C44.9504 60.1231 44.7208 60.0332 44.4815 60.0332C44.2422 60.0332 44.0127 60.1231 43.8434 60.283C43.6742 60.443 43.5791 60.66 43.5791 60.8863C43.5791 61.1126 43.6741 61.3296 43.8434 61.4896L44.3478 61.9663L43.8434 62.4432C43.6741 62.6032 43.5791 62.8202 43.5791 63.0465C43.5791 63.2728 43.6742 63.4898 43.8434 63.6498C44.0127 63.8097 44.2422 63.8996 44.4815 63.8996C44.7208 63.8996 44.9504 63.8097 45.1196 63.6497L45.6238 63.1729L46.1281 63.6497C46.2978 63.8075 46.5266 63.8956 46.7646 63.8947C47.0026 63.8938 47.2307 63.8039 47.399 63.6448C47.5673 63.4857 47.6623 63.2701 47.6633 63.045C47.6642 62.82 47.5711 62.6037 47.4042 62.4432L46.8999 61.9663L47.4042 61.4896C47.5734 61.3296 47.6684 61.1126 47.6684 60.8863C47.6684 60.6601 47.5734 60.4431 47.4042 60.2831Z" fill="#293B6E"/>
<path d="M51.7115 60.2831C51.6277 60.2039 51.5282 60.141 51.4188 60.0982C51.3093 60.0553 51.1919 60.0332 51.0734 60.0332C50.9549 60.0332 50.8375 60.0553 50.7281 60.0982C50.6186 60.141 50.5191 60.2039 50.4353 60.2831L49.931 60.7599L49.4268 60.2831C49.2571 60.1253 49.0283 60.0372 48.7903 60.0382C48.5522 60.0391 48.3242 60.1289 48.1559 60.288C47.9876 60.4472 47.8926 60.6627 47.8916 60.8878C47.8906 61.1129 47.9838 61.3292 48.1507 61.4896L48.655 61.9663L48.1507 62.4432C47.9838 62.6037 47.8906 62.82 47.8916 63.045C47.8926 63.2701 47.9876 63.4857 48.1559 63.6448C48.3242 63.8039 48.5522 63.8938 48.7903 63.8947C49.0283 63.8956 49.2571 63.8075 49.4268 63.6497L49.931 63.1729L50.4353 63.6497C50.6045 63.8097 50.834 63.8996 51.0734 63.8996C51.3127 63.8996 51.5422 63.8098 51.7114 63.6498C51.8807 63.4898 51.9758 63.2728 51.9758 63.0465C51.9758 62.8203 51.8807 62.6032 51.7115 62.4432L51.2071 61.9663L51.7115 61.4896C51.8807 61.3296 51.9758 61.1126 51.9758 60.8864C51.9758 60.6601 51.8807 60.4431 51.7115 60.2831Z" fill="#293B6E"/>
</svg>
