<svg width="58" height="56" viewBox="0 0 58 56" fill="none" xmlns="http://www.w3.org/2000/svg">
<path d="M23.5664 19.9205H24.4821C24.4821 19.3633 24.6042 18.8061 24.7874 18.3185H23.5664C22.5285 18.3185 21.6737 17.3434 21.6737 16.1593V3.76122C21.6737 2.57713 22.5285 1.602 23.5664 1.602H34.4337C35.4716 1.602 36.3263 2.57713 36.3263 3.76122V16.1593C36.3263 17.3434 35.4716 18.3185 34.4337 18.3185H33.2126C33.3958 18.8061 33.5179 19.3633 33.5179 19.9205H34.4337C36.2653 19.9205 37.7305 18.2489 37.7305 16.1593V3.76122C37.7305 1.67165 36.2653 0 34.4337 0H23.5664C21.7348 0 20.2695 1.67165 20.2695 3.76122V16.1593C20.2695 18.2489 21.7348 19.9205 23.5664 19.9205Z" fill="#293B6E"/>
<path d="M14.1642 0H3.29683C1.46526 0 0 1.67165 0 3.76122V16.1593C0 18.2489 1.46526 19.9205 3.29683 19.9205H14.1642C15.9957 19.9205 17.461 18.2489 17.461 16.1593V3.76122C17.3999 1.67165 15.9347 0 14.1642 0ZM16.0568 16.1593C16.0568 17.3434 15.202 18.3185 14.1642 18.3185H3.29683C2.25894 18.3185 1.4042 17.3434 1.4042 16.1593V3.76122C1.4042 2.57713 2.25894 1.602 3.29683 1.602H14.1642C15.202 1.602 16.0568 2.57713 16.0568 3.76122V16.1593Z" fill="#293B6E"/>
<path d="M54.7032 0H43.8359C42.0043 0 40.5391 1.67165 40.5391 3.76122V16.1593C40.5391 18.2489 42.0043 19.9205 43.8359 19.9205H54.7032C56.5348 19.9205 58 18.2489 58 16.1593V3.76122C58 1.67165 56.5348 0 54.7032 0ZM56.5958 16.1593C56.5958 17.3434 55.7411 18.3185 54.7032 18.3185H43.8359C42.798 18.3185 41.9433 17.3434 41.9433 16.1593V3.76122C41.9433 2.57713 42.798 1.602 43.8359 1.602H54.7032C55.7411 1.602 56.5958 2.57713 56.5958 3.76122V16.1593Z" fill="#293B6E"/>
<path d="M44.6903 30.2983C44.5071 30.2287 44.2629 30.2287 44.0798 30.2287C43.2861 30.2287 42.5534 30.5769 42.004 31.1341C41.5766 29.7411 40.4166 28.766 39.0735 28.766C38.8903 28.766 38.6461 28.766 38.4629 28.8356C37.8524 28.9749 37.364 29.2535 36.9366 29.7411C36.4482 28.4177 35.3493 27.5122 34.0061 27.5122C33.9451 27.5122 33.884 27.5122 33.823 27.5122C33.1514 27.5819 32.6019 27.7908 32.1135 28.2087V20.3381C32.1135 18.5967 31.0756 17.0644 29.6103 16.7161C29.4272 16.6465 29.183 16.6465 28.9998 16.6465C27.2903 16.6465 25.8861 18.2485 25.8861 20.2684V36.567L24.604 34.6168C24.1156 33.9202 23.5051 33.4327 22.8335 33.1541C22.5283 33.0844 22.223 33.0148 21.9177 33.0148C21.2462 33.0148 20.6356 33.2237 20.0862 33.6416C18.743 34.6864 18.2546 36.8456 19.0483 38.5173L24.4209 50.5671C25.9472 53.9104 28.8777 56 32.1745 56H38.6461C43.3471 56 47.1324 51.8905 47.3155 46.5969C47.3155 46.4576 47.3155 46.388 47.3155 46.2487V33.9202C47.2545 32.1789 46.1555 30.6466 44.6903 30.2983ZM45.8503 46.2487C45.8503 46.3183 45.8503 46.388 45.8503 46.5273C45.6671 50.985 42.4313 54.398 38.524 54.398H32.1135C29.3661 54.398 26.863 52.6567 25.5809 49.8706L20.2083 37.8208C19.7809 36.776 20.0251 35.5919 20.8188 34.965C21.1241 34.6864 21.4904 34.6168 21.9177 34.6168C22.1009 34.6168 22.2841 34.6168 22.4672 34.6864C22.8946 34.8257 23.2609 35.174 23.5051 35.5222L26.2525 39.7014C26.3746 39.9103 26.5577 39.98 26.6798 39.98C26.9851 39.98 27.2904 39.7014 27.2904 39.3531V20.1987C27.2904 19.0843 28.084 18.1788 29.0609 18.1788C29.183 18.1788 29.3051 18.1788 29.4272 18.2485C30.2819 18.4574 30.8314 19.3629 30.8314 20.3381V36.4974C30.8314 36.9849 31.1367 37.3332 31.564 37.3332C31.9914 37.3332 32.2966 36.9849 32.2966 36.4974V31.2734C32.2966 30.159 33.0293 29.1839 33.9451 29.1142C34.0061 29.1142 34.0061 29.1142 34.0672 29.1142C35.044 29.1142 35.8377 30.0197 35.8377 31.1341V37.3332C35.8377 37.8208 36.1429 38.169 36.5703 38.169C36.9977 38.169 37.3029 37.8208 37.3029 37.3332V32.4575C37.3029 31.4824 37.8524 30.5769 38.7071 30.368C38.8293 30.368 38.9514 30.2983 39.0735 30.2983C40.0503 30.2983 40.844 31.2038 40.844 32.3182V38.169C40.844 38.6566 41.1492 39.0048 41.5766 39.0048C42.004 39.0048 42.3092 38.6566 42.3092 38.169V33.7113C42.3092 32.5968 43.1029 31.6914 44.0798 31.6914C44.2019 31.6914 44.324 31.6914 44.4461 31.761C45.3008 31.97 45.8503 32.8754 45.8503 33.8506V46.2487Z" fill="#CC2034"/>
<path d="M33.4568 6.05954C33.2126 5.78093 32.7241 5.78093 32.4799 6.05954L27.5957 11.8407L25.4589 9.3332C25.2147 9.05459 24.7873 8.98494 24.4821 9.3332C24.2379 9.61181 24.1768 10.0994 24.4821 10.4476L27.1073 13.582C27.2294 13.7213 27.4126 13.7909 27.5957 13.7909C27.7789 13.7909 27.9621 13.7213 28.0842 13.582L33.4568 7.24363C33.762 6.82572 33.762 6.33815 33.4568 6.05954Z" fill="#CC2034"/>
</svg>
