<svg width="102" height="102" viewBox="0 0 102 102" fill="none" xmlns="http://www.w3.org/2000/svg">
<g id="Layer 12">
<path id="Vector" d="M51 0C40.9132 0 31.0528 2.9911 22.6659 8.59505C14.279 14.199 7.74223 22.1641 3.88217 31.4831C0.0220973 40.8022 -0.987872 51.0566 0.979973 60.9496C2.94782 70.8426 7.8051 79.93 14.9376 87.0624C22.0701 94.1949 31.1574 99.0522 41.0504 101.02C50.9434 102.988 61.1978 101.978 70.5169 98.1178C79.8359 94.2578 87.801 87.721 93.405 79.3341C99.0089 70.9472 102 61.0868 102 51C101.985 37.4786 96.6067 24.5154 87.0457 14.9543C77.4846 5.39326 64.5214 0.0151859 51 0ZM49.4063 92.3976V98.7726C42.0971 98.5406 34.9404 96.6229 28.4947 93.169L31.6822 87.6435C37.1571 90.5419 43.2157 92.1671 49.4063 92.3976ZM52.5938 92.3976C58.7838 92.1668 64.8418 90.5417 70.3163 87.6435L73.5038 93.169C67.0585 96.6227 59.9024 98.5404 52.5938 98.7726V92.3976ZM51 89.25C43.4349 89.25 36.0396 87.0067 29.7495 82.8037C23.4593 78.6007 18.5567 72.6269 15.6616 65.6376C12.7666 58.6484 12.0091 50.9576 13.485 43.5378C14.9609 36.118 18.6038 29.3025 23.9532 23.9532C29.3025 18.6038 36.118 14.9608 43.5378 13.485C50.9576 12.0091 58.6484 12.7666 65.6376 15.6616C72.6269 18.5567 78.6008 23.4593 82.8037 29.7494C87.0067 36.0396 89.25 43.4349 89.25 51C89.2382 61.1409 85.2045 70.8631 78.0338 78.0338C70.8631 85.2045 61.1409 89.2382 51 89.25ZM9.60236 49.4062H3.22737C3.45935 42.0971 5.37711 34.9404 8.83099 28.4946L14.3565 31.6821C11.4581 37.1571 9.83294 43.2157 9.60236 49.4062ZM9.60236 52.5937C9.83318 58.7837 11.4583 64.8418 14.3565 70.3162L8.83099 73.5037C5.37734 67.0584 3.45959 59.9023 3.22737 52.5937H9.60236ZM52.5938 9.60234V3.22734C59.9029 3.45933 67.0596 5.37708 73.5053 8.83097L70.3178 14.3565C64.8429 11.458 58.7843 9.83292 52.5938 9.60234ZM49.4063 9.60234C43.2163 9.83316 37.1582 11.4583 31.6838 14.3565L28.4963 8.83097C34.9416 5.37732 42.0977 3.45957 49.4063 3.22734V9.60234ZM92.3977 52.5937H98.7727C98.5407 59.9029 96.6229 67.0596 93.169 73.5053L87.6435 70.3178C90.542 64.8429 92.1671 58.7843 92.3977 52.5937ZM92.3977 49.4062C92.1668 43.2162 90.5417 37.1582 87.6435 31.6837L93.169 28.4962C96.6227 34.9415 98.5404 42.0976 98.7727 49.4062H92.3977ZM91.5673 25.7375L86.0434 28.925C82.7354 23.6933 78.3051 19.263 73.0734 15.955L76.2609 10.4311C82.4583 14.3059 87.6926 19.5401 91.5673 25.7375ZM25.7455 10.4375L28.933 15.9614C23.7013 19.2694 19.271 23.6997 15.963 28.9313L10.4391 25.7438C14.311 19.5456 19.5425 14.3098 25.7375 10.4327L25.7455 10.4375ZM10.4455 76.2673L15.9694 73.0798C19.2774 78.3114 23.7077 82.7417 28.9393 86.0497L25.7518 91.5737C19.5493 87.6991 14.3105 82.463 10.4327 76.2625L10.4455 76.2673ZM76.2753 91.5673L73.0878 86.0434C78.3194 82.7354 82.7497 78.305 86.0577 73.0734L91.5817 76.2609C87.7033 82.4597 82.4645 87.6941 76.2625 91.5673H76.2753Z" fill="#293B6E"/>
<g id="Group 60">
<path id="Vector_2" d="M55.5924 56.8151C57.7066 56.8155 59.7997 56.3944 61.7493 55.5764C63.6989 54.7585 65.4658 53.5601 66.9469 52.0514C68.428 50.5426 69.5934 48.7537 70.3751 46.7893C71.1568 44.8249 71.539 42.7244 71.4995 40.6106C71.3373 36.387 69.5342 32.3933 66.4736 29.4783C63.4129 26.5634 59.3361 24.9571 55.1097 25.0009H39.6853C38.5847 25.0009 37.5292 25.4381 36.751 26.2163C35.9728 26.9945 35.5356 28.05 35.5356 29.1506V48.5157H34.3004C33.3 48.5032 32.327 48.8426 31.5515 49.4747C30.7761 50.1068 30.2474 50.9914 30.058 51.9738C29.9574 52.5691 29.9879 53.1791 30.1473 53.7614C30.3068 54.3436 30.5913 54.8841 30.9812 55.3451C31.371 55.806 31.8567 56.1764 32.4045 56.4303C32.9522 56.6841 33.5487 56.8155 34.1524 56.8151H35.5356V59.5815H34.3004C33.3 59.569 32.327 59.9084 31.5515 60.5405C30.7761 61.1726 30.2474 62.0572 30.058 63.0396C29.9574 63.6349 29.9879 64.2449 30.1473 64.8272C30.3068 65.4094 30.5913 65.9499 30.9812 66.4109C31.371 66.8718 31.8567 67.2422 32.4045 67.4961C32.9522 67.75 33.5487 67.8813 34.1524 67.8809H35.5356V73.4138C35.5356 74.5144 35.9728 75.5699 36.751 76.3481C37.5292 77.1263 38.5847 77.5635 39.6853 77.5635C40.7859 77.5635 41.8413 77.1263 42.6196 76.3481C43.3978 75.5699 43.835 74.5144 43.835 73.4138V67.8809H51.9863C52.9867 67.8935 53.9597 67.554 54.7352 66.9219C55.5107 66.2898 56.0393 65.4052 56.2287 64.4228C56.3293 63.8276 56.2988 63.2175 56.1394 62.6353C55.98 62.053 55.6954 61.5125 55.3055 61.0516C54.9157 60.5906 54.43 60.2203 53.8823 59.9664C53.3346 59.7125 52.738 59.5811 52.1343 59.5815H43.835V56.8151H55.5924ZM42.4518 62.348H52.1343C52.3365 62.3479 52.5363 62.3922 52.7195 62.4776C52.9028 62.5631 53.0651 62.6877 53.195 62.8426C53.3249 62.9976 53.4192 63.1791 53.4714 63.3745C53.5235 63.5698 53.5322 63.7742 53.4968 63.9733C53.4149 64.3083 53.2199 64.6048 52.9447 64.8127C52.6695 65.0206 52.331 65.1272 51.9863 65.1144H42.4518C42.0849 65.1144 41.7331 65.2602 41.4737 65.5196C41.2143 65.779 41.0685 66.1308 41.0685 66.4977V73.4138C41.0685 73.7807 40.9228 74.1325 40.6634 74.3919C40.404 74.6513 40.0522 74.797 39.6853 74.797C39.3184 74.797 38.9666 74.6513 38.7072 74.3919C38.4478 74.1325 38.3021 73.7807 38.3021 73.4138V66.4977C38.3021 66.1308 38.1563 65.779 37.8969 65.5196C37.6375 65.2602 37.2857 65.1144 36.9188 65.1144H34.1524C33.9502 65.1145 33.7504 65.0703 33.5672 64.9848C33.3839 64.8994 33.2217 64.7748 33.0918 64.6198C32.9619 64.4649 32.8675 64.2833 32.8154 64.088C32.7632 63.8926 32.7545 63.6882 32.7899 63.4892C32.8718 63.1541 33.0669 62.8576 33.342 62.6497C33.6172 62.4418 33.9557 62.3353 34.3004 62.348H36.9188C37.2857 62.348 37.6375 62.2023 37.8969 61.9429C38.1563 61.6835 38.3021 61.3316 38.3021 60.9648V55.4319C38.3021 55.065 38.1563 54.7132 37.8969 54.4538C37.6375 54.1944 37.2857 54.0486 36.9188 54.0486H34.1524C33.9502 54.0487 33.7504 54.0045 33.5672 53.919C33.3839 53.8336 33.2217 53.709 33.0918 53.554C32.9619 53.3991 32.8675 53.2175 32.8154 53.0222C32.7632 52.8268 32.7545 52.6224 32.7899 52.4233C32.8718 52.0883 33.0669 51.7918 33.342 51.5839C33.6172 51.376 33.9557 51.2694 34.3004 51.2822H36.9188C37.2857 51.2822 37.6375 51.1364 37.8969 50.877C38.1563 50.6176 38.3021 50.2658 38.3021 49.899V29.1506C38.3021 28.7837 38.4478 28.4319 38.7072 28.1725C38.9666 27.9131 39.3184 27.7673 39.6853 27.7673H55.1097C58.6121 27.7207 61.9946 29.0417 64.5385 31.4494C67.0824 33.8572 68.5872 37.1621 68.7331 40.6618C68.7658 42.408 68.4501 44.1433 67.8043 45.7661C67.1586 47.3889 66.1959 48.8668 64.9724 50.1132C63.7489 51.3596 62.2892 52.3496 60.6786 53.0253C59.0681 53.7011 57.339 54.0489 55.5924 54.0486H42.4518C42.0849 54.0486 41.7331 54.1944 41.4737 54.4538C41.2143 54.7132 41.0685 55.065 41.0685 55.4319V60.9648C41.0685 61.3316 41.2143 61.6835 41.4737 61.9429C41.7331 62.2023 42.0849 62.348 42.4518 62.348Z" fill="#CC2034"/>
<path id="Vector_3" d="M42.4518 51.2821H55.5925C58.3439 51.2821 60.9826 50.1891 62.9282 48.2436C64.8737 46.298 65.9667 43.6593 65.9667 40.9079C65.9667 38.1565 64.8737 35.5178 62.9282 33.5722C60.9826 31.6267 58.3439 30.5337 55.5925 30.5337H42.4518C42.085 30.5337 41.7331 30.6794 41.4737 30.9388C41.2143 31.1982 41.0686 31.5501 41.0686 31.9169V49.8989C41.0686 50.2657 41.2143 50.6175 41.4737 50.877C41.7331 51.1364 42.085 51.2821 42.4518 51.2821ZM43.8351 33.3001H55.5925C57.6102 33.3001 59.5452 34.1017 60.972 35.5284C62.3987 36.9551 63.2002 38.8902 63.2002 40.9079C63.2002 42.9256 62.3987 44.8607 60.972 46.2874C59.5452 47.7141 57.6102 48.5156 55.5925 48.5156H43.8351V33.3001Z" fill="#CC2034"/>
</g>
</g>
</svg>
