<svg width="81" height="59" viewBox="0 0 81 59" fill="none" xmlns="http://www.w3.org/2000/svg">
<g id="Group">
<path id="Vector" d="M10.8527 28L9.60059 29.3993L10.591 35.5086L11.8481 36.4989L21.6745 35.1862L22.568 34.4808L23.9219 31.2453L23.0231 29.561L10.8527 28ZM20.7579 32.8822L12.6394 33.9664L12.0914 30.584L21.2295 31.7562L20.7579 32.8822Z" fill="#293B6E"/>
<path id="Vector_2" d="M18.2514 21.9212L18.8349 22.0932H62.1657L62.7498 21.9212L65.1022 20.4178L65.6154 19.0877L62.9077 7.84285L62.7725 7.50488L61.095 4.64159L60.133 4.07397H20.8674L19.906 4.64159L18.2286 7.50488L18.0926 7.84285L15.385 19.0877L15.8988 20.4178L18.2514 21.9212ZM20.2436 8.6193L21.4963 6.48157H59.5048L60.7575 8.6193L63.2122 18.8161L61.8522 19.6853H19.1489L17.7888 18.8161L20.2436 8.6193Z" fill="#CC2034"/>
<path id="Vector_3" d="M18.4036 41.2759H12.6382V43.6836H18.4036V41.2759Z" fill="#CC2034"/>
<path id="Vector_4" d="M79.8916 13.576H70.7056L69.7374 14.1551L69.0965 15.2784L66.5227 5.87905L66.3685 5.5345L63.1313 0.52269L62.1985 0H18.8026L17.869 0.52269L14.6322 5.5345L14.478 5.87905L11.9043 15.2784L11.2629 14.1551L10.2946 13.576H1.10853L0 15.0271L0.982903 20.0094L1.96065 20.958L9.16896 21.8495L4.76371 26.874L4.4699 27.8576L6.67694 45.049V56.8647L7.80947 58.0685H23.0592L24.1917 56.8647V51.3007H56.8084V56.8646L57.9409 58.0684H73.1907L74.3232 56.8646V45.0489L76.5303 27.8574L76.237 26.8739L71.8318 21.8494L79.0393 20.9579L80.0178 20.0092L81 15.027L79.8916 13.576ZM3.03266 18.6663L2.5035 15.9838H9.65687L10.7787 17.9474L10.3673 19.5731L3.03266 18.6663ZM74.2133 28.0978L72.0581 44.967V55.6608H59.0736V51.251H61.9556V48.8431H19.0445V51.251H21.9265V55.6608H8.94215V44.967L6.78681 28.0978L12.3716 21.7291L12.6308 21.2448L16.6024 6.73783L19.3986 2.40807H61.6017L64.3979 6.73783L68.3695 21.2448L68.6287 21.7291L74.2133 28.0978ZM77.9676 18.6663L70.6336 19.5731L70.2213 17.9474L71.3439 15.9838H78.4972L77.9676 18.6663Z" fill="#293B6E"/>
<path id="Vector_5" d="M52.1591 30.2986L51.2908 29.8672H29.7095L28.8411 30.2986L25.8628 34.0822L25.71 35.3754L29.5161 43.8093L30.5376 44.4925H50.4628L51.4843 43.8093L55.2904 35.3754L55.1374 34.0822L52.1591 30.2986ZM30.2385 32.2751H50.7622L51.8897 33.7087H29.1104L30.2385 32.2751ZM49.7499 42.0847H31.2504L30.4198 40.244H50.5802L49.7499 42.0847ZM51.6674 37.8364H29.3335L28.5572 36.1166H52.4435L51.6674 37.8364Z" fill="#CC2034"/>
<path id="Vector_6" d="M57.0789 31.0846L58.4326 34.3201L59.3261 35.0255L69.1519 36.3383L70.4096 35.348L71.3994 29.2387L70.1479 27.8394L57.9774 29.4007L57.0789 31.0846ZM68.9092 30.4229L68.3606 33.8053L60.2427 32.7211L59.7712 31.5951L68.9092 30.4229Z" fill="#293B6E"/>
<path id="Vector_7" d="M68.3618 41.2759H62.5964V43.6836H68.3618V41.2759Z" fill="#CC2034"/>
</g>
</svg>
