<svg width="85" height="74" viewBox="0 0 85 74" fill="none" xmlns="http://www.w3.org/2000/svg">
<path d="M73.2634 43.5419L58.2141 52.5002L54.8856 51.1744C55.7032 50.4522 56.2826 49.4938 56.5458 48.4283C56.8089 47.3628 56.7432 46.2413 56.3575 45.2147C55.9718 44.1881 55.2846 43.3058 54.3883 42.6864C53.4921 42.067 52.4298 41.7403 51.3446 41.7502L30.4172 41.8398C30.1594 41.844 29.9056 41.9052 29.6736 42.019L21.1752 46.104C20.94 44.874 20.2876 43.7657 19.3307 42.9708C18.3738 42.1758 17.1725 41.7441 15.9345 41.7502H1.7705C1.30094 41.7502 0.850602 41.939 0.518568 42.275C0.186535 42.611 0 43.0667 0 43.5419L0 72.2086C0 72.6837 0.186535 73.1395 0.518568 73.4755C0.850602 73.8115 1.30094 74.0002 1.7705 74.0002H15.9345C17.0304 73.9971 18.0984 73.6511 18.9923 73.0095C19.8862 72.368 20.5621 71.4624 20.9273 70.4169H56.6561C57.0615 70.4186 57.4553 70.2795 57.7715 70.0227L84.329 48.5227C84.6778 48.2431 84.9097 47.8407 84.9786 47.3958C85.0475 46.951 84.9484 46.4961 84.7008 46.1219C83.4773 44.2991 81.6128 43.0173 79.4874 42.5378C77.3621 42.0584 75.1361 42.4175 73.2634 43.5419ZM15.9345 70.4169H3.54101V45.3336H15.9345C16.4041 45.3336 16.8544 45.5223 17.1865 45.8583C17.5185 46.1943 17.705 46.65 17.705 47.1252V68.6252C17.705 69.1004 17.5185 69.5561 17.1865 69.8921C16.8544 70.2281 16.4041 70.4169 15.9345 70.4169ZM56.0364 66.8336H21.246V50.0456L30.8067 45.4411L51.3446 45.3336C51.8141 45.3336 52.2645 45.5223 52.5965 45.8583C52.9285 46.1943 53.1151 46.65 53.1151 47.1252C53.1151 47.6004 52.9285 48.0561 52.5965 48.3921C52.2645 48.7281 51.8141 48.9169 51.3446 48.9169H40.7216C40.252 48.9169 39.8017 49.1057 39.4696 49.4417C39.1376 49.7777 38.9511 50.2334 38.9511 50.7086C38.9511 51.1837 39.1376 51.6395 39.4696 51.9755C39.8017 52.3115 40.252 52.5002 40.7216 52.5002H47.5203L57.86 55.994C58.0982 56.0758 58.3509 56.1054 58.6012 56.0806C58.8515 56.0559 59.0938 55.9775 59.3118 55.8506L75.0516 46.5698C75.913 46.0648 76.9035 45.8308 77.8968 45.8978C78.8901 45.9649 79.8412 46.3298 80.6287 46.9461L56.0364 66.8336Z" fill="#293B6E"/>
<path d="M31.5422 35.8333C35.044 35.8333 38.4671 34.7825 41.3786 32.8138C44.2902 30.8451 46.5595 28.0469 47.8996 24.7731C49.2396 21.4992 49.5902 17.8968 48.9071 14.4213C48.2239 10.9458 46.5377 7.75337 44.0616 5.24768C41.5855 2.74199 38.4308 1.03559 34.9963 0.344272C31.5619 -0.347047 28.002 0.00776301 24.7668 1.36383C21.5317 2.7199 18.7665 5.01633 16.8211 7.96271C14.8756 10.9091 13.8372 14.3731 13.8372 17.9167C13.8372 22.6685 15.7026 27.2256 19.0229 30.5857C22.3432 33.9457 26.8466 35.8333 31.5422 35.8333ZM31.5422 3.58334C34.3436 3.58334 37.0821 4.42398 39.4114 5.99894C41.7406 7.57391 43.5561 9.81247 44.6281 12.4315C45.7001 15.0506 45.9806 17.9326 45.4341 20.713C44.8876 23.4934 43.5386 26.0473 41.5577 28.0519C39.5768 30.0564 37.0531 31.4215 34.3055 31.9746C31.558 32.5277 28.71 32.2438 26.1219 31.1589C23.5338 30.0741 21.3217 28.237 19.7653 25.8798C18.2089 23.5227 17.3782 20.7515 17.3782 17.9167C17.3782 14.1152 18.8705 10.4695 21.5268 7.78148C24.183 5.09346 27.7857 3.58334 31.5422 3.58334Z" fill="#293B6E"/>
<path d="M27.67 23.7071C28.0017 24.0408 28.4504 24.2281 28.9182 24.2281C29.3859 24.2281 29.8347 24.0408 30.1664 23.7071L40.7894 12.9571C41.0795 12.6143 41.231 12.1734 41.2138 11.7225C41.1966 11.2716 41.0119 10.8439 40.6966 10.5248C40.3812 10.2057 39.9586 10.0188 39.513 10.0013C39.0674 9.98392 38.6317 10.1373 38.293 10.4308L28.927 19.9087L26.6431 17.5975C26.3044 17.304 25.8687 17.1506 25.4231 17.168C24.9775 17.1854 24.5548 17.3723 24.2395 17.6914C23.9242 18.0105 23.7395 18.4383 23.7223 18.8892C23.7051 19.3401 23.8566 19.781 24.1467 20.1237L27.67 23.7071Z" fill="#CC2034"/>
</svg>
