<svg width="72" height="65" viewBox="0 0 72 65" fill="none" xmlns="http://www.w3.org/2000/svg">
<path d="M72 24.4029C71.9974 23.2148 71.6432 22.0551 70.9837 21.0752C70.3242 20.0953 69.39 19.3407 68.3031 18.9099C69.1516 17.8666 69.6186 16.5559 69.6244 15.2011C69.6217 13.8622 69.1729 12.564 68.3517 11.5187C67.5304 10.4734 66.3852 9.74296 65.1034 9.44686C65.7298 8.56565 66.1048 7.52515 66.1869 6.4404C66.269 5.35564 66.055 4.26889 65.5686 3.30029C65.0822 2.3317 64.3423 1.51898 63.4308 0.952005C62.5192 0.385028 61.4715 0.0858746 60.4035 0.087619H34.0714C30.9216 0.0885498 27.7933 0.616564 24.8115 1.65057L17.3521 4.23313C17.3889 3.69314 17.3166 3.15121 17.1397 2.6408C16.9628 2.1304 16.685 1.66238 16.3235 1.26565C15.962 0.868928 15.5245 0.551927 15.038 0.334241C14.5515 0.116555 14.0263 0.00280748 13.495 2.62297e-05L3.85714 0C2.83451 0.00113708 1.85408 0.415461 1.13096 1.15207C0.407851 1.88867 0.00111625 2.8874 0 3.92912V34.3606C0.00111625 35.4023 0.407851 36.4011 1.13096 37.1377C1.85408 37.8743 2.83451 38.2886 3.85714 38.2897H13.495C14.4375 38.2868 15.3462 37.9316 16.0488 37.2916C16.7514 36.6515 17.1991 35.7711 17.3068 34.8173C21.9876 37.9737 29.8516 45.4331 32.8083 61.0497C33.0221 62.191 33.63 63.2166 34.5221 63.9407C35.4142 64.6647 36.5313 65.0394 37.6712 64.9967C38.5959 64.9905 39.509 64.787 40.3517 64.3992C41.1944 64.0114 41.9479 63.448 42.5637 62.7452C43.1795 62.0425 43.6438 61.2161 43.9268 60.3193C44.2097 59.4226 44.305 58.4753 44.2064 57.5387L42.1486 39.366H64.6712C65.783 39.3712 66.8722 39.0454 67.8049 38.4288C68.7375 37.8122 69.4731 36.9315 69.9213 35.895C70.3694 34.8584 70.5107 33.7111 70.3276 32.5939C70.1446 31.4767 69.6452 30.4383 68.8909 29.6062C69.8253 29.1097 70.6087 28.3625 71.1567 27.4455C71.7046 26.5285 71.9962 25.4764 72 24.4029ZM14.7807 34.3606C14.7803 34.7078 14.6448 35.0408 14.4037 35.2863C14.1627 35.5318 13.8359 35.6699 13.495 35.6703H3.85714C3.51625 35.6699 3.18943 35.5318 2.94838 35.2863C2.70734 35.0408 2.57177 34.7078 2.57143 34.3606V3.92912C2.57177 3.58187 2.70734 3.24894 2.94838 3.0034C3.18943 2.75786 3.51625 2.61976 3.85714 2.61941H13.495C13.8359 2.61976 14.1627 2.75786 14.4037 3.0034C14.6448 3.24894 14.7803 3.58187 14.7807 3.92912V34.3606ZM64.6712 36.7466H40.7059C40.525 36.7478 40.3464 36.7877 40.1816 36.8637C40.0167 36.9397 39.8694 37.05 39.7491 37.1876C39.6287 37.3252 39.538 37.487 39.4829 37.6625C39.4278 37.8381 39.4094 38.0234 39.429 38.2066L41.6526 57.8387C41.713 58.4254 41.6488 59.0184 41.4644 59.5776C41.28 60.1367 40.9797 60.6489 40.5838 61.0794C40.1879 61.5099 39.7058 61.8486 39.1701 62.0725C38.6344 62.2965 38.0576 62.4004 37.479 62.3773C36.9694 62.3759 36.4762 62.1934 36.0845 61.8613C35.6928 61.5292 35.4271 61.0682 35.3333 60.5579C31.8976 42.4105 22.08 34.5661 17.3521 31.7646V6.99995C22.2208 5.44957 28.9229 2.4199 34.0715 2.70724L60.4035 2.70703C61.2579 2.7053 62.0783 3.04833 62.6851 3.66109C63.2919 4.27386 63.6358 5.10648 63.6415 5.97684C63.6473 6.84721 63.3144 7.68447 62.7157 8.30549C62.1171 8.92651 61.3013 9.28075 60.447 9.29073C60.447 9.29073 48.5969 9.29424 48.5747 9.29521C48.2379 9.30173 47.9171 9.44259 47.6812 9.68751C47.4453 9.93243 47.3132 10.2619 47.3132 10.605C47.3132 10.9481 47.4454 11.2775 47.6813 11.5224C47.9172 11.7673 48.238 11.9081 48.5748 11.9146C51.0748 11.9166 61.5311 11.9124 63.8225 11.9101C64.6731 11.9199 65.4855 12.271 66.0836 12.8872C66.6817 13.5033 67.0171 14.3349 67.0171 15.2014C67.0171 16.0679 66.6816 16.8995 66.0835 17.5156C65.4855 18.1318 64.673 18.4828 63.8224 18.4926H51.9835C51.6425 18.4926 51.3155 18.6306 51.0744 18.8762C50.8333 19.1218 50.6978 19.4549 50.6978 19.8023C50.6978 20.1496 50.8333 20.4828 51.0744 20.7284C51.3155 20.974 51.6425 21.112 51.9835 21.112C51.9835 21.112 64.6603 21.1119 66.198 21.112C67.0484 21.1219 67.8606 21.473 68.4585 22.0891C69.0564 22.7052 69.3917 23.5366 69.3917 24.4029C69.3917 25.2693 69.0564 26.1006 68.4584 26.7167C67.8605 27.3328 67.0483 27.6838 66.1979 27.6938C64.2039 27.6948 53.4203 27.6932 51.6985 27.6964C51.3619 27.7031 51.0412 27.844 50.8055 28.0889C50.5697 28.3338 50.4377 28.6631 50.4377 29.0061C50.4377 29.3491 50.5698 29.6784 50.8055 29.9233C51.0413 30.1682 51.3619 30.3091 51.6986 30.3158H64.6712C65.0866 30.3143 65.4983 30.3964 65.8825 30.5573C66.2668 30.7182 66.616 30.9549 66.9103 31.2536C67.2046 31.5523 67.4381 31.9073 67.5974 32.2981C67.7567 32.689 67.8388 33.108 67.8388 33.5312C67.8388 33.9544 67.7567 34.3735 67.5974 34.7643C67.4381 35.1552 67.2046 35.5101 66.9103 35.8089C66.616 36.1076 66.2668 36.3442 65.8825 36.5051C65.4983 36.666 65.0866 36.7481 64.6712 36.7466Z" fill="#293B6E"/>
<path d="M8.67595 4.24219C7.55772 4.2552 6.48963 4.71684 5.7034 5.52695C4.91718 6.33706 4.47624 7.43029 4.47626 8.56946C4.47627 9.70863 4.91724 10.8019 5.70349 11.6119C6.48974 12.422 7.55785 12.8836 8.67608 12.8966C9.79431 12.8836 10.8624 12.422 11.6486 11.6118C12.4349 10.8017 12.8758 9.7085 12.8758 8.56933C12.8758 7.43016 12.4348 6.33694 11.6485 5.52686C10.8623 4.71677 9.79418 4.25517 8.67595 4.24219ZM8.67595 10.2772C8.23564 10.2705 7.81559 10.0876 7.50655 9.76807C7.1975 9.44851 7.02428 9.01794 7.02428 8.56936C7.02429 8.12079 7.19754 7.69022 7.50659 7.37068C7.81565 7.05114 8.2357 6.86828 8.67601 6.8616C9.11632 6.8683 9.53637 7.05118 9.84541 7.37073C10.1545 7.69028 10.3277 8.12085 10.3277 8.56943C10.3277 9.018 10.1544 9.44857 9.84537 9.76811C9.53631 10.0877 9.11626 10.2705 8.67595 10.2772Z" fill="#CC2034"/>
</svg>
