<svg width="100" height="97" viewBox="0 0 100 97" fill="none" xmlns="http://www.w3.org/2000/svg">
<path d="M93.6 66.65C93.79 65.52 93.86 63.79 93.04 62.29C92.62 61.52 92.02 60.91 91.25 60.46C91.49 59.25 91.6 57.49 90.71 56.04C90.32 55.4 89.62 54.65 88.39 54.21C88.43 53.38 88.31 52.36 87.75 51.44C87.3 50.7 86.38 49.76 84.56 49.46C84.48 49.45 84.4 49.44 84.32 49.44H81.1V24.41C81.1 24.41 81.1 24.39 81.1 24.38C81.1 24.34 81.1 24.31 81.09 24.27C81.09 24.2 81.07 24.12 81.06 24.05C81.06 24.04 81.06 24.02 81.06 24.01L75.75 4.6C75.57 3.95 74.98 3.5 74.3 3.5H25.71C25.03 3.5 24.44 3.95 24.26 4.6L23.11 8.8C22.1 8.61 21.06 8.5 20 8.5C10.9 8.5 3.5 15.9 3.5 25C3.5 34.1 10.31 40.87 18.9 41.44V66.1C18.9 66.93 19.57 67.6 20.4 67.6H42.14V76.76C42.14 77.59 42.81 78.26 43.64 78.26H56.84C57.67 78.26 58.34 77.59 58.34 76.76V75.54H59.79L66.62 82.6L69.55 95.32C69.7 95.96 70.24 96.42 70.89 96.48C71.06 96.49 71.24 96.5 71.43 96.5C73.85 96.5 77.86 95.28 78.67 90.46C79.21 87.23 78.67 85.37 78.16 83.57C77.87 82.56 77.59 81.6 77.5 80.34L91.7 77.98C93.75 77.53 95.44 76.02 96.11 74.04C97.1 71.1 96.18 68.46 93.6 66.65ZM91.14 75.03L75.74 77.59C75.03 77.71 74.5 78.31 74.49 79.03C74.43 81.4 74.89 82.99 75.29 84.39C75.75 86 76.15 87.4 75.73 89.96C75.3 92.53 73.44 93.25 72.22 93.43L69.47 81.52C69.41 81.25 69.28 81.01 69.09 80.81L61.52 72.99C61.24 72.7 60.85 72.53 60.44 72.53H58.35V58.67H60.91C61.22 58.67 61.53 58.57 61.78 58.39L68.4 53.66C69.52 52.86 70.85 52.43 72.23 52.43H84.21C84.95 52.57 85.14 52.88 85.2 52.99C85.56 53.57 85.37 54.59 85.28 54.9C85.14 55.33 85.2 55.81 85.45 56.19C85.7 56.57 86.11 56.82 86.56 56.86C87.78 56.98 88.07 57.45 88.16 57.6C88.73 58.51 88.26 60.25 88.06 60.78C87.9 61.18 87.92 61.63 88.12 62.01C88.31 62.39 88.66 62.67 89.08 62.78C89.94 63 90.25 63.42 90.41 63.71C90.97 64.73 90.65 66.35 90.48 66.89C90.25 67.58 90.55 68.33 91.19 68.68C93.25 69.79 93.91 71.19 93.27 73.08C92.94 74.06 92.09 74.82 91.14 75.03ZM20 11.5C27.44 11.5 33.5 17.56 33.5 25C33.5 32.44 27.44 38.5 20 38.5C12.56 38.5 6.5 32.44 6.5 25C6.5 17.56 12.56 11.5 20 11.5ZM43.69 25.91H56.3V37.77H43.69V25.91ZM56.19 22.91H43.8L44.98 6.5H55L56.18 22.91H56.19ZM59.2 22.91L58.02 6.5H73.15L77.64 22.91H59.2ZM41.98 6.5L40.8 22.91H36.35C35.58 16.84 31.51 11.8 25.99 9.64L26.85 6.5H41.98ZM21.9 41.38C29.81 40.47 36.01 33.95 36.46 25.91H40.7V39.27C40.7 40.1 41.37 40.77 42.2 40.77H57.81C58.64 40.77 59.31 40.1 59.31 39.27V25.91H78.11V49.44H72.22C70.21 49.44 68.28 50.06 66.65 51.23L60.42 55.68H58.35V53.66C58.35 52.83 57.68 52.16 56.85 52.16H43.65C42.82 52.16 42.15 52.83 42.15 53.66V64.6H21.9V41.38ZM45.14 55.16H55.34V75.26H45.14V55.16Z" fill="#293B6E"/>
<path d="M13.09 32.3898C13.36 32.5798 13.66 32.6698 13.96 32.6698C14.43 32.6698 14.89 32.4498 15.18 32.0398C15.75 31.2398 17.42 30.6598 19.34 30.5898C21.63 30.4998 23.82 31.1398 24.64 32.1198C25.17 32.7598 26.12 32.8398 26.75 32.3098C27.38 31.7798 27.47 30.8298 26.94 30.1998C25.22 28.1298 21.83 27.4998 19.23 27.5898C16.26 27.6998 13.89 28.6798 12.74 30.2798C12.26 30.9498 12.41 31.8898 13.08 32.3698L13.09 32.3898Z" fill="#CC2034"/>
<path d="M14.67 23.4701C15.5 23.4701 16.17 22.8001 16.17 21.9701V20.1201C16.17 19.2901 15.5 18.6201 14.67 18.6201C13.84 18.6201 13.17 19.2901 13.17 20.1201V21.9701C13.17 22.8001 13.84 23.4701 14.67 23.4701Z" fill="#CC2034"/>
<path d="M23.83 20.1201V21.9701C23.83 22.8001 24.5 23.4701 25.33 23.4701C26.16 23.4701 26.83 22.8001 26.83 21.9701V20.1201C26.83 19.2901 26.16 18.6201 25.33 18.6201C24.5 18.6201 23.83 19.2901 23.83 20.1201Z" fill="#CC2034"/>
</svg>
